<?xml version="1.0" encoding="UTF-8" standalone="no"?>
<!-- Created with Inkscape (http://www.inkscape.org/) -->

<svg
   xmlns:dc="http://purl.org/dc/elements/1.1/"
   xmlns:cc="http://creativecommons.org/ns#"
   xmlns:rdf="http://www.w3.org/1999/02/22-rdf-syntax-ns#"
   xmlns:svg="http://www.w3.org/2000/svg"
   xmlns="http://www.w3.org/2000/svg"
   xmlns:sodipodi="http://sodipodi.sourceforge.net/DTD/sodipodi-0.dtd"
   xmlns:inkscape="http://www.inkscape.org/namespaces/inkscape"
   width="400"
   height="400"
   id="svg2"
   version="1.1"
   inkscape:version="0.48.2 r9819"
   sodipodi:docname="branding-Twitter.svg"
   inkscape:export-filename="/Users/smithd98/apps/sowhatsbitcoin.com/images/social_media/branding-Twitter.png"
   inkscape:export-xdpi="90"
   inkscape:export-ydpi="90">
  <defs
     id="defs4">
    <path
       style="fill:none;stroke:#000000;stroke-width:1px;stroke-linecap:butt;stroke-linejoin:miter;stroke-opacity:1"
       d="m -1392.2932,588.90982 c 20.3921,-52.84313 59.3137,-13.03921 79.9999,7.64707 56.4706,44.90196 81.1765,12.15686 88.8236,-17.05883"
       id="path3068-5"
       inkscape:connector-curvature="0"
       sodipodi:nodetypes="ccc" />
    <path
       style="fill:none;stroke:#000000;stroke-width:1px;stroke-linecap:butt;stroke-linejoin:miter;stroke-opacity:1"
       d="m 171.76471,446.47983 c 26.07842,62.15686 8.62745,147.84313 -7.05882,180.58823"
       id="path3059-0"
       inkscape:connector-curvature="0"
       sodipodi:nodetypes="cc" />
    <path
       style="fill:none;stroke:#000000;stroke-width:1px;stroke-linecap:butt;stroke-linejoin:miter;stroke-opacity:1"
       d="m -1232.7121,1107.6133 c 235.14768,210.1073 618.08934,100.3824 733.4448,-37.3933"
       id="path3050-9"
       inkscape:connector-curvature="0"
       sodipodi:nodetypes="cc" />
    <path
       style="fill:none;stroke:#000000;stroke-width:1px;stroke-linecap:butt;stroke-linejoin:miter;stroke-opacity:1"
       d="m 429,309.43108 c 131.28125,148.81859 63.22078,385.19363 5.8189,488.72619"
       id="path3035-0"
       inkscape:connector-curvature="0"
       sodipodi:nodetypes="cc" />
    <path
       style="fill:none;stroke:#000000;stroke-width:1px;stroke-linecap:butt;stroke-linejoin:miter;stroke-opacity:1"
       d="m -1289.0811,847.61983 c -121.7626,-159.19679 -166.1756,-364.75529 -37.5816,-555.37391"
       id="path3013-0"
       inkscape:connector-curvature="0"
       sodipodi:nodetypes="cc" />
    <path
       style="fill:none;stroke:#000000;stroke-width:1px;stroke-linecap:butt;stroke-linejoin:miter;stroke-opacity:1"
       d="m -1640.2608,189.05728 c 197.7929,-135.774282 367.3284,-135.880072 585.9796,0"
       id="path3000-6"
       inkscape:connector-curvature="0"
       sodipodi:nodetypes="cc" />
  </defs>
  <sodipodi:namedview
     id="base"
     pagecolor="#ffffff"
     bordercolor="#666666"
     borderopacity="1.0"
     inkscape:pageopacity="0.0"
     inkscape:pageshadow="2"
     inkscape:zoom="0.25000001"
     inkscape:cx="-885.1075"
     inkscape:cy="669.65014"
     inkscape:document-units="px"
     inkscape:current-layer="layer1"
     showgrid="false"
     inkscape:window-width="1298"
     inkscape:window-height="779"
     inkscape:window-x="102"
     inkscape:window-y="17"
     inkscape:window-maximized="0" />
  <metadata
     id="metadata7">
    <rdf:RDF>
      <cc:Work
         rdf:about="">
        <dc:format>image/svg+xml</dc:format>
        <dc:type
           rdf:resource="http://purl.org/dc/dcmitype/StillImage" />
        <dc:title></dc:title>
      </cc:Work>
    </rdf:RDF>
  </metadata>
  <g
     inkscape:label="Layer 1"
     inkscape:groupmode="layer"
     id="layer1"
     transform="translate(0,-652.36218)">
    <text
       xml:space="preserve"
       style="font-size:74.04978943px;font-style:normal;font-weight:normal;line-height:125%;letter-spacing:0px;word-spacing:0px;fill:#000000;fill-opacity:1;stroke:none;font-family:Sans"
       x="100.36292"
       y="759.79395"
       id="text4132"
       sodipodi:linespacing="125%"><tspan
         sodipodi:role="line"
         id="tspan4134"
         x="100.36292"
         y="759.79395"
         style="font-size:148.09957886px;font-style:normal;font-variant:normal;font-weight:normal;font-stretch:normal;font-family:Copperplate;-inkscape-font-specification:Copperplate">?</tspan></text>
    <path
       style="fill:#e1e1e1;fill-opacity:1;stroke:#000000;stroke-width:7.40497875;stroke-miterlimit:4;stroke-opacity:1;stroke-dasharray:none"
       d="m 102.79847,1022.794 c 0,-0.405 4.93674,-15.1918 10.97054,-32.8596 6.0338,-17.66779 11.2404,-33.37285 11.57027,-34.90009 0.33016,-1.52732 1.19227,-3.22259 1.91637,-3.76742 0.72418,-0.54489 2.66909,-4.22725 4.32203,-8.18338 l 3.0054,-7.19284 -4.32203,2.79961 c -2.37712,1.53977 -6.54079,3.34569 -9.25254,4.01307 -5.61663,1.38238 -10.79259,-3.62878 -19.45966,-18.83986 -2.704835,-4.74703 -8.111975,-13.51602 -12.015925,-19.48659 -3.90402,-5.97057 -7.09813,-12.93167 -7.09813,-15.46911 0,-2.67958 -1.88406,-6.09557 -4.49452,-8.14897 -2.47204,-1.94449 -9.20931,-10.26378 -14.97172,-18.48745 l -10.47712,-14.95199 4.327,-4.60924 c 2.37984,-2.53513 3.49398,-4.40841 2.47581,-4.16289 -1.01823,0.24551 -3.19516,-0.1476 -4.83769,-0.87401 -2.80527,-1.24032 -35.68659,3.51896 -39.16505,5.66882 -0.88113,0.54419 -2.05962,-0.75985 -2.61893,-2.89866 -0.60575,-2.31563 -2.51471,-3.88877 -4.7194,-3.88877 -2.79045,0 -3.46412,-0.91163 -2.73477,-3.70068 0.53231,-2.03535 0.21055,-4.16856 -0.71473,-4.74046 -2.62529,-1.62252 1.7308,-8.2201 5.42742,-8.2201 1.7969,0 4.05854,-0.76796 5.02578,-1.7066 0.96732,-0.93863 11.75543,-2.15377 23.97363,-2.70028 12.2182,-0.5463 23.46455,-1.08182 24.9918,-1.18961 1.52732,-0.10772 5.27605,0.32456 8.33062,0.96144 3.05457,0.63653 7.37261,1.52515 9.59563,1.97485 2.2231,0.44976 4.57014,2.48176 5.21569,4.51578 0.64562,2.03403 2.36719,3.69817 3.82589,3.69817 1.45863,0 2.65208,0.88225 2.65208,1.9605 0,1.07826 0.96179,1.36609 2.13734,0.63933 1.25571,-0.77615 1.63728,-0.51202 0.92507,0.64073 -0.66661,1.07874 0.64212,5.43469 2.90774,9.67992 2.265985,4.24516 4.288115,7.03182 4.493695,6.19244 0.20564,-0.83938 0.72515,-10.19243 1.1547,-20.78462 1.21661,-19.12132 12.36412,-35.29041 15.92966,-35.35322 7.54685,0 40.95481,-5.39322 48.07799,-10.69347 7.20285,-5.3595 -7.1201,-13.8885 -1.5844,-34.662 6.57674,-24.68025 24.64059,-52.79593 37.99048,-59.13086 5.10231,-2.42126 10.13774,-3.09514 19.27115,-2.57906 11.05469,0.62464 13.26365,1.43583 20.85926,7.65989 4.67247,3.82868 9.33424,9.22561 10.35954,11.99318 4.59616,12.40636 7.7155,34.87044 8.24333,59.3649 l -10.2079,23.48414 15.87412,6.79071 c 11.43122,4.89015 16.84185,26.66573 14.21886,40.4968 -0.99088,5.22492 -1.20283,10.45362 -0.47075,11.6193 0.7318,1.16569 1.60049,4.20214 1.93043,6.74756 0.94822,7.31525 4.16199,18.51249 5.31334,18.51249 0.57707,0 0.73166,-3.32513 0.34414,-7.38919 -0.38751,-4.06406 -0.2665,-7.60456 0.2686,-7.86777 1.998,-0.98285 11.15485,-14.19138 11.15485,-16.09068 0,-1.08616 0.97193,-1.97478 2.15979,-1.97478 1.18787,0 1.69275,-0.46725 1.12197,-1.03782 -0.9997,-0.9997 3.66774,-6.29821 10.36605,-11.7676 1.76717,-1.44296 9.89068,-4.03286 18.05216,-5.75534 12.86907,-2.71594 15.19072,-2.78016 17.48698,-0.48404 1.4564,1.45632 2.64789,3.42138 2.64789,4.36687 0,0.94542 3.12396,1.72366 6.94215,1.72933 3.8182,0.006 9.85794,0.76257 13.4216,1.68197 3.56358,0.9194 9.52289,2.187 13.24273,2.81689 13.02009,2.2047 10.10101,9.8643 -6.69985,17.58057 -9.24337,4.24523 -13.98418,4.37477 -31.99753,0.87414 -5.11825,-0.99466 -6.01652,-0.63443 -6.01652,2.41378 0,1.97065 -4.16535,9.62935 -9.25625,17.01944 -5.0909,7.39003 -9.25624,15.40323 -9.25624,17.80714 0,2.40398 -0.88982,4.92072 -1.97744,5.59292 -1.08763,0.6722 -1.5341,2.37747 -0.99222,3.78951 0.5421,1.41212 0.13361,2.36915 -0.90771,2.12685 -1.04104,-0.24202 -2.97399,2.62054 -4.29531,6.36193 -2.80535,7.94318 -10.50643,18.0665 -21.37646,28.09987 -6.27617,5.79311 -8.78696,6.97838 -13.36066,6.30709 -5.51262,-0.80909 -5.61279,-0.68549 -4.7206,5.82501 0.7339,5.35523 11.72675,36.00353 19.64985,54.78393 0.85911,2.0364 1.76899,4.53558 2.022,5.55378 0.25321,1.0181 2.03192,5.8391 3.95305,10.7132 1.9212,4.874 3.49307,9.6641 3.49307,10.6446 0,1.1212 -37.78315,1.7827 -101.8185,1.7827 -56.00011,0 -101.81843,-0.3316 -101.81843,-0.7363 z"
       id="path2996"
       inkscape:connector-curvature="0"
       inkscape:export-filename="/Users/smithd98/apps/sowhatsbitcoin.com/images/soWhatsBitcoin.png"
       inkscape:export-xdpi="90"
       inkscape:export-ydpi="90"
       sodipodi:nodetypes="ssccscssssssscsscsssssssscsssssssscccssssssscsssssscsscsssscssssssssssssssscssss" />
    <g
       id="g4223"
       transform="matrix(2.8925699,0,0,2.8925699,-840.43458,271.88855)">
      <path
         inkscape:connector-curvature="0"
         id="path4326"
         d="m 387.34898,214.7575 c 0,15.27452 -12.38245,27.65697 -27.65696,27.65697 -15.27452,0 -27.65697,-12.38245 -27.65697,-27.65697 0,-15.27451 12.38245,-27.65696 27.65697,-27.65696 15.27451,0 27.65696,12.38245 27.65696,27.65696 z"
         style="fill:#f7931a;fill-opacity:1;stroke:#000000;stroke-width:0.27177358;stroke-linecap:butt;stroke-linejoin:bevel;stroke-miterlimit:4;stroke-opacity:1;stroke-dasharray:0.54354713, 0.27177356;stroke-dashoffset:0" />
      <path
         sodipodi:nodetypes="cccccccccccccccccccccccccccccccccczccc"
         inkscape:connector-curvature="0"
         d="m 359.62826,196.97108 c -0.42986,1.60423 -0.85972,3.20848 -1.28958,4.81273 -2.26051,-0.60571 -4.52104,-1.21141 -6.78157,-1.81713 -0.31263,1.16673 -0.62526,2.33346 -0.93789,3.50019 1.09382,0.29308 2.18762,0.58616 3.28142,0.87924 -1.45368,5.42527 -2.90738,10.85055 -4.36109,16.27582 -1.0938,-0.29308 -2.1876,-0.58617 -3.2814,-0.87926 -0.31654,1.18131 -0.63306,2.36262 -0.9496,3.54394 2.26054,0.6057 4.52107,1.2114 6.78159,1.81712 -0.43767,1.6334 -0.87535,3.26682 -1.31302,4.90025 1.09382,0.29307 2.18761,0.58616 3.28142,0.87924 0.43767,-1.63342 0.87534,-3.26683 1.31301,-4.90025 1.05006,0.28136 2.1001,0.56272 3.15016,0.84408 -0.43768,1.63343 -0.87534,3.26683 -1.31302,4.90026 1.10839,0.29698 2.21679,0.59398 3.32517,0.89097 0.40626,-1.64184 0.81243,-3.28369 1.21867,-4.92552 2.99158,0.47287 6.62651,0.0849 8.50082,-2.60424 2.21177,-3.13741 0.57096,-7.96865 -2.96725,-9.31872 2.14669,0.35344 3.85823,-1.59774 4.64238,-3.38033 1.11325,-2.30631 0.61514,-5.40692 -1.60257,-6.87768 -0.69632,-0.71856 -2.57153,-0.5818 -2.07701,-1.68646 0.37869,-1.41332 0.7574,-2.82663 1.1361,-4.23995 -1.10839,-0.29699 -2.21677,-0.59398 -3.32517,-0.89097 -0.42985,1.60423 -0.85971,3.20849 -1.28956,4.81273 -1.05006,-0.28135 -2.10011,-0.56272 -3.15017,-0.84408 0.42986,-1.60424 0.85971,-3.20849 1.28956,-4.81274 -1.09379,-0.29309 -2.1876,-0.58617 -3.2814,-0.87924 z m 2.66337,9.51349 c 1.47152,0.38097 3.3923,1.1762 3.3835,2.97048 -0.0447,1.45434 -0.91202,3.17231 -2.57809,3.12612 -1.39365,0.0484 -2.78667,-0.22054 -3.92131,-0.79557 0.5034,-1.87868 1.00677,-3.75736 1.51017,-5.63604 0.61265,0.10892 1.00398,0.17598 1.60573,0.33501 z m 1.54162,12.34925 c 0.28702,1.77475 -0.22554,2.88568 -1.75532,3.78997 -1.52976,0.90426 -3.85191,0.3621 -5.77218,-0.12732 0.65529,-2.44556 1.31058,-4.89112 1.96587,-7.33669 2.04586,0.53871 5.18673,1.89506 5.56163,3.67404 z"
         style="fill:#ffffff;fill-opacity:1;stroke:#000000;stroke-width:0.0452956px;stroke-linecap:butt;stroke-linejoin:miter;stroke-opacity:1"
         id="path4226" />
      <path
         inkscape:connector-curvature="0"
         id="path4324"
         d="m 378.8915,219.90199 c -2.84122,10.60357 -13.74039,16.89623 -24.34397,14.05499 -10.60358,-2.84121 -16.89622,-13.74038 -14.05501,-24.34397 2.84124,-10.60357 13.7404,-16.89621 24.34397,-14.05499 10.60359,2.84122 16.89622,13.74038 14.05501,24.34397 z"
         style="fill:none;stroke:#000000;stroke-width:0.27177358;stroke-linecap:butt;stroke-linejoin:bevel;stroke-miterlimit:4;stroke-opacity:1;stroke-dashoffset:0" />
      <path
         inkscape:connector-curvature="0"
         id="path4326-8"
         d="m 386.81608,214.7575 c 0,14.98022 -12.14385,27.12407 -27.12406,27.12407 -14.98022,0 -27.12407,-12.14385 -27.12407,-27.12407 0,-14.98021 12.14385,-27.12406 27.12407,-27.12406 14.98021,0 27.12406,12.14385 27.12406,27.12406 z"
         style="opacity:0.45132745;fill:none;stroke:#000000;stroke-width:0.54354715;stroke-linecap:butt;stroke-linejoin:bevel;stroke-miterlimit:4;stroke-opacity:1;stroke-dashoffset:0" />
    </g>
    <text
       sodipodi:linespacing="125%"
       id="text4205"
       y="761.5611"
       x="-171.93045"
       style="font-size:74.04978943px;font-style:normal;font-weight:normal;line-height:125%;letter-spacing:0px;word-spacing:0px;fill:#000000;fill-opacity:1;stroke:none;font-family:Sans"
       xml:space="preserve"
       transform="matrix(0.96592583,-0.25881905,0.25881905,0.96592583,0,0)"><tspan
         style="font-size:148.09957886px;font-style:normal;font-variant:normal;font-weight:normal;font-stretch:normal;font-family:Copperplate;-inkscape-font-specification:Copperplate"
         y="761.5611"
         x="-171.93045"
         id="tspan4207"
         sodipodi:role="line">?</tspan></text>
    <text
       sodipodi:linespacing="125%"
       id="text4209"
       y="685.91559"
       x="471.79016"
       style="font-size:74.04978943px;font-style:normal;font-weight:normal;line-height:125%;letter-spacing:0px;word-spacing:0px;fill:#000000;fill-opacity:1;stroke:none;font-family:Sans"
       xml:space="preserve"
       transform="matrix(0.96592583,0.25881905,-0.25881905,0.96592583,0,0)"><tspan
         style="font-size:148.09957886px;font-style:normal;font-variant:normal;font-weight:normal;font-stretch:normal;font-family:Copperplate;-inkscape-font-specification:Copperplate"
         y="685.91559"
         x="471.79016"
         id="tspan4211"
         sodipodi:role="line">?</tspan></text>
  </g>
</svg>
