<?xml version="1.0" encoding="UTF-8" standalone="no"?>
<!-- Created with Inkscape (http://www.inkscape.org/) -->

<svg
   xmlns:dc="http://purl.org/dc/elements/1.1/"
   xmlns:cc="http://creativecommons.org/ns#"
   xmlns:rdf="http://www.w3.org/1999/02/22-rdf-syntax-ns#"
   xmlns:svg="http://www.w3.org/2000/svg"
   xmlns="http://www.w3.org/2000/svg"
   xmlns:sodipodi="http://sodipodi.sourceforge.net/DTD/sodipodi-0.dtd"
   xmlns:inkscape="http://www.inkscape.org/namespaces/inkscape"
   width="744.09448819"
   height="1052.3622047"
   id="svg2"
   version="1.1"
   inkscape:version="0.48.2 r9819"
   sodipodi:docname="branding.svg"
   inkscape:export-filename="/Users/smithd98/apps/sowhatsbitcoin.com/images/favicon_needs_resize.png"
   inkscape:export-xdpi="90"
   inkscape:export-ydpi="90">
  <defs
     id="defs4">
    <path
       style="fill:none;stroke:#000000;stroke-width:1px;stroke-linecap:butt;stroke-linejoin:miter;stroke-opacity:1"
       d="m -1392.2932,588.90982 c 20.3921,-52.84313 59.3137,-13.03921 79.9999,7.64707 56.4706,44.90196 81.1765,12.15686 88.8236,-17.05883"
       id="path3068-5"
       inkscape:connector-curvature="0"
       sodipodi:nodetypes="ccc" />
    <path
       style="fill:none;stroke:#000000;stroke-width:1px;stroke-linecap:butt;stroke-linejoin:miter;stroke-opacity:1"
       d="m 171.76471,446.47983 c 26.07842,62.15686 8.62745,147.84313 -7.05882,180.58823"
       id="path3059-0"
       inkscape:connector-curvature="0"
       sodipodi:nodetypes="cc" />
    <path
       style="fill:none;stroke:#000000;stroke-width:1px;stroke-linecap:butt;stroke-linejoin:miter;stroke-opacity:1"
       d="m -1232.7121,1107.6133 c 235.14768,210.1073 618.08934,100.3824 733.4448,-37.3933"
       id="path3050-9"
       inkscape:connector-curvature="0"
       sodipodi:nodetypes="cc" />
    <path
       style="fill:none;stroke:#000000;stroke-width:1px;stroke-linecap:butt;stroke-linejoin:miter;stroke-opacity:1"
       d="m 429,309.43108 c 131.28125,148.81859 63.22078,385.19363 5.8189,488.72619"
       id="path3035-0"
       inkscape:connector-curvature="0"
       sodipodi:nodetypes="cc" />
    <path
       style="fill:none;stroke:#000000;stroke-width:1px;stroke-linecap:butt;stroke-linejoin:miter;stroke-opacity:1"
       d="m -1289.0811,847.61983 c -121.7626,-159.19679 -166.1756,-364.75529 -37.5816,-555.37391"
       id="path3013-0"
       inkscape:connector-curvature="0"
       sodipodi:nodetypes="cc" />
    <path
       style="fill:none;stroke:#000000;stroke-width:1px;stroke-linecap:butt;stroke-linejoin:miter;stroke-opacity:1"
       d="m -1640.2608,189.05728 c 197.7929,-135.774282 367.3284,-135.880072 585.9796,0"
       id="path3000-6"
       inkscape:connector-curvature="0"
       sodipodi:nodetypes="cc" />
  </defs>
  <sodipodi:namedview
     id="base"
     pagecolor="#ffffff"
     bordercolor="#666666"
     borderopacity="1.0"
     inkscape:pageopacity="0.0"
     inkscape:pageshadow="2"
     inkscape:zoom="1.4142136"
     inkscape:cx="378.06038"
     inkscape:cy="839.78564"
     inkscape:document-units="px"
     inkscape:current-layer="layer1"
     showgrid="false"
     inkscape:window-width="1298"
     inkscape:window-height="779"
     inkscape:window-x="21"
     inkscape:window-y="4"
     inkscape:window-maximized="0" />
  <metadata
     id="metadata7">
    <rdf:RDF>
      <cc:Work
         rdf:about="">
        <dc:format>image/svg+xml</dc:format>
        <dc:type
           rdf:resource="http://purl.org/dc/dcmitype/StillImage" />
        <dc:title></dc:title>
      </cc:Work>
    </rdf:RDF>
  </metadata>
  <g
     inkscape:label="Layer 1"
     inkscape:groupmode="layer"
     id="layer1">
    <text
       xml:space="preserve"
       style="font-size:10.58637428px;font-style:normal;font-weight:normal;line-height:125%;letter-spacing:0px;word-spacing:0px;fill:#000000;fill-opacity:1;stroke:none;font-family:Sans"
       x="350.36728"
       y="177.10597"
       id="text4132"
       sodipodi:linespacing="125%"><tspan
         sodipodi:role="line"
         id="tspan4134"
         x="350.36728"
         y="177.10597"
         style="font-size:21.17274857px;font-style:normal;font-variant:normal;font-weight:normal;font-stretch:normal;font-family:Copperplate;-inkscape-font-specification:Copperplate">?</tspan></text>
    <path
       style="fill:#e1e1e1;fill-opacity:1;stroke:#000000;stroke-width:1.05863738;stroke-miterlimit:4;stroke-opacity:1;stroke-dasharray:none"
       d="m 350.71547,214.70522 c 0,-0.0579 0.70577,-2.17186 1.56838,-4.6977 0.86261,-2.52584 1.60696,-4.77108 1.65412,-4.98942 0.0472,-0.21835 0.17045,-0.46071 0.27397,-0.5386 0.10353,-0.0779 0.38158,-0.60434 0.61789,-1.16992 l 0.42966,-1.02831 -0.61789,0.40024 c -0.33984,0.22013 -0.93509,0.47831 -1.32277,0.57372 -0.80297,0.19763 -1.54294,-0.51878 -2.78201,-2.6934 -0.38669,-0.67865 -1.15971,-1.93229 -1.71783,-2.78586 -0.55813,-0.85357 -1.01477,-1.84875 -1.01477,-2.21151 0,-0.38308 -0.26935,-0.87144 -0.64255,-1.165 -0.35341,-0.27799 -1.31659,-1.46734 -2.1404,-2.64302 l -1.49784,-2.13758 0.6186,-0.65895 c 0.34023,-0.36243 0.49951,-0.63024 0.35395,-0.59514 -0.14557,0.0351 -0.45679,-0.0211 -0.69161,-0.12495 -0.40105,-0.17732 -5.10186,0.50308 -5.59915,0.81043 -0.12597,0.0778 -0.29445,-0.10863 -0.37441,-0.4144 -0.0866,-0.33105 -0.35951,-0.55595 -0.6747,-0.55595 -0.39893,0 -0.49524,-0.13033 -0.39097,-0.52906 0.0761,-0.29098 0.0301,-0.59595 -0.10218,-0.67771 -0.37532,-0.23196 0.24744,-1.17517 0.77592,-1.17517 0.25689,0 0.58022,-0.10979 0.7185,-0.24398 0.13829,-0.13419 1.68059,-0.30791 3.42734,-0.38604 1.74675,-0.0781 3.35456,-0.15466 3.5729,-0.17007 0.21835,-0.0154 0.75428,0.0464 1.19097,0.13745 0.43669,0.091 1.05401,0.21804 1.37182,0.28233 0.31782,0.0643 0.65336,0.3548 0.74565,0.64559 0.0923,0.29079 0.33842,0.5287 0.54696,0.5287 0.20853,0 0.37915,0.12613 0.37915,0.28028 0,0.15415 0.1375,0.1953 0.30556,0.0914 0.17952,-0.11096 0.23407,-0.0732 0.13225,0.0916 -0.0953,0.15422 0.0918,0.77696 0.4157,1.38387 0.32395,0.6069 0.61304,1.00529 0.64243,0.88529 0.0294,-0.12 0.10367,-1.45714 0.16508,-2.97143 0.17393,-2.73364 1.76761,-5.04522 2.27735,-5.0542 1.07892,0 5.85502,-0.77103 6.87337,-1.52877 1.02974,-0.76621 -1.01791,-1.98554 -0.22651,-4.95538 0.94023,-3.52836 3.52269,-7.54786 5.43123,-8.45352 0.72944,-0.34615 1.44932,-0.44249 2.75506,-0.36871 1.58041,0.0893 1.89621,0.20527 2.9821,1.09508 0.66799,0.54736 1.33445,1.31892 1.48103,1.71458 0.65708,1.77365 1.10303,4.98518 1.17849,8.48698 l -1.45935,3.35736 2.26941,0.97082 c 1.63424,0.69911 2.40776,3.81221 2.03277,5.78954 -0.14166,0.74697 -0.17196,1.49448 -0.0673,1.66113 0.10462,0.16665 0.22881,0.60075 0.27598,0.96465 0.13556,1.04581 0.59501,2.6466 0.75961,2.6466 0.0825,0 0.1046,-0.47537 0.0492,-1.05638 -0.0554,-0.58101 -0.0381,-1.08717 0.0384,-1.1248 0.28564,-0.14051 1.59473,-2.02884 1.59473,-2.30037 0,-0.15528 0.13895,-0.28232 0.30877,-0.28232 0.16982,0 0.242,-0.0668 0.1604,-0.14837 -0.14292,-0.14292 0.52435,-0.90041 1.48196,-1.68233 0.25264,-0.20629 1.414,-0.57655 2.58079,-0.8228 1.8398,-0.38828 2.17171,-0.39746 2.49999,-0.0692 0.20821,0.2082 0.37855,0.48913 0.37855,0.6243 0,0.13516 0.44661,0.24642 0.99247,0.24723 0.54586,7.9e-4 1.40932,0.10902 1.91879,0.24046 0.50946,0.13144 1.36142,0.31266 1.89322,0.40271 1.86139,0.31519 1.44407,1.41023 -0.95783,2.51337 -1.32146,0.60691 -1.99922,0.62543 -4.57446,0.12497 -0.73172,-0.1422 -0.86014,-0.0907 -0.86014,0.34508 0,0.28173 -0.59549,1.37664 -1.3233,2.43315 -0.72781,1.0565 -1.3233,2.20209 -1.3233,2.54576 0,0.34368 -0.12721,0.70348 -0.2827,0.79958 -0.15549,0.0961 -0.21932,0.33989 -0.14185,0.54176 0.0775,0.20188 0.0191,0.3387 -0.12977,0.30406 -0.14883,-0.0346 -0.42517,0.37464 -0.61407,0.90952 -0.40106,1.13558 -1.50203,2.58284 -3.05604,4.01724 -0.89726,0.8282 -1.25621,0.99765 -1.91008,0.90168 -0.7881,-0.11567 -0.80242,-0.098 -0.67487,0.83276 0.10492,0.7656 1.67649,5.14717 2.8092,7.83207 0.12282,0.29113 0.2529,0.64842 0.28907,0.79398 0.0362,0.14556 0.29049,0.83478 0.56514,1.53159 0.27466,0.69681 0.49938,1.38162 0.49938,1.52179 0,0.16029 -5.40159,0.25486 -14.55627,0.25486 -8.00594,0 -14.55626,-0.0474 -14.55626,-0.10527 z"
       id="path2996"
       inkscape:connector-curvature="0"
       inkscape:export-filename="/Users/smithd98/apps/sowhatsbitcoin.com/images/soWhatsBitcoin.png"
       inkscape:export-xdpi="90"
       inkscape:export-ydpi="90"
       sodipodi:nodetypes="ssccscssssssscsscsssssssscsssssssscccssssssscsssssscsscsssscssssssssssssssscssss" />
    <g
       id="g4223"
       transform="matrix(0.41353024,0,0,0.41353024,215.86812,107.35359)">
      <path
         inkscape:connector-curvature="0"
         id="path4326"
         d="m 387.34898,214.7575 c 0,15.27452 -12.38245,27.65697 -27.65696,27.65697 -15.27452,0 -27.65697,-12.38245 -27.65697,-27.65697 0,-15.27451 12.38245,-27.65696 27.65697,-27.65696 15.27451,0 27.65696,12.38245 27.65696,27.65696 z"
         style="fill:#f7931a;fill-opacity:1;stroke:#000000;stroke-width:0.27177358;stroke-linecap:butt;stroke-linejoin:bevel;stroke-miterlimit:4;stroke-opacity:1;stroke-dasharray:0.54354713, 0.27177356;stroke-dashoffset:0" />
      <path
         sodipodi:nodetypes="cccccccccccccccccccccccccccccccccczccc"
         inkscape:connector-curvature="0"
         d="m 359.62826,196.97108 c -0.42986,1.60423 -0.85972,3.20848 -1.28958,4.81273 -2.26051,-0.60571 -4.52104,-1.21141 -6.78157,-1.81713 -0.31263,1.16673 -0.62526,2.33346 -0.93789,3.50019 1.09382,0.29308 2.18762,0.58616 3.28142,0.87924 -1.45368,5.42527 -2.90738,10.85055 -4.36109,16.27582 -1.0938,-0.29308 -2.1876,-0.58617 -3.2814,-0.87926 -0.31654,1.18131 -0.63306,2.36262 -0.9496,3.54394 2.26054,0.6057 4.52107,1.2114 6.78159,1.81712 -0.43767,1.6334 -0.87535,3.26682 -1.31302,4.90025 1.09382,0.29307 2.18761,0.58616 3.28142,0.87924 0.43767,-1.63342 0.87534,-3.26683 1.31301,-4.90025 1.05006,0.28136 2.1001,0.56272 3.15016,0.84408 -0.43768,1.63343 -0.87534,3.26683 -1.31302,4.90026 1.10839,0.29698 2.21679,0.59398 3.32517,0.89097 0.40626,-1.64184 0.81243,-3.28369 1.21867,-4.92552 2.99158,0.47287 6.62651,0.0849 8.50082,-2.60424 2.21177,-3.13741 0.57096,-7.96865 -2.96725,-9.31872 2.14669,0.35344 3.85823,-1.59774 4.64238,-3.38033 1.11325,-2.30631 0.61514,-5.40692 -1.60257,-6.87768 -0.69632,-0.71856 -2.57153,-0.5818 -2.07701,-1.68646 0.37869,-1.41332 0.7574,-2.82663 1.1361,-4.23995 -1.10839,-0.29699 -2.21677,-0.59398 -3.32517,-0.89097 -0.42985,1.60423 -0.85971,3.20849 -1.28956,4.81273 -1.05006,-0.28135 -2.10011,-0.56272 -3.15017,-0.84408 0.42986,-1.60424 0.85971,-3.20849 1.28956,-4.81274 -1.09379,-0.29309 -2.1876,-0.58617 -3.2814,-0.87924 z m 2.66337,9.51349 c 1.47152,0.38097 3.3923,1.1762 3.3835,2.97048 -0.0447,1.45434 -0.91202,3.17231 -2.57809,3.12612 -1.39365,0.0484 -2.78667,-0.22054 -3.92131,-0.79557 0.5034,-1.87868 1.00677,-3.75736 1.51017,-5.63604 0.61265,0.10892 1.00398,0.17598 1.60573,0.33501 z m 1.54162,12.34925 c 0.28702,1.77475 -0.22554,2.88568 -1.75532,3.78997 -1.52976,0.90426 -3.85191,0.3621 -5.77218,-0.12732 0.65529,-2.44556 1.31058,-4.89112 1.96587,-7.33669 2.04586,0.53871 5.18673,1.89506 5.56163,3.67404 z"
         style="fill:#ffffff;fill-opacity:1;stroke:#000000;stroke-width:0.0452956px;stroke-linecap:butt;stroke-linejoin:miter;stroke-opacity:1"
         id="path4226" />
      <path
         inkscape:connector-curvature="0"
         id="path4324"
         d="m 378.8915,219.90199 c -2.84122,10.60357 -13.74039,16.89623 -24.34397,14.05499 -10.60358,-2.84121 -16.89622,-13.74038 -14.05501,-24.34397 2.84124,-10.60357 13.7404,-16.89621 24.34397,-14.05499 10.60359,2.84122 16.89622,13.74038 14.05501,24.34397 z"
         style="fill:none;stroke:#000000;stroke-width:0.27177358;stroke-linecap:butt;stroke-linejoin:bevel;stroke-miterlimit:4;stroke-opacity:1;stroke-dashoffset:0" />
      <path
         inkscape:connector-curvature="0"
         id="path4326-8"
         d="m 386.81608,214.7575 c 0,14.98022 -12.14385,27.12407 -27.12406,27.12407 -14.98022,0 -27.12407,-12.14385 -27.12407,-27.12407 0,-14.98021 12.14385,-27.12406 27.12407,-27.12406 14.98021,0 27.12406,12.14385 27.12406,27.12406 z"
         style="opacity:0.45132745;fill:none;stroke:#000000;stroke-width:0.54354715;stroke-linecap:butt;stroke-linejoin:bevel;stroke-miterlimit:4;stroke-opacity:1;stroke-dashoffset:0" />
    </g>
    <text
       sodipodi:linespacing="125%"
       id="text4205"
       y="261.99323"
       x="282.26498"
       style="font-size:10.58637428px;font-style:normal;font-weight:normal;line-height:125%;letter-spacing:0px;word-spacing:0px;fill:#000000;fill-opacity:1;stroke:none;font-family:Sans"
       xml:space="preserve"
       transform="matrix(0.96592583,-0.25881905,0.25881905,0.96592583,0,0)"><tspan
         style="font-size:21.17274857px;font-style:normal;font-variant:normal;font-weight:normal;font-stretch:normal;font-family:Copperplate;-inkscape-font-specification:Copperplate"
         y="261.99323"
         x="282.26498"
         id="tspan4207"
         sodipodi:role="line">?</tspan></text>
    <text
       sodipodi:linespacing="125%"
       id="text4209"
       y="77.242439"
       x="409.74289"
       style="font-size:10.58637428px;font-style:normal;font-weight:normal;line-height:125%;letter-spacing:0px;word-spacing:0px;fill:#000000;fill-opacity:1;stroke:none;font-family:Sans"
       xml:space="preserve"
       transform="matrix(0.96592583,0.25881905,-0.25881905,0.96592583,0,0)"><tspan
         style="font-size:21.17274857px;font-style:normal;font-variant:normal;font-weight:normal;font-stretch:normal;font-family:Copperplate;-inkscape-font-specification:Copperplate"
         y="77.242439"
         x="409.74289"
         id="tspan4211"
         sodipodi:role="line">?</tspan></text>
  </g>
</svg>
