<svg xmlns="http://www.w3.org/2000/svg" width="744.094" height="1052.362"><defs><path d="M-1392.293 588.91c20.392-52.843 59.314-13.039 80 7.647 56.471 44.902 81.177 12.157 88.824-17.059M171.765 446.48c26.078 62.157 8.627 147.843-7.059 180.588M-1232.712 1107.613c235.148 210.107 618.089 100.382 733.445-37.393M429 309.431c131.281 148.819 63.221 385.194 5.819 488.726M-1289.081 847.62c-121.763-159.197-166.176-364.755-37.582-555.374M-1640.261 189.057c197.793-135.774 367.328-135.88 585.98 0" stroke="#000" fill="none"/></defs><text style="line-height:125%" x="350.367" y="177.106" font-size="10.586" letter-spacing="0" word-spacing="0" font-family="Sans"><tspan x="350.367" y="177.106" style="-inkscape-font-specification:Copperplate" font-size="21.173" font-family="Copperplate">?</tspan></text><path d="M350.715 214.705c0-.058.706-2.172 1.568-4.698.863-2.526 1.607-4.771 1.654-4.989.047-.218.17-.461.274-.539.104-.078.382-.604.618-1.17l.43-1.028-.618.4c-.34.22-.935.478-1.323.574-.803.198-1.543-.519-2.782-2.693-.387-.679-1.16-1.932-1.718-2.786-.558-.854-1.015-1.849-1.015-2.212 0-.383-.269-.871-.643-1.165-.353-.278-1.317-1.467-2.14-2.643l-1.498-2.138.619-.659c.34-.362.5-.63.354-.595-.146.035-.457-.021-.692-.125-.401-.177-5.102.503-5.599.81-.126.078-.294-.109-.374-.414-.087-.331-.36-.556-.675-.556-.399 0-.495-.13-.391-.529.076-.291.03-.596-.102-.678-.375-.232.247-1.175.776-1.175.257 0 .58-.11.719-.244.138-.134 1.681-.308 3.427-.386 1.747-.078 3.355-.155 3.573-.17.218-.015.754.046 1.191.137l1.372.282c.318.064.653.355.746.646.092.291.338.529.547.529.209 0 .379.126.379.28 0 .154.138.195.306.091.18-.111.234-.073.132.092-.095.154.092.777.416 1.384.324.607.613 1.005.642.885.029-.12.104-1.457.165-2.971.174-2.734 1.768-5.045 2.277-5.054 1.079 0 5.855-.771 6.873-1.529 1.03-.766-1.018-1.986-.227-4.955.94-3.528 3.523-7.548 5.431-8.454.729-.346 1.449-.442 2.755-.369 1.58.089 1.896.205 2.982 1.095.668.547 1.334 1.319 1.481 1.715.657 1.774 1.103 4.985 1.178 8.487l-1.459 3.357 2.269.971c1.634.699 2.408 3.812 2.033 5.79-.142.747-.172 1.494-.067 1.661.105.167.229.601.276.965.136 1.046.595 2.647.76 2.647.083 0 .105-.475.049-1.056-.055-.581-.038-1.087.038-1.125.286-.141 1.595-2.029 1.595-2.3 0-.155.139-.282.309-.282.17 0 .242-.067.16-.148-.143-.143.524-.9 1.482-1.682.253-.206 1.414-.577 2.581-.823 1.84-.388 2.172-.397 2.5-.069.208.208.379.489.379.624s.447.246.992.247c.546.001 1.409.109 1.919.24.509.131 1.361.313 1.893.403 1.861.315 1.444 1.41-.958 2.513-1.321.607-1.999.625-4.574.125-.732-.142-.86-.091-.86.345 0 .282-.595 1.377-1.323 2.433-.728 1.056-1.323 2.202-1.323 2.546 0 .344-.127.703-.283.8-.155.096-.219.34-.142.542.077.202.019.339-.13.304-.149-.035-.425.375-.614.91-.401 1.136-1.502 2.583-3.056 4.017-.897.828-1.256.998-1.91.902-.788-.116-.802-.098-.675.833.105.766 1.676 5.147 2.809 7.832.123.291.253.648.289.794.036.146.29.835.565 1.532.275.697.499 1.382.499 1.522 0 .16-5.402.255-14.556.255-8.006 0-14.556-.047-14.556-.105z" fill="#e1e1e1" stroke="#000" stroke-width="1.059"/><g stroke="#000"><path d="M376.049 196.162c0 6.316-5.121 11.437-11.437 11.437-6.316 0-11.437-5.121-11.437-11.437 0-6.316 5.121-11.437 11.437-11.437 6.316 0 11.437 5.121 11.437 11.437z" fill="#f7931a"/><path d="M364.585 188.807l-.533 1.99-2.804-.751-.388 1.447 1.357.364-1.803 6.731-1.357-.364-.393 1.466 2.804.751-.543 2.026 1.357.364.543-2.026 1.303.349-.543 2.026 1.375.368.504-2.037c1.237.196 2.74.035 3.515-1.077.915-1.297.236-3.295-1.227-3.854.888.146 1.595-.661 1.92-1.398.46-.954.254-2.236-.663-2.844-.288-.297-1.063-.241-.859-.697l.47-1.753-1.375-.368-.533 1.99-1.303-.349.533-1.99-1.357-.364zm1.101 3.934c.609.158 1.403.486 1.399 1.228-.018.601-.377 1.312-1.066 1.293-.576.02-1.152-.091-1.622-.329l.625-2.331c.253.045.415.073.664.139zm.638 5.107c.119.734-.093 1.193-.726 1.567-.633.374-1.593.15-2.387-.053l.813-3.034c.846.223 2.145.784 2.3 1.519z" fill="#fff"/><path d="M372.551 198.29c-1.175 4.385-5.682 6.987-10.067 5.812-4.385-1.175-6.987-5.682-5.812-10.067 1.175-4.385 5.682-6.987 10.067-5.812 4.385 1.175 6.987 5.682 5.812 10.067z" fill="none"/><path d="M375.828 196.162c0 6.195-5.022 11.217-11.217 11.217s-11.217-5.022-11.217-11.217 5.022-11.217 11.217-11.217 11.217 5.022 11.217 11.217z" opacity=".451" fill="none"/></g><text y="261.993" x="282.265" style="line-height:125%" transform="rotate(-15)" font-size="10.586" letter-spacing="0" word-spacing="0" font-family="Sans"><tspan style="-inkscape-font-specification:Copperplate" y="261.993" x="282.265" font-size="21.173" font-family="Copperplate">?</tspan></text><text y="77.242" x="409.743" style="line-height:125%" transform="rotate(15)" font-size="10.586" letter-spacing="0" word-spacing="0" font-family="Sans"><tspan style="-inkscape-font-specification:Copperplate" y="77.242" x="409.743" font-size="21.173" font-family="Copperplate">?</tspan></text></svg>