<?xml version="1.0" encoding="UTF-8" standalone="no"?>
<!-- Created with Inkscape (http://www.inkscape.org/) -->

<svg
   xmlns:dc="http://purl.org/dc/elements/1.1/"
   xmlns:cc="http://creativecommons.org/ns#"
   xmlns:rdf="http://www.w3.org/1999/02/22-rdf-syntax-ns#"
   xmlns:svg="http://www.w3.org/2000/svg"
   xmlns="http://www.w3.org/2000/svg"
   xmlns:sodipodi="http://sodipodi.sourceforge.net/DTD/sodipodi-0.dtd"
   xmlns:inkscape="http://www.inkscape.org/namespaces/inkscape"
   width="744.09448819"
   height="1052.3622047"
   id="svg2"
   version="1.1"
   inkscape:version="0.48.2 r9819"
   sodipodi:docname="TheCoin copy.svg">
  <defs
     id="defs4">
    <path
       style="fill:none;stroke:#000000;stroke-width:1px;stroke-linecap:butt;stroke-linejoin:miter;stroke-opacity:1"
       d="m -1392.2932,588.90982 c 20.3921,-52.84313 59.3137,-13.03921 79.9999,7.64707 56.4706,44.90196 81.1765,12.15686 88.8236,-17.05883"
       id="path3068-5"
       inkscape:connector-curvature="0"
       sodipodi:nodetypes="ccc" />
    <path
       style="fill:none;stroke:#000000;stroke-width:1px;stroke-linecap:butt;stroke-linejoin:miter;stroke-opacity:1"
       d="m 171.76471,446.47983 c 26.07842,62.15686 8.62745,147.84313 -7.05882,180.58823"
       id="path3059-0"
       inkscape:connector-curvature="0"
       sodipodi:nodetypes="cc" />
    <path
       style="fill:none;stroke:#000000;stroke-width:1px;stroke-linecap:butt;stroke-linejoin:miter;stroke-opacity:1"
       d="m -1232.7121,1107.6133 c 235.14768,210.1073 618.08934,100.3824 733.4448,-37.3933"
       id="path3050-9"
       inkscape:connector-curvature="0"
       sodipodi:nodetypes="cc" />
    <path
       style="fill:none;stroke:#000000;stroke-width:1px;stroke-linecap:butt;stroke-linejoin:miter;stroke-opacity:1"
       d="m 429,309.43108 c 131.28125,148.81859 63.22078,385.19363 5.8189,488.72619"
       id="path3035-0"
       inkscape:connector-curvature="0"
       sodipodi:nodetypes="cc" />
    <path
       style="fill:none;stroke:#000000;stroke-width:1px;stroke-linecap:butt;stroke-linejoin:miter;stroke-opacity:1"
       d="m -1289.0811,847.61983 c -121.7626,-159.19679 -166.1756,-364.75529 -37.5816,-555.37391"
       id="path3013-0"
       inkscape:connector-curvature="0"
       sodipodi:nodetypes="cc" />
    <path
       style="fill:none;stroke:#000000;stroke-width:1px;stroke-linecap:butt;stroke-linejoin:miter;stroke-opacity:1"
       d="m -1640.2608,189.05728 c 197.7929,-135.774282 367.3284,-135.880072 585.9796,0"
       id="path3000-6"
       inkscape:connector-curvature="0"
       sodipodi:nodetypes="cc" />
  </defs>
  <sodipodi:namedview
     id="base"
     pagecolor="#ffffff"
     bordercolor="#666666"
     borderopacity="1.0"
     inkscape:pageopacity="0.0"
     inkscape:pageshadow="2"
     inkscape:zoom="0.22"
     inkscape:cx="-250.29536"
     inkscape:cy="382.91546"
     inkscape:document-units="px"
     inkscape:current-layer="layer1"
     showgrid="false"
     inkscape:window-width="1298"
     inkscape:window-height="779"
     inkscape:window-x="21"
     inkscape:window-y="4"
     inkscape:window-maximized="0" />
  <metadata
     id="metadata7">
    <rdf:RDF>
      <cc:Work
         rdf:about="">
        <dc:format>image/svg+xml</dc:format>
        <dc:type
           rdf:resource="http://purl.org/dc/dcmitype/StillImage" />
        <dc:title></dc:title>
      </cc:Work>
    </rdf:RDF>
  </metadata>
  <g
     inkscape:label="Layer 1"
     inkscape:groupmode="layer"
     id="layer1">
    <text
       xml:space="preserve"
       style="font-size:40px;font-style:normal;font-weight:normal;line-height:125%;letter-spacing:0px;word-spacing:0px;fill:#000000;fill-opacity:1;stroke:none;font-family:Sans"
       x="310.7901"
       y="140.3365"
       id="text4132"
       sodipodi:linespacing="125%"><tspan
         sodipodi:role="line"
         id="tspan4134"
         x="310.7901"
         y="140.3365"
         style="font-size:80px;font-style:normal;font-variant:normal;font-weight:normal;font-stretch:normal;font-family:Copperplate;-inkscape-font-specification:Copperplate">?</tspan></text>
    <path
       style="fill:#e1e1e1;fill-opacity:1;stroke:#000000;stroke-width:4;stroke-miterlimit:4;stroke-opacity:1;stroke-dasharray:none"
       d="m 312.10575,282.4031 c 0,-0.21876 2.66671,-8.20626 5.92602,-17.75 3.25932,-9.54373 6.07182,-18.02724 6.25,-18.85224 0.17819,-0.825 0.64403,-1.74077 1.03519,-2.03505 0.39117,-0.29427 1.44176,-2.28348 2.33465,-4.42047 l 1.62344,-3.88543 -2.33465,1.51229 c -1.28406,0.83176 -3.53317,1.80726 -4.99802,2.16778 -3.03396,0.74671 -5.82991,-1.9602 -10.51164,-10.17685 -1.46108,-2.56425 -4.38191,-7.30105 -6.49075,-10.52622 -2.10883,-3.22518 -3.83424,-6.98541 -3.83424,-8.35608 0,-1.44745 -1.01773,-3.29268 -2.42784,-4.40187 -1.33532,-1.05036 -4.97463,-5.54427 -8.08736,-9.98648 l -5.65952,-8.07674 2.33736,-2.48982 c 1.28555,-1.36941 1.88736,-2.38132 1.33736,-2.24869 -0.55,0.13263 -1.72594,-0.0798 -2.61321,-0.47211 -1.51534,-0.66998 -19.27706,1.90087 -21.15606,3.06216 -0.47594,0.29415 -1.11254,-0.41047 -1.41467,-1.5658 -0.3271,-1.25085 -1.3584,-2.10062 -2.54932,-2.10062 -1.50734,0 -1.87123,-0.49242 -1.47725,-1.999 0.28751,-1.09946 0.11378,-2.25177 -0.38607,-2.56069 -1.41814,-0.87646 0.93494,-4.44031 2.93176,-4.44031 0.97065,0 2.19232,-0.41484 2.71482,-0.92187 0.5225,-0.50703 6.35,-1.16342 12.95,-1.45865 6.6,-0.29523 12.675,-0.58438 13.5,-0.64257 0.825,-0.0582 2.85,0.17551 4.5,0.51933 1.65,0.34381 3.98251,0.82385 5.18335,1.06676 1.20084,0.24291 2.46867,1.3406 2.81739,2.43932 0.34872,1.09873 1.27871,1.99768 2.06665,1.99768 0.78793,0 1.43261,0.47656 1.43261,1.05902 0,0.58246 0.51953,0.73793 1.15451,0.34549 0.67834,-0.41924 0.88444,-0.27656 0.49971,0.34595 -0.36013,0.58271 0.34669,2.9357 1.57071,5.22887 1.22402,2.29316 2.31633,3.79843 2.42736,3.34503 0.11102,-0.4534 0.39172,-5.50571 0.62378,-11.22736 0.65715,-10.3289 6.67881,-19.06309 8.60481,-19.097 4.07664,0 22.12287,-2.91332 25.97064,-5.77637 3.8908,-2.89508 -3.8461,-7.50228 -0.85585,-18.72363 3.55261,-13.3317 13.31027,-28.51917 20.52157,-31.94115 2.75615,-1.30789 5.4762,-1.6719 10.40983,-1.39313 5.97149,0.33742 7.16472,0.77559 11.26772,4.1377 2.52393,2.06817 5.04211,4.98347 5.59596,6.47844 2.48276,6.70163 4.16775,18.8362 4.45285,32.06754 l -5.51404,12.68562 8.57483,3.66818 c 6.17488,2.64152 9.09759,14.40421 7.6807,21.87542 -0.53526,2.82239 -0.64976,5.64681 -0.25446,6.2765 0.3953,0.62968 0.86456,2.26988 1.04279,3.64488 0.51221,3.95153 2.24822,10 2.87016,10 0.31157,0 0.3952,-1.79616 0.18584,-3.99146 -0.20935,-2.19531 -0.14412,-4.10781 0.14497,-4.25 1.07929,-0.53089 6.02561,-7.66584 6.02561,-8.69182 0,-0.5867 0.525,-1.06672 1.16667,-1.06672 0.64166,0 0.91439,-0.25227 0.60606,-0.56061 -0.54002,-0.54001 1.98122,-3.40214 5.5995,-6.35659 0.95459,-0.77946 5.34271,-2.17846 9.75138,-3.10889 6.95155,-1.46709 8.20565,-1.50179 9.44607,-0.26137 0.78668,0.78668 1.43032,1.84817 1.43032,2.35889 0,0.51071 1.6875,0.93108 3.75,0.93415 2.0625,0.003 5.325,0.41192 7.25,0.90857 1.925,0.49664 5.14405,1.18137 7.15345,1.52162 7.03315,1.19091 5.45634,5.32845 -3.61913,9.49661 -4.99304,2.29319 -7.55394,2.36316 -17.28432,0.47221 -2.76475,-0.53729 -3.25,-0.34261 -3.25,1.30385 0,1.06449 -2.25,5.20156 -5,9.1935 -2.75,3.99193 -5,8.3205 -5,9.61904 0,1.29854 -0.48068,2.65806 -1.06817,3.02115 -0.5875,0.3631 -0.82869,1.28426 -0.53599,2.04702 0.2927,0.76277 0.0721,1.27976 -0.49031,1.14885 -0.56237,-0.1309 -1.60648,1.41556 -2.32024,3.43657 -1.51536,4.29072 -5.67533,9.75912 -11.54705,15.17891 -3.39024,3.12931 -4.74653,3.76956 -7.21713,3.40696 -2.97781,-0.43705 -3.0319,-0.37032 -2.54997,3.14652 0.39642,2.89279 6.33453,19.44828 10.61441,29.59304 0.46406,1.1 0.95557,2.45 1.09224,3 0.13666,0.55 1.09757,3.15416 2.13534,5.78702 1.03778,2.63286 1.88687,5.22036 1.88687,5.75 0,0.60563 -20.4096,0.96298 -55,0.96298 -30.25,0 -55,-0.17899 -55,-0.39776 z"
       id="path2996"
       inkscape:connector-curvature="0"
       inkscape:export-filename="/Users/smithd98/apps/sowhatsbitcoin.com/images/soWhatsBitcoin.png"
       inkscape:export-xdpi="90"
       inkscape:export-ydpi="90"
       sodipodi:nodetypes="ssccscssssssscsscsssssssscsssssssscccssssssscsssssscsscsssscssssssssssssssscssss" />
    <g
       id="g4223"
       transform="matrix(1.5625,0,0,1.5625,-197.40713,-123.21879)">
      <path
         inkscape:connector-curvature="0"
         id="path4326"
         d="m 387.34898,214.7575 c 0,15.27452 -12.38245,27.65697 -27.65696,27.65697 -15.27452,0 -27.65697,-12.38245 -27.65697,-27.65697 0,-15.27451 12.38245,-27.65696 27.65697,-27.65696 15.27451,0 27.65696,12.38245 27.65696,27.65696 z"
         style="fill:#f7931a;fill-opacity:1;stroke:#000000;stroke-width:0.27177358;stroke-linecap:butt;stroke-linejoin:bevel;stroke-miterlimit:4;stroke-opacity:1;stroke-dasharray:0.54354713, 0.27177356;stroke-dashoffset:0" />
      <path
         sodipodi:nodetypes="cccccccccccccccccccccccccccccccccczccc"
         inkscape:connector-curvature="0"
         d="m 359.62826,196.97108 c -0.42986,1.60423 -0.85972,3.20848 -1.28958,4.81273 -2.26051,-0.60571 -4.52104,-1.21141 -6.78157,-1.81713 -0.31263,1.16673 -0.62526,2.33346 -0.93789,3.50019 1.09382,0.29308 2.18762,0.58616 3.28142,0.87924 -1.45368,5.42527 -2.90738,10.85055 -4.36109,16.27582 -1.0938,-0.29308 -2.1876,-0.58617 -3.2814,-0.87926 -0.31654,1.18131 -0.63306,2.36262 -0.9496,3.54394 2.26054,0.6057 4.52107,1.2114 6.78159,1.81712 -0.43767,1.6334 -0.87535,3.26682 -1.31302,4.90025 1.09382,0.29307 2.18761,0.58616 3.28142,0.87924 0.43767,-1.63342 0.87534,-3.26683 1.31301,-4.90025 1.05006,0.28136 2.1001,0.56272 3.15016,0.84408 -0.43768,1.63343 -0.87534,3.26683 -1.31302,4.90026 1.10839,0.29698 2.21679,0.59398 3.32517,0.89097 0.40626,-1.64184 0.81243,-3.28369 1.21867,-4.92552 2.99158,0.47287 6.62651,0.0849 8.50082,-2.60424 2.21177,-3.13741 0.57096,-7.96865 -2.96725,-9.31872 2.14669,0.35344 3.85823,-1.59774 4.64238,-3.38033 1.11325,-2.30631 0.61514,-5.40692 -1.60257,-6.87768 -0.69632,-0.71856 -2.57153,-0.5818 -2.07701,-1.68646 0.37869,-1.41332 0.7574,-2.82663 1.1361,-4.23995 -1.10839,-0.29699 -2.21677,-0.59398 -3.32517,-0.89097 -0.42985,1.60423 -0.85971,3.20849 -1.28956,4.81273 -1.05006,-0.28135 -2.10011,-0.56272 -3.15017,-0.84408 0.42986,-1.60424 0.85971,-3.20849 1.28956,-4.81274 -1.09379,-0.29309 -2.1876,-0.58617 -3.2814,-0.87924 z m 2.66337,9.51349 c 1.47152,0.38097 3.3923,1.1762 3.3835,2.97048 -0.0447,1.45434 -0.91202,3.17231 -2.57809,3.12612 -1.39365,0.0484 -2.78667,-0.22054 -3.92131,-0.79557 0.5034,-1.87868 1.00677,-3.75736 1.51017,-5.63604 0.61265,0.10892 1.00398,0.17598 1.60573,0.33501 z m 1.54162,12.34925 c 0.28702,1.77475 -0.22554,2.88568 -1.75532,3.78997 -1.52976,0.90426 -3.85191,0.3621 -5.77218,-0.12732 0.65529,-2.44556 1.31058,-4.89112 1.96587,-7.33669 2.04586,0.53871 5.18673,1.89506 5.56163,3.67404 z"
         style="fill:#ffffff;fill-opacity:1;stroke:#000000;stroke-width:0.0452956px;stroke-linecap:butt;stroke-linejoin:miter;stroke-opacity:1"
         id="path4226" />
      <path
         inkscape:connector-curvature="0"
         id="path4324"
         d="m 378.8915,219.90199 c -2.84122,10.60357 -13.74039,16.89623 -24.34397,14.05499 -10.60358,-2.84121 -16.89622,-13.74038 -14.05501,-24.34397 2.84124,-10.60357 13.7404,-16.89621 24.34397,-14.05499 10.60359,2.84122 16.89622,13.74038 14.05501,24.34397 z"
         style="fill:none;stroke:#000000;stroke-width:0.27177358;stroke-linecap:butt;stroke-linejoin:bevel;stroke-miterlimit:4;stroke-opacity:1;stroke-dashoffset:0" />
      <path
         inkscape:connector-curvature="0"
         id="path4326-8"
         d="m 386.81608,214.7575 c 0,14.98022 -12.14385,27.12407 -27.12406,27.12407 -14.98022,0 -27.12407,-12.14385 -27.12407,-27.12407 0,-14.98021 12.14385,-27.12406 27.12407,-27.12406 14.98021,0 27.12406,12.14385 27.12406,27.12406 z"
         style="opacity:0.45132745;fill:none;stroke:#000000;stroke-width:0.54354715;stroke-linecap:butt;stroke-linejoin:bevel;stroke-miterlimit:4;stroke-opacity:1;stroke-dashoffset:0" />
    </g>
    <text
       sodipodi:linespacing="125%"
       id="text4205"
       y="216.90091"
       x="224.86444"
       style="font-size:40px;font-style:normal;font-weight:normal;line-height:125%;letter-spacing:0px;word-spacing:0px;fill:#000000;fill-opacity:1;stroke:none;font-family:Sans"
       xml:space="preserve"
       transform="matrix(0.96592583,-0.25881905,0.25881905,0.96592583,0,0)"><tspan
         style="font-size:80px;font-style:normal;font-variant:normal;font-weight:normal;font-stretch:normal;font-family:Copperplate;-inkscape-font-specification:Copperplate"
         y="216.90091"
         x="224.86444"
         id="tspan4207"
         sodipodi:role="line">?</tspan></text>
    <text
       sodipodi:linespacing="125%"
       id="text4209"
       y="43.225243"
       x="432.78043"
       style="font-size:40px;font-style:normal;font-weight:normal;line-height:125%;letter-spacing:0px;word-spacing:0px;fill:#000000;fill-opacity:1;stroke:none;font-family:Sans"
       xml:space="preserve"
       transform="matrix(0.96592583,0.25881905,-0.25881905,0.96592583,0,0)"><tspan
         style="font-size:80px;font-style:normal;font-variant:normal;font-weight:normal;font-stretch:normal;font-family:Copperplate;-inkscape-font-specification:Copperplate"
         y="43.225243"
         x="432.78043"
         id="tspan4211"
         sodipodi:role="line">?</tspan></text>
  </g>
</svg>
