<?xml version="1.0" encoding="UTF-8" standalone="no"?>
<!-- Created with Inkscape (http://www.inkscape.org/) -->

<svg
   xmlns:dc="http://purl.org/dc/elements/1.1/"
   xmlns:cc="http://creativecommons.org/ns#"
   xmlns:rdf="http://www.w3.org/1999/02/22-rdf-syntax-ns#"
   xmlns:svg="http://www.w3.org/2000/svg"
   xmlns="http://www.w3.org/2000/svg"
   xmlns:xlink="http://www.w3.org/1999/xlink"
   xmlns:sodipodi="http://sodipodi.sourceforge.net/DTD/sodipodi-0.dtd"
   xmlns:inkscape="http://www.inkscape.org/namespaces/inkscape"
   version="1.2"
   width="992.16974"
   height="341.48856"
   id="svg2"
   inkscape:version="0.48.2 r9819"
   sodipodi:docname="CryptoCollege full06.svg">
  <sodipodi:namedview
     pagecolor="#ffffff"
     bordercolor="#666666"
     borderopacity="1"
     objecttolerance="10"
     gridtolerance="10"
     guidetolerance="10"
     inkscape:pageopacity="0"
     inkscape:pageshadow="2"
     inkscape:window-width="899"
     inkscape:window-height="624"
     id="namedview123"
     showgrid="false"
     fit-margin-top="0"
     fit-margin-left="0"
     fit-margin-right="0"
     fit-margin-bottom="0"
     inkscape:zoom="0.63432805"
     inkscape:cx="444.30587"
     inkscape:cy="86.927422"
     inkscape:window-x="0"
     inkscape:window-y="0"
     inkscape:window-maximized="0"
     inkscape:current-layer="svg2" />
  <defs
     id="defs4">
    <marker
       refX="0"
       refY="0"
       orient="auto"
       id="Scissors"
       style="overflow:visible">
      <path
         d="M 9.0898857,-3.6061018 C 8.1198849,-4.7769976 6.3697607,-4.7358294 5.0623558,-4.2327734 l -8.2124046,3.0779029 c -2.3882933,-1.3067135 -4.7482873,-0.9325372 -4.7482873,-1.5687873 0,-0.4973164 0.4566662,-0.3883222 0.3883068,-1.6831941 -0.065635,-1.2432767 -1.3635771,-2.1630796 -2.5903987,-2.0816435 -1.227271,-0.00735 -2.499439,0.9331613 -2.510341,2.2300611 -0.09143,1.3063864 1.007209,2.5196896 2.306764,2.6052316 1.5223406,0.2266616 4.218258,-0.6955566 5.482945,1.57086006 -0.9422847,1.73825774 -2.6140244,1.74307674 -4.1255107,1.65607034 -1.2548743,-0.072235 -2.7620933,0.2873979 -3.3606483,1.5208605 -0.578367,1.1820862 -0.0112,2.8646022 1.316749,3.226412 1.3401912,0.4918277 3.1806689,-0.129711 3.4993722,-1.6707242 0.2456585,-1.187823 -0.5953659,-1.7459574 -0.2725074,-2.1771537 0.2436135,-0.32536 1.7907806,-0.1368452 4.5471053,-1.3748244 L 5.6763468,4.2330688 C 6.8000164,4.5467672 8.1730685,4.5362646 9.1684433,3.4313614 L -0.05164093,-0.05372222 9.0898857,-3.6061018 z m -18.3078016,-1.900504 c 1.294559,0.7227998 1.1888392,2.6835702 -0.1564272,3.0632889 -1.2165179,0.423661 -2.7710269,-0.7589694 -2.3831779,-2.0774648 0.227148,-1.0818519 1.653387,-1.480632 2.5396051,-0.9858241 z m 0.056264,8.0173649 c 1.3508301,0.4988648 1.1214429,2.7844356 -0.2522207,3.091609 -0.9110594,0.3163391 -2.2135494,-0.1387976 -2.3056964,-1.2121394 -0.177609,-1.305055 1.356085,-2.4841482 2.5579171,-1.8794696 z"
         id="schere"
         style="marker-start:none"
         inkscape:connector-curvature="0" />
    </marker>
    <marker
       refX="0"
       refY="0"
       orient="auto"
       id="StopS"
       style="overflow:visible">
      <path
         d="M 0,5.65 0,-5.65"
         transform="scale(0.2,0.2)"
         id="path4473"
         style="fill:none;stroke:#000000;stroke-width:1pt"
         inkscape:connector-curvature="0" />
    </marker>
    <marker
       refX="0"
       refY="0"
       orient="auto"
       id="EmptyDiamondSend"
       style="overflow:visible">
      <path
         d="M 0,-7.0710768 -7.0710894,0 0,7.0710589 7.0710462,0 0,-7.0710768 z"
         transform="matrix(0.2,0,0,0.2,-1.2,0)"
         id="path4428"
         style="fill:#ffffff;fill-rule:evenodd;stroke:#000000;stroke-width:1pt;marker-start:none"
         inkscape:connector-curvature="0" />
    </marker>
    <marker
       refX="0"
       refY="0"
       orient="auto"
       id="Arrow1Lstart"
       style="overflow:visible">
      <path
         d="M 0,0 5,-5 -12.5,0 5,5 0,0 z"
         transform="matrix(0.8,0,0,0.8,10,0)"
         id="path4297"
         style="fill-rule:evenodd;stroke:#000000;stroke-width:1pt;marker-start:none"
         inkscape:connector-curvature="0" />
    </marker>
    <linearGradient
       id="linearGradient4248">
      <stop
         id="stop4250"
         style="stop-color:#282828;stop-opacity:1"
         offset="0" />
      <stop
         id="stop4252"
         style="stop-color:#464646;stop-opacity:1"
         offset="1" />
    </linearGradient>
    <linearGradient
       id="linearGradient4240">
      <stop
         id="stop4242"
         style="stop-color:#282828;stop-opacity:1"
         offset="0" />
      <stop
         id="stop4244"
         style="stop-color:#282828;stop-opacity:0"
         offset="1" />
    </linearGradient>
    <linearGradient
       id="linearGradient4226">
      <stop
         id="stop4228"
         style="stop-color:#282828;stop-opacity:0.31623933"
         offset="0" />
      <stop
         id="stop4230"
         style="stop-color:#ffffff;stop-opacity:0"
         offset="1" />
    </linearGradient>
    <linearGradient
       id="linearGradient3967">
      <stop
         id="stop3969"
         style="stop-color:#ff872a;stop-opacity:0.25641027"
         offset="0" />
      <stop
         id="stop3971"
         style="stop-color:#ffffff;stop-opacity:0"
         offset="1" />
    </linearGradient>
    <linearGradient
       id="linearGradient3945">
      <stop
         id="stop3947"
         style="stop-color:#000000;stop-opacity:1"
         offset="0" />
      <stop
         id="stop3949"
         style="stop-color:#ffffff;stop-opacity:0"
         offset="1" />
    </linearGradient>
    <linearGradient
       id="linearGradient3903">
      <stop
         id="stop3905"
         style="stop-color:#ff872a;stop-opacity:1"
         offset="0" />
      <stop
         id="stop3907"
         style="stop-color:#be5a0d;stop-opacity:1"
         offset="1" />
    </linearGradient>
    <linearGradient
       x1="724.24139"
       y1="683.45709"
       x2="719.50873"
       y2="671.0827"
       id="linearGradient4785"
       xlink:href="#linearGradient3903"
       gradientUnits="userSpaceOnUse" />
    <linearGradient
       x1="724.24139"
       y1="683.45709"
       x2="719.50873"
       y2="671.0827"
       id="linearGradient4893"
       xlink:href="#linearGradient3903"
       gradientUnits="userSpaceOnUse" />
    <linearGradient
       x1="724.24139"
       y1="683.45709"
       x2="719.50873"
       y2="671.0827"
       id="linearGradient5321"
       xlink:href="#linearGradient3903"
       gradientUnits="userSpaceOnUse"
       gradientTransform="matrix(0.44474236,0,0,0.44474236,-139.3131,181.3181)" />
    <linearGradient
       x1="724.24139"
       y1="683.45709"
       x2="719.50873"
       y2="671.0827"
       id="linearGradient5344"
       xlink:href="#linearGradient3903"
       gradientUnits="userSpaceOnUse"
       gradientTransform="matrix(0.44474236,0,0,0.44474236,-139.3131,181.3181)" />
    <linearGradient
       x1="724.24139"
       y1="683.45709"
       x2="719.50873"
       y2="671.0827"
       id="linearGradient5691"
       xlink:href="#linearGradient3903"
       gradientUnits="userSpaceOnUse"
       gradientTransform="matrix(0.60414972,0,0,0.60414972,-246.22441,118.40063)" />
    <linearGradient
       x1="724.24139"
       y1="683.45709"
       x2="719.50873"
       y2="671.0827"
       id="linearGradient4663"
       xlink:href="#linearGradient3903"
       gradientUnits="userSpaceOnUse"
       gradientTransform="matrix(0.60414972,0,0,0.60414972,-223.63862,303.91534)" />
    <linearGradient
       x1="724.24139"
       y1="683.45709"
       x2="719.50873"
       y2="671.0827"
       id="linearGradient4686"
       xlink:href="#linearGradient3903"
       gradientUnits="userSpaceOnUse"
       gradientTransform="matrix(0.60414972,0,0,0.60414972,-223.63862,43.91534)" />
    <linearGradient
       x1="724.24139"
       y1="683.45709"
       x2="719.50873"
       y2="671.0827"
       id="linearGradient4739"
       xlink:href="#linearGradient3903"
       gradientUnits="userSpaceOnUse"
       gradientTransform="matrix(0.60414972,0,0,0.60414972,-223.63862,43.91534)" />
    <linearGradient
       x1="724.24139"
       y1="683.45709"
       x2="719.50873"
       y2="671.0827"
       id="linearGradient4252"
       xlink:href="#linearGradient3903"
       gradientUnits="userSpaceOnUse"
       gradientTransform="matrix(0.87285053,0,0,0.87285053,-396.77872,53.04248)" />
    <linearGradient
       x1="724.24139"
       y1="683.45709"
       x2="719.50873"
       y2="671.0827"
       id="linearGradient4307"
       xlink:href="#linearGradient3903"
       gradientUnits="userSpaceOnUse"
       gradientTransform="matrix(0.87285053,0,0,0.87285053,-396.77872,53.04248)" />
    <linearGradient
       inkscape:collect="always"
       xlink:href="#linearGradient3903"
       id="linearGradient3285"
       gradientUnits="userSpaceOnUse"
       gradientTransform="matrix(1.2375964,0,0,1.2375964,-581.44133,-432.72439)"
       x1="724.24139"
       y1="683.45709"
       x2="719.50873"
       y2="671.0827" />
    <linearGradient
       inkscape:collect="always"
       xlink:href="#linearGradient3903"
       id="linearGradient3592"
       gradientUnits="userSpaceOnUse"
       gradientTransform="matrix(1.2375964,0,0,1.2375964,-611.36811,-629.06005)"
       x1="724.24139"
       y1="683.45709"
       x2="719.50873"
       y2="671.0827" />
  </defs>
  <metadata
     id="metadata7">
    <rdf:RDF>
      <cc:Work
         rdf:about="">
        <dc:format>image/svg+xml</dc:format>
        <dc:type
           rdf:resource="http://purl.org/dc/dcmitype/StillImage" />
        <dc:title></dc:title>
      </cc:Work>
    </rdf:RDF>
  </metadata>
  <flowRoot
     style="font-size:40px;font-style:normal;font-variant:normal;font-weight:normal;font-stretch:normal;line-height:125%;letter-spacing:0px;word-spacing:0px;fill:#000000;fill-opacity:1;stroke:none;font-family:roboto;-inkscape-font-specification:roboto"
     xml:space="preserve"
     id="flowRoot4534"
     transform="translate(-29.926785,-196.33566)"><flowRegion
       id="flowRegion4536"><rect
         id="rect4538"
         y="152.84448"
         x="455"
         height="52.75"
         width="100.25" /></flowRegion><flowPara
       style="font-size:64px;font-style:normal;font-variant:normal;font-weight:300;font-stretch:normal;text-align:start;line-height:125%;writing-mode:lr-tb;text-anchor:start;font-family:Roboto;-inkscape-font-specification:Roboto Light"
       id="flowPara4540">BBB</flowPara></flowRoot>  <path
     inkscape:connector-curvature="0"
     style="fill:none;stroke:#282828;stroke-width:2.70142817;stroke-miterlimit:4;stroke-opacity:1;stroke-dasharray:none"
     id="path5425"
     d="m -1192.1238,-513.35734 c 0.2998,21.58852 -13.5761,42.40857 -33.5308,50.5863 -19.8085,8.63565 -44.4539,4.01035 -59.722,-11.30279 -15.4981,-14.73974 -20.792,-38.89378 -12.9824,-58.78902 7.5047,-20.43318 28.127,-35.12279 49.9176,-35.37722 21.603,-0.85703 42.7967,12.5111 51.4679,32.28911 3.2057,7.07115 4.8586,14.83143 4.8497,22.59362 z" />
  <path
     inkscape:connector-curvature="0"
     style="fill:#ffffff;fill-opacity:1;stroke:none"
     id="path5427"
     d="m -1175.3281,-525.61722 a 18.730771,31.338024 0 1 1 -0.2699,-5.29995" />
  <path
     inkscape:connector-curvature="0"
     style="fill:#282828;fill-opacity:1;stroke:#ffffff;stroke-width:2.71685266;stroke-miterlimit:4;stroke-opacity:1;stroke-dasharray:none"
     id="path5429"
     d="m -1299.0716,-602.12969 0,53.95493 c -0.045,0.11003 -0.042,0.1857 -0.042,0.29723 0,3.56709 23.1096,6.4949 51.6627,6.4949 28.553,0 51.7051,-2.92781 51.7051,-6.4949 l 0,-0.0421 0,-54.20976 -103.3253,0 z" />
  <path
     inkscape:connector-curvature="0"
     style="fill:none;stroke:#282828;stroke-width:2.30932474;stroke-linecap:butt;stroke-linejoin:miter;stroke-miterlimit:4;stroke-opacity:1;stroke-dasharray:none"
     id="path5431"
     d="m -1195.8835,-584.06886 0,63.87673" />
  <path
     inkscape:connector-curvature="0"
     style="fill:none;stroke:#ffffff;stroke-width:3.16977501px;stroke-linecap:butt;stroke-linejoin:miter;stroke-opacity:1"
     id="path5433"
     d="m -1152.3201,-547.99477 -73.2948,-67.76727" />
  <path
     inkscape:connector-curvature="0"
     style="fill:#ffffff;fill-opacity:1;stroke:none"
     id="path5435"
     d="m -1162.9218,-571.25035 a 5.0931346,5.1169667 45 1 1 -7.2028,-7.20276 5.0931346,5.1169667 45 1 1 7.2028,7.20276 z" />
  <path
     inkscape:connector-curvature="0"
     style="fill:#ffffff;fill-opacity:0;stroke:none"
     id="path5437"
     d="m -1220.9946,-550.19474 a 5.0931346,5.1169667 45 1 1 -7.2028,-7.20276 5.0931346,5.1169667 45 1 1 7.2028,7.20276 z" />
  <path
     inkscape:connector-curvature="0"
     style="fill:#ffffff;fill-opacity:0;stroke:none"
     id="path5439"
     d="m -1279.7465,-582.11776 a 5.0931346,5.1169667 45 1 1 -7.2028,-7.20276 5.0931346,5.1169667 45 1 1 7.2028,7.20276 z" />
  <rect
     style="fill:#282828;fill-opacity:1;stroke:#ffffff;stroke-width:2.8433001;stroke-miterlimit:4;stroke-opacity:1;stroke-dasharray:none"
     id="rect5441"
     transform="matrix(0.95177988,0.30678177,-0.95177988,0.30678177,0,0)"
     y="-384.63116"
     x="-1695.2627"
     height="114.33614"
     width="114.33614" />
  <path
     inkscape:connector-curvature="0"
     style="fill:#ffffff;fill-opacity:1;stroke:none"
     id="path5443"
     d="m -1242.9709,-603.34005 a 4.4606,4.4814726 0 1 1 -8.9212,0 4.4606,4.4814726 0 1 1 8.9212,0 z" />
  <path
     inkscape:connector-curvature="0"
     style="fill:none;stroke:#ffffff;stroke-width:2.26054883;stroke-linecap:butt;stroke-linejoin:miter;stroke-miterlimit:4;stroke-opacity:1;stroke-dasharray:none"
     id="path5445"
     d="m -1146.2554,-568.70044 -99.8061,-34.20057" />
  <path
     inkscape:connector-curvature="0"
     style="fill:#ffffff;fill-opacity:1;stroke:none"
     id="path5447"
     d="m -1191.2998,-585.90152 a 4.4606,4.4814726 0 1 1 -8.9212,0 4.4606,4.4814726 0 1 1 8.9212,0 z" />
  <path
     inkscape:connector-curvature="0"
     style="fill:#282828;fill-opacity:1;stroke:none"
     id="path5449"
     d="m -1196.3729,-525.97782 c 0,0 -5.0544,24.48875 -8.3825,25.29114 -3.328,0.80242 11.7204,5.17395 15.2382,1.9698 7.4368,-6.77359 -6.8557,-27.26094 -6.8557,-27.26094 z" />
  <path
     inkscape:connector-curvature="0"
     style="fill:#282828;fill-opacity:1;stroke:none"
     id="path5451"
     d="m -1187.5524,-530.47059 a 8.01221,7.3477205 0 0 1 -16.0244,0 8.01221,7.3477205 0 1 1 16.0244,0 z" />
  <flowRoot
     transform="matrix(0.23593248,0,0,0.21511491,-1044.3396,-725.60829)"
     id="flowRoot5455"
     xml:space="preserve"
     style="font-size:11px;font-style:normal;font-variant:normal;font-weight:normal;font-stretch:normal;line-height:125%;letter-spacing:0px;word-spacing:0px;fill:#ffffff;fill-opacity:0;stroke:none;font-family:roboto;-inkscape-font-specification:roboto"><flowRegion
       id="flowRegion5457"><rect
         width="325"
         height="240"
         x="-661"
         y="866.09448"
         id="rect5459"
         style="fill:#ffffff;fill-opacity:0" /></flowRegion><flowPara
       id="flowPara5461"
       style="font-size:64px;font-style:normal;font-variant:normal;font-weight:300;font-stretch:normal;text-align:start;line-height:125%;writing-mode:lr-tb;text-anchor:start;fill:#ffffff;fill-opacity:0;font-family:Roboto;-inkscape-font-specification:Roboto Light">B</flowPara></flowRoot>  <rect
     width="0.90079367"
     height="3.431684"
     x="527.79114"
     y="-1200.1903"
     transform="matrix(0,-1,1,0,0,0)"
     id="rect5463"
     style="fill:#ffffff;fill-opacity:0;stroke:none" />
  <flowRoot
     transform="matrix(1.6762144,0,0,1.5283131,-167.85852,-1891.1945)"
     id="flowRoot5467"
     xml:space="preserve"
     style="font-size:11px;font-style:normal;font-variant:normal;font-weight:normal;font-stretch:normal;line-height:125%;letter-spacing:0px;word-spacing:0px;fill:#280b0b;fill-opacity:1;stroke:none;font-family:roboto;-inkscape-font-specification:roboto"><flowRegion
       id="flowRegion5469"><rect
         width="325"
         height="240"
         x="-661"
         y="866.09448"
         id="rect5471"
         style="fill:#280b0b;fill-opacity:1" /></flowRegion><flowPara
       id="flowPara5473"
       style="font-size:64px;font-style:normal;font-variant:normal;font-weight:300;font-stretch:normal;text-align:start;line-height:125%;writing-mode:lr-tb;text-anchor:start;fill:#280b0b;fill-opacity:1;font-family:Roboto;-inkscape-font-specification:Roboto Light">B</flowPara></flowRoot>  <rect
     width="6.3998113"
     height="24.380865"
     x="485.77573"
     y="-1275.1211"
     transform="matrix(0,-1,1,0,0,0)"
     id="rect5475"
     style="fill:#280b0b;fill-opacity:1;stroke:none" />
  <path
     inkscape:connector-curvature="0"
     style="font-size:11px;font-style:normal;font-variant:normal;font-weight:normal;font-stretch:normal;line-height:125%;letter-spacing:0px;word-spacing:0px;fill:#282828;fill-opacity:1;stroke:none;font-family:roboto;-inkscape-font-specification:roboto"
     id="path5152"
     d="m -7.375699,610.17904 0,45.6563 -8.65625,0 0,6.0937 8.65625,0 0,14.2813 26.1875,0 c 7.02896,0 12.634836,-1.6071 16.812496,-4.7813 4.2107,-3.1742 6.31243,-7.6989 6.31249,-13.5937 -6e-5,-4.1718 -1.45736,-7.8238 -4.37499,-10.9375 -2.88459,-3.1137 -6.61207,-4.9236 -11.187496,-5.4375 3.448136,-1.0278 6.196206,-2.7711 8.218746,-5.25 2.0556,-2.4789 3.06245,-5.3612 3.0625,-8.6563 -5e-5,-5.8041 -2.10178,-10.1593 -6.3125,-13.0312 -4.21081,-2.9021 -10.067446,-4.3437 -17.593746,-4.3438 l -21.125,0 z m 5.96875,4.625 15.15625,0 c 5.86852,10e-5 10.32464,1.0715 13.374996,3.1875 3.05027,2.0859 4.56245,5.2033 4.5625,9.375 -5e-5,3.9904 -1.37313,7.0402 -4.125,9.1563 -2.718806,2.0859 -6.556026,3.1906 -11.562496,3.2812 l -17.40625,0 0,-25 z m 0,29.5625 20.03125,0 0.78125,0 c 5.03962,0.1512 9.078446,1.4587 12.062496,3.9375 3.01711,2.4487 4.49995,5.6649 4.5,9.625 -5e-5,4.3229 -1.51223,7.7066 -4.5625,10.125 -3.05037,2.3882 -7.255726,3.5625 -12.593746,3.5625 l -20.21875,0 0,-9.6875 8.53125,0 0,-6.0937 -8.53125,0 0,-11.4688 z" />
  <path
     inkscape:connector-curvature="0"
     style="font-size:11px;font-style:normal;font-variant:normal;font-weight:normal;font-stretch:normal;line-height:125%;letter-spacing:0px;word-spacing:0px;fill:#000000;fill-opacity:1;stroke:none;font-family:roboto;-inkscape-font-specification:roboto"
     id="path5263"
     d="m -135.36853,91.19782 0,10.69374 -2.0275,0 0,1.42729 2.0275,0 0,3.34501 6.1337,0 c 1.64633,0 2.95938,-0.37641 3.93788,-1.11989 0.98624,-0.74346 1.47852,-1.80323 1.47853,-3.18397 -1e-5,-0.97711 -0.34134,-1.8325 -1.02473,-2.5618 -0.67563,-0.72931 -1.54869,-1.15323 -2.62037,-1.27359 0.80764,-0.24073 1.45131,-0.64906 1.92504,-1.22967 0.48145,-0.58062 0.71728,-1.25571 0.71729,-2.02752 -1e-5,-1.35946 -0.49228,-2.37952 -1.47854,-3.05221 -0.98626,-0.67974 -2.35802,-1.01739 -4.12084,-1.01739 l -4.94796,0 z m 1.398,1.08325 3.54995,0 c 1.37455,3e-5 2.41827,0.25097 3.13273,0.7466 0.71446,0.48859 1.06863,1.21874 1.06864,2.19584 -1e-5,0.93465 -0.32161,1.64898 -0.96617,2.14461 -0.6368,0.48857 -1.53556,0.74731 -2.7082,0.76855 l -4.07695,0 0,-5.8556 z m 0,6.92423 4.69178,0 0.183,0 c 1.18038,0.0354 2.12637,0.34167 2.82531,0.92227 0.70668,0.57352 1.05399,1.32683 1.054,2.25439 -10e-6,1.01252 -0.35419,1.80507 -1.06865,2.37151 -0.71447,0.55938 -1.69945,0.83441 -2.94974,0.83441 l -4.7357,0 0,-2.26903 1.99823,0 0,-1.42729 -1.99823,0 0,-2.68626 z" />
  <flowRoot
     style="font-size:40px;font-style:normal;font-variant:normal;font-weight:normal;font-stretch:normal;line-height:125%;letter-spacing:0px;word-spacing:0px;fill:#ff872a;fill-opacity:1;stroke:none;font-family:roboto;-inkscape-font-specification:roboto"
     xml:space="preserve"
     id="flowRoot3108"
     transform="matrix(1.3391911,0,0,1.3391911,-1229.1136,-515.88829)"><flowRegion
       id="flowRegion3110"><rect
         style="fill:#ff872a;fill-opacity:1"
         id="rect3112"
         y="274.81448"
         x="340.27878"
         height="213.30908"
         width="682.58911" /></flowRegion><flowPara
       style="fill:#282828;fill-opacity:1;font-family:Lane -Narrow;-inkscape-font-specification:Lane -Narrow"
       id="flowPara3114">Blockchain</flowPara></flowRoot>  <flowRoot
     style="font-size:40px;font-style:normal;font-variant:normal;font-weight:normal;font-stretch:normal;line-height:125%;letter-spacing:0px;word-spacing:0px;fill:#000000;fill-opacity:1;stroke:none;font-family:roboto;-inkscape-font-specification:roboto"
     xml:space="preserve"
     id="flowRoot3116"
     transform="matrix(0.87720781,0,0,0.87720781,-618.20359,-346.81236)"><flowRegion
       id="flowRegion3118"><rect
         id="rect3120"
         y="274.81448"
         x="340.27878"
         height="213.30908"
         width="682.58911" /></flowRegion><flowPara
       style="font-family:Lane -Narrow;-inkscape-font-specification:Lane -Narrow"
       id="flowPara3122">project</flowPara></flowRoot>  <flowRoot
     style="font-size:40px;font-style:normal;font-variant:normal;font-weight:normal;font-stretch:normal;line-height:125%;letter-spacing:0px;word-spacing:0px;fill:#ff872a;fill-opacity:1;stroke:none;font-family:roboto;-inkscape-font-specification:roboto"
     xml:space="preserve"
     id="flowRoot3928"
     transform="matrix(1.3353167,0,0,1.3353167,-971.49225,-514.66582)"><flowRegion
       id="flowRegion3930"><rect
         style="fill:#ff872a;fill-opacity:1"
         id="rect3932"
         y="274.81448"
         x="340.27878"
         height="213.30908"
         width="682.58911" /></flowRegion><flowPara
       style="fill:#ff872a;fill-opacity:1;font-family:Lane -Narrow;-inkscape-font-specification:Lane -Narrow"
       id="flowPara3934">Education</flowPara></flowRoot>  <g
     transform="matrix(6.5041225,0,0,7.8311007,684.46518,-1891.8667)"
     style="font-size:24.32494354px;font-style:normal;font-variant:normal;font-weight:normal;font-stretch:normal;text-align:start;line-height:100%;letter-spacing:0.20861582px;word-spacing:-0.0031242px;writing-mode:lr-tb;text-anchor:start;fill:#ff872a;fill-opacity:1;stroke:none;font-family:Lane -Narrow;-inkscape-font-specification:Lane -Narrow"
     id="flowRoot3980">
    <path
       d="m -49.969922,253.96187 c 0.743554,1e-5 1.43244,0.18225 2.06666,0.54673 0.634205,0.35721 1.140846,0.83834 1.519924,1.44339 l -0.196825,0.32804 c -0.335338,-0.60505 -0.80553,-1.08618 -1.410577,-1.44338 -0.59777,-0.36449 -1.257497,-0.54673 -1.979182,-0.54674 -0.699826,1e-5 -1.348618,0.17496 -1.946379,0.52487 -0.597766,0.34262 -1.071603,0.81282 -1.421512,1.41057 -0.342621,0.59777 -0.513932,1.25021 -0.513931,1.95732 -1e-6,0.69982 0.17131,1.34861 0.513931,1.94637 0.349909,0.59048 0.823746,1.06067 1.421512,1.41058 0.597761,0.34262 1.246553,0.51393 1.946379,0.51393 0.721685,0 1.385057,-0.18224 1.990117,-0.54673 0.605046,-0.36449 1.075238,-0.84926 1.410577,-1.45432 l 0.18589,0.32804 c -0.371788,0.61235 -0.878429,1.10076 -1.519924,1.46525 -0.63422,0.3572 -1.323106,0.5358 -2.06666,0.5358 -0.758144,0 -1.46161,-0.18589 -2.110399,-0.55767 -0.648795,-0.37906 -1.162725,-0.88935 -1.541794,-1.53085 -0.371781,-0.6488 -0.557671,-1.35226 -0.55767,-2.1104 -10e-7,-0.76543 0.185889,-1.47254 0.55767,-2.12134 0.379069,-0.64878 0.892999,-1.15907 1.541794,-1.53086 0.648789,-0.37906 1.352255,-0.56859 2.110399,-0.5686"
       style="font-size:10.9347086px;font-weight:100;line-height:100%;letter-spacing:0.78105062px;word-spacing:0px;fill:#ff872a;font-family:Bondoluo Peek;-inkscape-font-specification:Bondoluo Peek Thin"
       id="path3654" />
    <path
       d="m -43.012811,254.53047 c 0.648789,-0.37906 1.352255,-0.56859 2.110398,-0.5686 0.765425,1e-5 1.46889,0.18954 2.110399,0.5686 0.648785,0.37179 1.159071,0.88208 1.530859,1.53086 0.379062,0.6488 0.568596,1.35591 0.568605,2.12134 -9e-6,0.75814 -0.189543,1.4616 -0.568605,2.1104 -0.371788,0.6415 -0.882074,1.15179 -1.530859,1.53085 -0.641509,0.37178 -1.344974,0.55767 -2.110399,0.55767 -0.758143,0 -1.461609,-0.18589 -2.110398,-0.55767 -0.648795,-0.37906 -1.162726,-0.88935 -1.541794,-1.53085 -0.371781,-0.6488 -0.557671,-1.35226 -0.557671,-2.1104 0,-0.76543 0.18589,-1.47254 0.557671,-2.12134 0.379068,-0.64878 0.892999,-1.15907 1.541794,-1.53086 m 4.056776,0.28431 c -0.59048,-0.34991 -1.239272,-0.52486 -1.946378,-0.52487 -0.699825,1e-5 -1.348617,0.17496 -1.946378,0.52487 -0.597766,0.34262 -1.071603,0.81282 -1.421512,1.41057 -0.342622,0.59777 -0.513932,1.25021 -0.513931,1.95732 -1e-6,0.69982 0.171309,1.34861 0.513931,1.94637 0.349909,0.59048 0.823746,1.06067 1.421512,1.41058 0.597761,0.34262 1.246553,0.51393 1.946378,0.51393 0.707106,0 1.355898,-0.17131 1.946378,-0.51393 0.597757,-0.34991 1.067949,-0.8201 1.410578,-1.41058 0.349902,-0.59776 0.524857,-1.24655 0.524866,-1.94637 -9e-6,-0.70711 -0.174964,-1.35955 -0.524866,-1.95732 -0.342629,-0.59775 -0.812821,-1.06795 -1.410578,-1.41057"
       style="font-size:10.9347086px;font-weight:100;line-height:100%;letter-spacing:0.78105062px;word-spacing:0px;fill:#ff872a;font-family:Bondoluo Peek;-inkscape-font-specification:Bondoluo Peek Thin"
       id="path3656" />
    <path
       d="m -34.399777,251.31567 0.328041,0 0,10.93471 -0.328041,0 0,-10.93471"
       style="font-size:10.9347086px;font-weight:100;line-height:100%;letter-spacing:0.78105062px;word-spacing:0px;fill:#ff872a;font-family:Bondoluo Peek;-inkscape-font-specification:Bondoluo Peek Thin"
       id="path3658" />
    <path
       d="m -31.653895,251.31567 0.328041,0 0,10.93471 -0.328041,0 0,-10.93471"
       style="font-size:10.9347086px;font-weight:100;line-height:100%;letter-spacing:0.78105062px;word-spacing:0px;fill:#ff872a;font-family:Bondoluo Peek;-inkscape-font-specification:Bondoluo Peek Thin"
       id="path3660" />
    <path
       d="m -24.805448,253.96187 c 0.867482,1e-5 1.65478,0.24422 2.361897,0.73262 0.707104,0.48114 1.221034,1.10806 1.541794,1.88077 0.153077,0.37179 0.247845,0.75815 0.284302,1.15908 0.01457,0.0948 0.0073,0.15309 -0.02187,0.17496 -0.02188,0.0146 -0.09113,0.0219 -0.207759,0.0219 -0.03646,0 -0.06197,0 -0.07654,0 l -7.752709,0 c -0.0073,0.0802 -0.01093,0.16038 -0.01093,0.24056 -1e-6,0.32076 0.04009,0.63786 0.120281,0.95132 0,0 0,0.007 0,0.0219 0,0.007 0,0.0109 0,0.0109 0.225983,0.84562 0.685241,1.54179 1.377774,2.08852 0.699818,0.53945 1.494406,0.80917 2.383766,0.80917 0.714396,0 1.370478,-0.17495 1.968248,-0.52486 0.597757,-0.3572 1.064304,-0.83104 1.399642,-1.42152 l 0.18589,0.31711 c -0.379077,0.60506 -0.882073,1.08254 -1.508989,1.43245 -0.62693,0.34991 -1.308526,0.52486 -2.044791,0.52486 -0.969548,0 -1.833389,-0.29888 -2.591526,-0.89664 -0.758141,-0.59776 -1.253847,-1.3559 -1.48712,-2.27442 -10e-7,-0.007 -0.0036,-0.0146 -0.01093,-0.0219 0,-0.007 0,-0.0146 0,-0.0219 -0.08019,-0.32075 -0.120282,-0.65243 -0.120282,-0.99506 0,-0.75813 0.18589,-1.4616 0.55767,-2.1104 0.379069,-0.64878 0.893,-1.15907 1.541794,-1.53086 0.64879,-0.37906 1.352255,-0.56859 2.110399,-0.5686 m 0,0.32804 c -0.969548,1e-5 -1.818809,0.31711 -2.547787,0.95132 -0.721692,0.63422 -1.15179,1.42152 -1.290296,2.3619 l 7.687101,0 c -0.05833,-0.3572 -0.160384,-0.69982 -0.306172,-1.02787 -0.30618,-0.68523 -0.780017,-1.23561 -1.421512,-1.65114 -0.63422,-0.4228 -1.34133,-0.6342 -2.121334,-0.63421"
       style="font-size:10.9347086px;font-weight:100;line-height:100%;letter-spacing:0.78105062px;word-spacing:0px;fill:#ff872a;font-family:Bondoluo Peek;-inkscape-font-specification:Bondoluo Peek Thin"
       id="path3662" />
    <path
       d="m -14.264829,253.96187 c 0.619629,1e-5 1.206457,0.13487 1.760488,0.40458 0.685235,0.32805 1.235615,0.81647 1.651141,1.46525 0.123919,0.18226 0.233266,0.38637 0.328042,0.61235 l 0,-2.29629 0.328041,0 0,8.09168 c -0.204123,0.80917 -0.626931,1.49806 -1.268426,2.06666 -0.63422,0.56861 -1.385069,0.91123 -2.25255,1.02787 -0.466553,0.0364 -0.9331,-0.0109 -1.399643,-0.14216 -0.459261,-0.12393 -0.882069,-0.32439 -1.268426,-0.6014 -0.379072,-0.27702 -0.699823,-0.61599 -0.962255,-1.01693 -0.262434,-0.40094 -0.448324,-0.83104 -0.55767,-1.2903 l 0.328042,-0.0765 c 0.09477,0.41552 0.262431,0.80917 0.502996,1.18095 0.247852,0.37178 0.543088,0.68159 0.885712,0.92945 0.488413,0.34991 1.031503,0.55767 1.629271,0.62328 0.597759,0.0656 1.162719,0.004 1.69488,-0.18589 0.532149,-0.18225 1.013276,-0.49571 1.443381,-0.94039 0.430091,-0.43739 0.728973,-0.96225 0.896647,-1.5746 l 0,-2.62433 c -0.379078,0.9331 -0.991421,1.68759 -1.837031,2.26349 l -0.01093,0 c -0.736276,0.4301 -1.530864,0.60505 -2.383767,0.52486 -0.583188,-0.0583 -1.137212,-0.24056 -1.662075,-0.54673 -0.517578,-0.30617 -0.944032,-0.69982 -1.279361,-1.18095 -0.335332,-0.48113 -0.561316,-1.01693 -0.677952,-1.6074 -0.109348,-0.59776 -0.102058,-1.18095 0.02187,-1.74956 0.189534,-0.89664 0.619633,-1.65113 1.290296,-2.26348 0.677949,-0.61963 1.472537,-0.97683 2.383766,-1.0716 0.131213,-0.0146 0.269719,-0.0219 0.415519,-0.0219 m 0,0.32804 c -0.131221,1e-5 -0.258792,0.007 -0.382715,0.0219 -0.838331,0.0802 -1.570955,0.40824 -2.197876,0.98412 -0.612345,0.56861 -1.009639,1.26479 -1.191883,2.08853 -0.116638,0.53216 -0.120283,1.07161 -0.01093,1.61834 0.109346,0.54674 0.317106,1.0388 0.623278,1.47619 0.306171,0.44467 0.69982,0.80916 1.180949,1.09347 0.481124,0.2843 0.987765,0.45196 1.519924,0.50299 0.780005,0.0729 1.50534,-0.0838 2.176007,-0.47019 0.619627,-0.42281 1.111688,-0.9659 1.476186,-1.62927 0.364482,-0.66337 0.543082,-1.33768 0.535801,-2.02292 l 0,-0.0109 c -0.01459,-0.69981 -0.211413,-1.34496 -0.590474,-1.93544 -0.379078,-0.59047 -0.885719,-1.03879 -1.519925,-1.34497 -0.510292,-0.24785 -1.049737,-0.37177 -1.618337,-0.37178"
       style="font-size:10.9347086px;font-weight:100;line-height:100%;letter-spacing:0.78105062px;word-spacing:0px;fill:#ff872a;font-family:Bondoluo Peek;-inkscape-font-specification:Bondoluo Peek Thin"
       id="path3664" />
    <path
       d="m -3.6804708,253.96187 c 0.8674814,1e-5 1.6547797,0.24422 2.3618971,0.73262 0.70710346,0.48114 1.22103425,1.10806 1.54179388,1.88077 0.15307727,0.37179 0.24784465,0.75815 0.28430242,1.15908 0.0145708,0.0948 0.007281,0.15309 -0.0218694,0.17496 -0.0218782,0.0146 -0.0911312,0.0219 -0.20775946,0.0219 -0.0364575,0 -0.0619718,0 -0.076543,0 l -7.75270836,0 c -0.00729,0.0802 -0.010935,0.16038 -0.010935,0.24056 -8e-7,0.32076 0.040093,0.63786 0.1202818,0.95132 -9e-7,0 -9e-7,0.007 0,0.0219 -9e-7,0.007 -9e-7,0.0109 0,0.0109 0.2259829,0.84562 0.6852402,1.54179 1.3777732,2.08852 0.6998185,0.53945 1.4944065,0.80917 2.3837665,0.80917 0.7143957,0 1.3704775,-0.17495 1.9682476,-0.52486 0.5977569,-0.3572 1.06430397,-0.83104 1.39964266,-1.42152 l 0.18589004,0.31711 c -0.37907766,0.60506 -0.8820738,1.08254 -1.5089898,1.43245 -0.6269293,0.34991 -1.3085254,0.52486 -2.0447905,0.52486 -0.9695478,0 -1.8333889,-0.29888 -2.5915259,-0.89664 -0.7581411,-0.59776 -1.2538474,-1.3559 -1.4871204,-2.27442 -5e-7,-0.007 -0.00365,-0.0146 -0.010935,-0.0219 -5e-7,-0.007 -5e-7,-0.0146 0,-0.0219 -0.080188,-0.32075 -0.1202822,-0.65243 -0.1202818,-0.99506 -4e-7,-0.75813 0.1858895,-1.4616 0.5576701,-2.1104 0.3790686,-0.64878 0.8929994,-1.15907 1.541794,-1.53086 0.6487895,-0.37906 1.3522551,-0.56859 2.1103987,-0.5686 m 0,0.32804 c -0.9695478,1e-5 -1.8188093,0.31711 -2.5477871,0.95132 -0.7216921,0.63422 -1.1517902,1.42152 -1.2902956,2.3619 l 7.68710013,0 c -0.0583268,-0.3572 -0.160384,-0.69982 -0.30617184,-1.02787 -0.30617967,-0.68523 -0.78001656,-1.23561 -1.42151209,-1.65114 -0.6342192,-0.4228 -1.3413297,-0.6342 -2.1213335,-0.63421"
       style="font-size:10.9347086px;font-weight:100;line-height:100%;letter-spacing:0.78105062px;word-spacing:0px;fill:#ff872a;font-family:Bondoluo Peek;-inkscape-font-specification:Bondoluo Peek Thin"
       id="path3666" />
  </g>
  <g
     transform="matrix(4.1223334,0,0,4.9633762,554.50881,-1061.4756)"
     style="font-size:24.32494353999999959px;font-style:normal;font-variant:normal;font-weight:normal;font-stretch:normal;text-align:start;line-height:100%;letter-spacing:0px;word-spacing:0px;writing-mode:lr-tb;text-anchor:start;fill:#282828;fill-opacity:1;stroke:none;font-family:Lane -Narrow;-inkscape-font-specification:Lane -Narrow"
     id="flowRoot3988">
    <path
       d="m -47.316437,253.84956 c 1.173164,1e-5 2.260072,0.28755 3.260728,0.86263 1.000636,0.56359 1.800002,1.3227 2.398102,2.27733 l -0.310545,0.51758 c -0.52909,-0.95463 -1.270948,-1.71374 -2.225577,-2.27734 -0.943148,-0.57507 -1.984049,-0.86261 -3.122708,-0.86262 -1.104168,1e-5 -2.127817,0.27605 -3.07095,0.82812 -0.943142,0.54059 -1.690751,1.28245 -2.24283,2.22557 -0.54058,0.94315 -0.81087,1.97255 -0.810868,3.08821 -2e-6,1.10416 0.270288,2.12781 0.810868,3.07095 0.552079,0.93164 1.299688,1.67349 2.24283,2.22557 0.943133,0.54058 1.966782,0.81087 3.07095,0.81087 1.138659,0 2.185311,-0.28754 3.139961,-0.86262 0.954628,-0.57509 1.696486,-1.33995 2.225576,-2.29459 l 0.293293,0.51758 c -0.586598,0.96614 -1.385965,1.73675 -2.398102,2.31183 -1.000656,0.56359 -2.087564,0.84538 -3.260728,0.84538 -1.196181,0 -2.306093,-0.29329 -3.329738,-0.87988 -1.023654,-0.59809 -1.834522,-1.4032 -2.432607,-2.41535 -0.586587,-1.02365 -0.87988,-2.13356 -0.879879,-3.32974 -10e-7,-1.20767 0.293292,-2.32334 0.879879,-3.34699 0.598085,-1.02364 1.408953,-1.82876 2.432607,-2.41536 1.023645,-0.59807 2.133557,-0.89712 3.329738,-0.89713"
       style="font-size:17.25253105000000176px;font-weight:100;line-height:100%;letter-spacing:0.33839207999999998px;font-family:Bondoluo Peek;-inkscape-font-specification:Bondoluo Peek Thin;fill:#282828;fill-opacity:1"
       id="path3625" />
    <path
       d="m -35.233384,253.91857 c 0.023,1e-5 0.046,1e-5 0.06901,0 0.126514,1e-5 0.247281,0.0115 0.362303,0.0345 l -0.06901,0.50033 c -0.851129,-0.092 -1.621741,0.11503 -2.311839,0.62109 -0.690104,0.50609 -1.115666,1.18468 -1.276688,2.0358 -0.023,0.13803 -0.04026,0.27605 -0.05176,0.41406 l 0,9.40263 -0.517576,0 0,-9.41988 0,0 0,-3.31249 0.517576,0 0,1.58723 c 0.264537,-0.44855 0.603836,-0.82236 1.017899,-1.12141 0.667095,-0.49456 1.420455,-0.74185 2.260082,-0.74186"
       style="font-size:17.25253105000000176px;font-weight:100;line-height:100%;letter-spacing:0.33839207999999998px;font-family:Bondoluo Peek;-inkscape-font-specification:Bondoluo Peek Thin;fill:#282828;fill-opacity:1"
       id="path3627" />
    <path
       d="m -32.025411,253.90132 5.106749,12.26655 5.469052,-12.23205 0.465819,0.22429 -5.710588,12.76687 -1.932283,4.36489 -0.569334,0 1.966789,-4.46841 -5.279275,-12.73236 0.483071,-0.18978"
       style="font-size:17.25253105000000176px;font-weight:100;line-height:100%;letter-spacing:0.33839207999999998px;font-family:Bondoluo Peek;-inkscape-font-specification:Bondoluo Peek Thin;fill:#282828;fill-opacity:1"
       id="path3629" />
    <path
       d="m -18.257002,271.41264 -0.517576,0 0,-17.32154 0.517576,0 0,4.15786 c 0.598086,-1.47221 1.564226,-2.66263 2.898425,-3.57128 l 0.01725,0 c 1.161666,-0.67859 2.415348,-0.95463 3.761052,-0.82812 0.920126,0.092 1.788503,0.37957 2.6051324,0.86263 0.8166085,0.48308 1.4952074,1.10417 2.0357986,1.86327 0.517563,0.75912 0.8683641,1.61024 1.0524044,2.55337 0.1840133,0.93165 0.1782625,1.84603 -0.017252,2.74316 -0.3105587,1.41471 -0.9949085,2.60513 -2.0530512,3.57127 -1.0696673,0.98915 -2.3175987,1.55273 -3.7437997,1.69075 -0.218539,0.023 -0.437071,0.0345 -0.655596,0.0345 -0.977649,0 -1.903534,-0.21278 -2.777657,-0.63834 -1.092664,-0.51757 -1.966791,-1.28819 -2.622385,-2.31184 -0.184028,-0.28754 -0.350803,-0.60959 -0.500323,-0.96614 l 0,8.16045 m 5.900365,-4.7617 c 0.207023,0 0.408303,-0.0115 0.603839,-0.0345 1.311183,-0.12652 2.4613509,-0.64409 3.4505061,-1.55273 0.9776313,-0.89712 1.6102235,-1.99553 1.8977784,-3.29523 0.1725121,-0.82811 0.1725121,-1.67349 0,-2.53612 -0.1610365,-0.87412 -0.4830834,-1.65623 -0.9661417,-2.34634 -0.4945841,-0.7016 -1.1214255,-1.27668 -1.8805259,-1.72526 -0.7476191,-0.44855 -1.5412349,-0.71309 -2.3808489,-0.79361 -1.230687,-0.11501 -2.380855,0.13228 -3.450507,0.74185 -0.977646,0.66711 -1.75401,1.52399 -2.329091,2.57063 -0.575086,1.04666 -0.856877,2.11057 -0.845374,3.19172 l 0,0.0173 c 0.023,1.10417 0.333547,2.12207 0.931636,3.0537 0.609587,0.93164 1.414704,1.63899 2.415355,2.12206 0.805113,0.39106 1.656237,0.58659 2.553374,0.58659"
       style="font-size:17.25253105000000176px;font-weight:100;line-height:100%;letter-spacing:0.33839207999999998px;font-family:Bondoluo Peek;-inkscape-font-specification:Bondoluo Peek Thin;fill:#282828;fill-opacity:1"
       id="path3631" />
    <path
       d="m -3.4989989,249.63994 0.5175759,0 0,4.50291 2.62238476,0 0,0.51758 -2.62238476,0 0,12.26655 -0.5175759,0 0,-12.26655 -2.6223847,0 0,-0.51758 2.6223847,0 0,-4.50291"
       style="font-size:17.25253105000000176px;font-weight:100;line-height:100%;letter-spacing:0.33839207999999998px;font-family:Bondoluo Peek;-inkscape-font-specification:Bondoluo Peek Thin;fill:#282828;fill-opacity:1"
       id="path3633" />
    <path
       d="m 2.5675048,254.74669 c 1.0236453,-0.59807 2.133557,-0.89712 3.3297385,-0.89713 1.2076687,1e-5 2.3175804,0.29906 3.3297385,0.89713 1.0236382,0.5866 1.8287562,1.39172 2.4153542,2.41536 0.598074,1.02365 0.897118,2.13932 0.897132,3.34699 -1.4e-5,1.19618 -0.299058,2.30609 -0.897132,3.32974 -0.586598,1.01215 -1.391716,1.81726 -2.4153542,2.41535 -1.0121581,0.58659 -2.1220698,0.87988 -3.3297385,0.87988 -1.1961815,0 -2.3060932,-0.29329 -3.3297385,-0.87988 -1.0236531,-0.59809 -1.8345212,-1.4032 -2.43260686,-2.41535 -0.58658696,-1.02365 -0.87987969,-2.13356 -0.87987909,-3.32974 -6e-7,-1.20767 0.29329213,-2.32334 0.87987909,-3.34699 0.59808566,-1.02364 1.40895376,-1.82876 2.43260686,-2.41536 m 6.400689,0.44857 c -0.931646,-0.55207 -1.9552952,-0.82811 -3.0709505,-0.82812 -1.1041681,1e-5 -2.1278173,0.27605 -3.0709505,0.82812 -0.9431416,0.54059 -1.6907505,1.28245 -2.24282905,2.22557 -0.5405807,0.94315 -0.81087009,1.97255 -0.81086896,3.08821 -1.13e-6,1.10416 0.27028826,2.12781 0.81086896,3.07095 0.55207855,0.93164 1.29968745,1.67349 2.24282905,2.22557 0.9431332,0.54058 1.9667824,0.81087 3.0709505,0.81087 1.1156553,0 2.1393045,-0.27029 3.0709505,-0.81087 0.9431271,-0.55208 1.6849852,-1.29393 2.2255762,-2.22557 0.552068,-0.94314 0.828108,-1.96679 0.828122,-3.07095 -1.4e-5,-1.11566 -0.276054,-2.14506 -0.828122,-3.08821 -0.540591,-0.94312 -1.2824491,-1.68498 -2.2255762,-2.22557"
       style="font-size:17.25253105000000176px;font-weight:100;line-height:100%;letter-spacing:0.33839207999999998px;font-family:Bondoluo Peek;-inkscape-font-specification:Bondoluo Peek Thin;fill:#282828;fill-opacity:1"
       id="path3635" />
    <path
       d="m 21.870743,253.84956 c 1.173163,1e-5 2.260072,0.28755 3.260728,0.86263 1.000635,0.56359 1.800002,1.3227 2.398102,2.27733 l -0.310546,0.51758 c -0.529089,-0.95463 -1.270948,-1.71374 -2.225576,-2.27734 -0.943148,-0.57507 -1.98405,-0.86261 -3.122708,-0.86262 -1.104169,1e-5 -2.127818,0.27605 -3.070951,0.82812 -0.943142,0.54059 -1.69075,1.28245 -2.242829,2.22557 -0.540581,0.94315 -0.81087,1.97255 -0.810869,3.08821 -10e-7,1.10416 0.270288,2.12781 0.810869,3.07095 0.552079,0.93164 1.299687,1.67349 2.242829,2.22557 0.943133,0.54058 1.966782,0.81087 3.070951,0.81087 1.138658,0 2.185311,-0.28754 3.13996,-0.86262 0.954629,-0.57509 1.696487,-1.33995 2.225577,-2.29459 l 0.293293,0.51758 c -0.586599,0.96614 -1.385965,1.73675 -2.398102,2.31183 -1.000656,0.56359 -2.087565,0.84538 -3.260728,0.84538 -1.196182,0 -2.306094,-0.29329 -3.329739,-0.87988 -1.023653,-0.59809 -1.834521,-1.4032 -2.432607,-2.41535 -0.586587,-1.02365 -0.879879,-2.13356 -0.879879,-3.32974 0,-1.20767 0.293292,-2.32334 0.879879,-3.34699 0.598086,-1.02364 1.408954,-1.82876 2.432607,-2.41536 1.023645,-0.59807 2.133557,-0.89712 3.329739,-0.89713"
       style="font-size:17.25253105000000176px;font-weight:100;line-height:100%;letter-spacing:0.33839207999999998px;font-family:Bondoluo Peek;-inkscape-font-specification:Bondoluo Peek Thin;fill:#282828;fill-opacity:1"
       id="path3637" />
    <path
       d="m 40.012668,266.92698 -0.517576,0 0,-2.38085 c -0.299054,0.50608 -0.667107,0.95464 -1.104162,1.3457 -0.793624,0.6901 -1.708008,1.12141 -2.743152,1.29394 -0.310552,0.046 -0.615346,0.069 -0.914384,0.069 -0.517581,-0.0115 -1.012153,-0.092 -1.483718,-0.24154 l -0.01725,-0.0172 c -0.793619,-0.26454 -1.460716,-0.71886 -2.001293,-1.36295 -0.506076,-0.59809 -0.851126,-1.32269 -1.035152,-2.17382 -0.126519,-0.55208 -0.189779,-1.33994 -0.189778,-2.3636 l 0,-6.93551 0.517576,0 0,6.93551 c -1e-6,0.98915 0.05751,1.74251 0.172525,2.26008 0.172524,0.75912 0.483069,1.40896 0.931637,1.94954 0.471566,0.56358 1.063903,0.96614 1.777011,1.20768 0.678595,0.23003 1.397449,0.28179 2.156566,0.15527 0.943131,-0.14952 1.771252,-0.54058 2.484365,-1.17317 0.67859,-0.59809 1.16166,-1.33419 1.449212,-2.20833 l 0,-9.12658 0.517576,0 0,9.17834 c -1.1e-5,10e-6 -1.1e-5,0.006 0,0.0172 -1.1e-5,10e-6 -1.1e-5,0.006 0,0.0173 l 0,3.55402"
       style="font-size:17.25253105000000176px;font-weight:100;line-height:100%;letter-spacing:0.33839207999999998px;font-family:Bondoluo Peek;-inkscape-font-specification:Bondoluo Peek Thin;fill:#282828;fill-opacity:1"
       id="path3639" />
    <path
       d="m 46.692445,253.91857 c 0.023,1e-5 0.046,1e-5 0.06901,0 0.126513,1e-5 0.247281,0.0115 0.362303,0.0345 l -0.06901,0.50033 c -0.851129,-0.092 -1.621742,0.11503 -2.31184,0.62109 -0.690103,0.50609 -1.115665,1.18468 -1.276687,2.0358 -0.023,0.13803 -0.04026,0.27605 -0.05176,0.41406 l 0,9.40263 -0.517576,0 0,-9.41988 0,0 0,-3.31249 0.517576,0 0,1.58723 c 0.264537,-0.44855 0.603836,-0.82236 1.017899,-1.12141 0.667095,-0.49456 1.420455,-0.74185 2.260081,-0.74186"
       style="font-size:17.25253105000000176px;font-weight:100;line-height:100%;letter-spacing:0.33839207999999998px;font-family:Bondoluo Peek;-inkscape-font-specification:Bondoluo Peek Thin;fill:#282828;fill-opacity:1"
       id="path3641" />
    <path
       d="m 52.826608,253.91857 c 0.023,1e-5 0.046,1e-5 0.06901,0 0.126514,1e-5 0.247282,0.0115 0.362304,0.0345 l -0.06901,0.50033 c -0.851128,-0.092 -1.621741,0.11503 -2.311839,0.62109 -0.690103,0.50609 -1.115665,1.18468 -1.276687,2.0358 -0.02301,0.13803 -0.04026,0.27605 -0.05176,0.41406 l 0,9.40263 -0.517576,0 0,-9.41988 0,0 0,-3.31249 0.517576,0 0,1.58723 c 0.264538,-0.44855 0.603837,-0.82236 1.0179,-1.12141 0.667095,-0.49456 1.420455,-0.74185 2.260081,-0.74186"
       style="font-size:17.25253105000000176px;font-weight:100;line-height:100%;letter-spacing:0.33839207999999998px;font-family:Bondoluo Peek;-inkscape-font-specification:Bondoluo Peek Thin;fill:#282828;fill-opacity:1"
       id="path3643" />
    <path
       d="m 59.88594,253.84956 c 1.368693,1e-5 2.610874,0.38532 3.726547,1.15592 1.115652,0.75912 1.92652,1.74827 2.432607,2.96743 0.241522,0.5866 0.391044,1.19619 0.448566,1.82877 0.02299,0.14953 0.01149,0.24155 -0.03451,0.27604 -0.03452,0.023 -0.143785,0.0345 -0.327798,0.0345 -0.05752,10e-6 -0.09778,10e-6 -0.120768,0 l -12.232045,0 c -0.0115,0.12652 -0.01725,0.25304 -0.01725,0.37955 -10e-7,0.50608 0.06326,1.00641 0.189778,1.50097 -2e-6,10e-6 -2e-6,0.0115 0,0.0345 -2e-6,0.0115 -2e-6,0.0173 0,0.0172 0.35655,1.3342 1.081156,2.43261 2.173819,3.29524 1.104157,0.85112 2.35784,1.27668 3.761051,1.27668 1.127157,0 2.162308,-0.27604 3.105456,-0.82812 0.943127,-0.56358 1.679234,-1.31119 2.208324,-2.24283 l 0.293293,0.50033 c -0.5981,0.95464 -1.391716,1.708 -2.380849,2.26008 -0.989155,0.55208 -2.064562,0.82812 -3.226224,0.82812 -1.52973,0 -2.892678,-0.47157 -4.088849,-1.41471 -1.196178,-0.94314 -1.978292,-2.13931 -2.346345,-3.58853 -1e-6,-0.0115 -0.0058,-0.023 -0.01725,-0.0345 -1e-6,-0.0115 -1e-6,-0.023 0,-0.0345 -0.126519,-0.50606 -0.189779,-1.02939 -0.189778,-1.56998 -10e-7,-1.19616 0.293292,-2.30608 0.879879,-3.32973 0.598086,-1.02364 1.408954,-1.82876 2.432607,-2.41536 1.023645,-0.59807 2.133557,-0.89712 3.329738,-0.89713 m 0,0.51758 c -1.52973,1e-5 -2.869675,0.50033 -4.019839,1.50097 -1.13867,1.00065 -1.817268,2.24283 -2.035799,3.72654 l 12.128529,0 c -0.09203,-0.56357 -0.25305,-1.10415 -0.483071,-1.62174 -0.483083,-1.08114 -1.230692,-1.94952 -2.242829,-2.60513 -1.000656,-0.66708 -2.116319,-1.00063 -3.346991,-1.00064"
       style="font-size:17.25253105000000176px;font-weight:100;line-height:100%;letter-spacing:0.33839207999999998px;font-family:Bondoluo Peek;-inkscape-font-specification:Bondoluo Peek Thin;fill:#282828;fill-opacity:1"
       id="path3645" />
    <path
       d="m 69.083237,254.16011 0.517575,0 0,2.38084 c 0.310545,-0.50606 0.684349,-0.95462 1.121415,-1.34569 0.793613,-0.69009 1.707997,-1.1214 2.743152,-1.29394 0.299039,-0.046 0.598083,-0.069 0.897132,-0.069 0.51757,1e-5 1.017892,0.0805 1.50097,0.24153 0.80511,0.27606 1.472207,0.73037 2.001294,1.36295 0.517566,0.6096 0.868367,1.33421 1.052404,2.17382 0.115007,0.55209 0.172515,1.33996 0.172526,2.3636 l 0,6.95277 -0.517576,0 0,-6.95277 c -1.1e-5,-0.97764 -0.05177,-1.72525 -0.155273,-2.24283 -0.172535,-0.7706 -0.488831,-1.42045 -0.948889,-1.94954 -0.471578,-0.57507 -1.058164,-0.97763 -1.759759,-1.20767 -0.690107,-0.23003 -1.408962,-0.28753 -2.156566,-0.17253 -0.943142,0.16104 -1.771263,0.55209 -2.484364,1.17317 -0.690104,0.6096 -1.178925,1.35146 -1.466466,2.22558 l 0,9.12659 -0.517575,0 0,-9.17835 c -10e-7,-0.0115 -10e-7,-0.0172 0,-0.0172 -10e-7,-0.0115 -10e-7,-0.0172 0,-0.0172 l 0,-3.55402"
       style="font-size:17.25253105000000176px;font-weight:100;line-height:100%;letter-spacing:0.33839207999999998px;font-family:Bondoluo Peek;-inkscape-font-specification:Bondoluo Peek Thin;fill:#282828;fill-opacity:1"
       id="path3647" />
    <path
       d="m 88.463302,253.84956 c 1.173164,1e-5 2.260072,0.28755 3.260729,0.86263 1.000635,0.56359 1.800002,1.3227 2.398102,2.27733 l -0.310546,0.51758 c -0.52909,-0.95463 -1.270948,-1.71374 -2.225576,-2.27734 -0.943148,-0.57507 -1.98405,-0.86261 -3.122709,-0.86262 -1.104168,1e-5 -2.127817,0.27605 -3.07095,0.82812 -0.943142,0.54059 -1.690751,1.28245 -2.242829,2.22557 -0.540581,0.94315 -0.81087,1.97255 -0.810869,3.08821 -1e-6,1.10416 0.270288,2.12781 0.810869,3.07095 0.552078,0.93164 1.299687,1.67349 2.242829,2.22557 0.943133,0.54058 1.966782,0.81087 3.07095,0.81087 1.138659,0 2.185312,-0.28754 3.139961,-0.86262 0.954629,-0.57509 1.696487,-1.33995 2.225577,-2.29459 l 0.293293,0.51758 c -0.586599,0.96614 -1.385965,1.73675 -2.398102,2.31183 -1.000657,0.56359 -2.087565,0.84538 -3.260729,0.84538 -1.196181,0 -2.306093,-0.29329 -3.329738,-0.87988 -1.023653,-0.59809 -1.834521,-1.4032 -2.432607,-2.41535 -0.586587,-1.02365 -0.87988,-2.13356 -0.879879,-3.32974 -10e-7,-1.20767 0.293292,-2.32334 0.879879,-3.34699 0.598086,-1.02364 1.408954,-1.82876 2.432607,-2.41536 1.023645,-0.59807 2.133557,-0.89712 3.329738,-0.89713"
       style="font-size:17.25253105000000176px;font-weight:100;line-height:100%;letter-spacing:0.33839207999999998px;font-family:Bondoluo Peek;-inkscape-font-specification:Bondoluo Peek Thin;fill:#282828;fill-opacity:1"
       id="path3649" />
    <path
       d="m 95.126633,253.90132 5.106747,12.26655 5.46905,-12.23205 0.46582,0.22429 -5.71058,12.76687 -1.932288,4.36489 -0.569334,0 1.966789,-4.46841 -5.279275,-12.73236 0.483071,-0.18978"
       style="font-size:17.25253105000000176px;font-weight:100;line-height:100%;letter-spacing:0.33839207999999998px;font-family:Bondoluo Peek;-inkscape-font-specification:Bondoluo Peek Thin;fill:#282828;fill-opacity:1"
       id="path3651" />
  </g>
  <g
     transform="matrix(4.3030138,0,0,5.1809196,959.30992,-1023.5177)"
     style="font-size:24.32494353999999959px;font-style:normal;font-variant:normal;font-weight:normal;font-stretch:normal;text-align:start;line-height:100%;letter-spacing:0px;word-spacing:0px;writing-mode:lr-tb;text-anchor:start;fill:#282828;fill-opacity:1;stroke:none;font-family:Lane -Narrow;-inkscape-font-specification:Lane -Narrow"
     id="flowRoot3996">
    <path
       d="m -54.135159,254.15883 0.346493,0 0,1.59387 c 0.207895,-0.33879 0.45814,-0.63908 0.750735,-0.90088 0.531287,-0.46199 1.143424,-0.75073 1.836412,-0.86624 0.200193,-0.0308 0.400388,-0.0462 0.600588,-0.0462 0.346489,0 0.681431,0.0539 1.004829,0.16169 0.538984,0.18481 0.985574,0.48895 1.339773,0.91243 0.346486,0.4081 0.581331,0.89319 0.704536,1.45527 0.07699,0.3696 0.11549,0.89704 0.115497,1.58232 l 0,4.65456 -0.346493,0 0,-4.65456 c -6e-6,-0.65448 -0.03466,-1.15497 -0.103948,-1.50147 -0.115504,-0.51588 -0.327249,-0.95092 -0.635237,-1.30512 -0.315699,-0.38499 -0.70839,-0.65448 -1.178075,-0.80848 -0.461995,-0.15399 -0.943235,-0.19249 -1.443721,-0.1155 -0.63139,0.1078 -1.185778,0.3696 -1.663166,0.78538 -0.461992,0.4081 -0.789235,0.90474 -0.98173,1.48992 l 0,6.10983 -0.346493,0 0,-6.14448 c 0,-0.008 0,-0.0115 0,-0.0115 0,-0.008 0,-0.0115 0,-0.0115 l 0,-2.37925"
       style="font-size:11.54976367999999987px;font-weight:100;font-family:Bondoluo Peek;-inkscape-font-specification:Bondoluo Peek Thin;fill:#282828;fill-opacity:1"
       id="path3610" />
    <path
       d="m -41.387648,253.95094 c 0.916275,0 1.747857,0.25795 2.494748,0.77383 0.746877,0.5082 1.289715,1.17038 1.628517,1.98656 0.161688,0.3927 0.261786,0.80079 0.300294,1.22427 0.01539,0.10011 0.0077,0.1617 -0.0231,0.1848 -0.02311,0.0154 -0.09626,0.0231 -0.219445,0.0231 -0.03851,0 -0.06546,0 -0.08085,0 l -8.188783,0 c -0.0077,0.0847 -0.01155,0.1694 -0.01155,0.25409 0,0.3388 0.04235,0.67374 0.127048,1.00483 -10e-7,10e-6 -10e-7,0.008 0,0.0231 -10e-7,0.008 -10e-7,0.0116 0,0.0115 0.238694,0.89319 0.723783,1.62852 1.45527,2.20601 0.739182,0.56979 1.578464,0.85468 2.517849,0.85468 0.754578,0 1.447564,-0.1848 2.078957,-0.55439 0.631379,-0.37729 1.124169,-0.87778 1.47837,-1.50147 l 0.196346,0.33495 c -0.4004,0.63908 -0.931689,1.14342 -1.593868,1.51301 -0.662192,0.3696 -1.382127,0.55439 -2.159805,0.55439 -1.024083,0 -1.936514,-0.31569 -2.737294,-0.94708 -0.800785,-0.63138 -1.324374,-1.43217 -1.570768,-2.40235 -1e-6,-0.008 -0.0039,-0.0154 -0.01155,-0.0231 -1e-6,-0.008 -1e-6,-0.0154 0,-0.0231 -0.0847,-0.33879 -0.127048,-0.68913 -0.127048,-1.05103 0,-0.80077 0.196346,-1.54381 0.589038,-2.2291 0.400391,-0.68528 0.943229,-1.22427 1.628517,-1.61697 0.685283,-0.40038 1.428317,-0.60058 2.229105,-0.60058 m 0,0.34649 c -1.024083,1e-5 -1.921114,0.33495 -2.691095,1.00483 -0.762286,0.66989 -1.216576,1.50147 -1.362873,2.49475 l 8.119484,0 c -0.06161,-0.37729 -0.169405,-0.73918 -0.323393,-1.08568 -0.323402,-0.72378 -0.823891,-1.30512 -1.501469,-1.74402 -0.669893,-0.44658 -1.416777,-0.66987 -2.240654,-0.66988"
       style="font-size:11.54976367999999987px;font-weight:100;font-family:Bondoluo Peek;-inkscape-font-specification:Bondoluo Peek Thin;fill:#282828;fill-opacity:1"
       id="path3612" />
    <path
       d="m -36.059599,251.13279 0.346493,0 0,3.01449 1.755564,0 0,0.34649 -1.755564,0 0,8.21189 -0.346493,0 0,-8.21189 -1.755564,0 0,-0.34649 1.755564,0 0,-3.01449"
       style="font-size:11.54976367999999987px;font-weight:100;font-family:Bondoluo Peek;-inkscape-font-specification:Bondoluo Peek Thin;fill:#282828;fill-opacity:1"
       id="path3614" />
    <path
       d="m -32.325956,253.98558 3.41873,8.21189 2.286853,-5.1281 -1.224275,-2.95674 0.311843,-0.12705 1.108778,2.65645 1.178076,-2.63335 0.311843,0.15015 -1.305123,2.92209 2.125157,5.11655 3.661275,-8.18879 0.323393,0.15015 -3.822972,8.54683 -0.173246,0.36959 -0.150147,-0.36959 -2.159806,-5.1974 -2.321502,5.1974 -0.161697,0.36959 -0.161697,-0.36959 -3.568877,-8.59303 0.323394,-0.12705"
       style="font-size:11.54976367999999987px;font-weight:100;font-family:Bondoluo Peek;-inkscape-font-specification:Bondoluo Peek Thin;fill:#282828;fill-opacity:1"
       id="path3616" />
    <path
       d="m -18.19374,254.55152 c 0.685283,-0.40038 1.428317,-0.60058 2.229104,-0.60058 0.808478,0 1.551512,0.2002 2.229105,0.60058 0.685278,0.3927 1.224266,0.93169 1.616967,1.61697 0.400382,0.68529 0.600578,1.43218 0.600587,2.24065 -9e-6,0.80079 -0.200205,1.54383 -0.600587,2.22911 -0.392701,0.67759 -0.931689,1.21657 -1.616967,1.61697 -0.677593,0.39269 -1.420627,0.58903 -2.229105,0.58903 -0.800787,0 -1.543821,-0.19634 -2.229104,-0.58903 -0.685288,-0.4004 -1.228126,-0.93938 -1.628517,-1.61697 -0.392692,-0.68528 -0.589038,-1.42832 -0.589038,-2.22911 0,-0.80847 0.196346,-1.55536 0.589038,-2.24065 0.400391,-0.68528 0.943229,-1.22427 1.628517,-1.61697 m 4.284962,0.3003 c -0.623693,-0.36959 -1.308979,-0.55438 -2.055858,-0.55439 -0.739189,1e-5 -1.424474,0.1848 -2.055858,0.55439 -0.631389,0.3619 -1.131878,0.85854 -1.501469,1.48992 -0.361893,0.63139 -0.54284,1.32052 -0.542839,2.0674 -1e-6,0.73919 0.180946,1.42448 0.542839,2.05586 0.369591,0.62369 0.87008,1.12033 1.501469,1.48992 0.631384,0.36189 1.316669,0.54284 2.055858,0.54284 0.746879,0 1.432165,-0.18095 2.055858,-0.54284 0.63138,-0.36959 1.128019,-0.86623 1.48992,-1.48992 0.369583,-0.63138 0.554379,-1.31667 0.554388,-2.05586 -9e-6,-0.74688 -0.184805,-1.43601 -0.554388,-2.0674 -0.361901,-0.63138 -0.85854,-1.12802 -1.48992,-1.48992"
       style="font-size:11.54976367999999987px;font-weight:100;font-family:Bondoluo Peek;-inkscape-font-specification:Bondoluo Peek Thin;fill:#282828;fill-opacity:1"
       id="path3618" />
    <path
       d="m -7.3802711,253.99713 c 0.015397,1e-5 0.030796,1e-5 0.046199,0 0.084695,1e-5 0.1655434,0.008 0.242545,0.0231 l -0.046199,0.33495 c -0.569791,-0.0616 -1.0856799,0.077 -1.5476684,0.41579 -0.4619917,0.3388 -0.7468856,0.79309 -0.8546825,1.36287 -0.0154,0.0924 -0.02695,0.1848 -0.034649,0.27719 l 0,6.29463 -0.3464929,0 0,-6.30617 0,0 0,-2.21756 0.3464929,0 0,1.06258 c 0.1770955,-0.30029 0.4042406,-0.55053 0.6814361,-0.75074 0.446589,-0.33108 0.9509281,-0.49663 1.513019,-0.49664"
       style="font-size:11.54976367999999987px;font-weight:100;font-family:Bondoluo Peek;-inkscape-font-specification:Bondoluo Peek Thin;fill:#282828;fill-opacity:1"
       id="path3620" />
    <path
       d="m -6.4247095,251.20209 0.3464929,0 0,10.97228 4.6083557,-7.99244 0.3002938,0.17325 -2.390801,4.14636 3.49957836,4.20412 -0.26564456,0.21944 -3.4187301,-4.10016 -2.3561517,4.07706 -0.3233934,0.56594 0,-0.64679 0,-11.61906"
       style="font-size:11.54976367999999987px;font-weight:100;font-family:Bondoluo Peek;-inkscape-font-specification:Bondoluo Peek Thin;fill:#282828;fill-opacity:1"
       id="path3622" />
  </g>
  <path
     inkscape:connector-curvature="0"
     style="font-size:medium;font-style:normal;font-variant:normal;font-weight:normal;font-stretch:normal;text-indent:0;text-align:start;text-decoration:none;line-height:normal;letter-spacing:normal;word-spacing:normal;text-transform:none;direction:ltr;block-progression:tb;writing-mode:lr-tb;text-anchor:start;baseline-shift:baseline;color:#000000;fill:#ff872a;fill-opacity:1;stroke:none;stroke-width:9.65529728;marker:none;visibility:visible;display:inline;overflow:visible;enable-background:accumulate;font-family:Sans;-inkscape-font-specification:Sans"
     id="path4302"
     d="m 101.20112,156.011 c -6.207155,7.88444 -11.273465,16.69433 -14.799115,26.23076 l -0.0443,0 c -0.0224,0.057 -0.0221,0.12024 -0.0443,0.17724 -14.31749,36.68601 -4.71881,80.53073 23.793785,107.7588 0.0444,0.0444 0.0885,0.0886 0.13286,0.13286 28.21602,28.18475 72.9875,36.55802 109.53114,20.69217 l 0,0.0442 c 0.0493,-0.0201 0.0838,-0.0683 0.13285,-0.0886 24.84789,-10.23265 44.39684,-30.82058 54.32249,-55.3859 -0.72059,0.0435 -1.47674,0.0442 -2.21543,0.0442 -4.34518,0 -8.38074,-0.79002 -11.83043,-2.12682 -9.00031,19.91208 -25.40435,36.61114 -45.59352,44.88494 l -0.0886,0.0442 -0.0886,0 c -31.17003,13.58878 -70.58541,6.1839 -94.59912,-17.90072 l -0.0442,-0.0442 -0.0886,-0.0886 C 95.298545,257.19913 86.827475,218.56099 99.118705,187.24861 l 0.0442,-0.0442 0,-0.0886 c 3.762835,-10.2449 9.679895,-19.58421 17.103155,-27.60433 -5.15243,-0.73613 -10.20541,-1.81642 -15.06496,-3.50039 z m 159.82155,1.32926 c -5.23345,0.98636 -10.49863,1.82412 -15.77391,2.5256 4.07974,4.45846 7.69968,9.31632 10.72271,14.53326 2.78217,-3.50786 7.02071,-6.00987 11.96336,-6.64631 -2.07861,-3.63221 -4.39575,-7.0944 -6.91216,-10.41255 z" />
  <path
     inkscape:connector-curvature="0"
     style="fill:#282828;fill-opacity:1;stroke:none"
     id="path4650"
     d="m 267.44742,95.75114 -84.00933,27.07263 -83.920705,-27.02832 0,56.58224 c 21.959625,7.55938 45.735265,6.27957 68.767125,7.6654 32.97344,0.63143 66.61639,0.59146 98.71982,-7.1337 0.14488,-16.33985 0.44309,-38.11579 0.44309,-57.15825 z" />
  <path
     inkscape:connector-curvature="0"
     style="fill:none;stroke:#ff872a;stroke-width:4.09505987;stroke-linecap:butt;stroke-linejoin:miter;stroke-miterlimit:4;stroke-opacity:1;stroke-dasharray:none"
     id="path4652"
     d="m 273.12153,95.39059 0,98.0525" />
  <path
     inkscape:connector-curvature="0"
     style="fill:url(#linearGradient3592);fill-opacity:1;stroke:none"
     id="path4656"
     d="m 273.12682,194.89484 c 0,0 -10.35395,50.16502 -17.17163,51.80871 -6.81738,1.64377 24.00917,10.5988 31.2154,4.03512 15.23424,-13.87564 -14.04377,-55.84383 -14.04377,-55.84383 z" />
  <path
     inkscape:connector-curvature="0"
     style="fill:#ff872a;fill-opacity:1;stroke:none"
     id="path4662"
     d="m 289.55748,185.69146 a 16.412957,15.051754 0 0 1 -32.82591,0 16.412957,15.051754 0 1 1 32.82591,0 z" />
  <path
     inkscape:connector-curvature="0"
     style="fill:#ffffff;fill-opacity:0;stroke:none"
     id="path4692"
     d="m 229.29646,150.74488 a 8.8363963,8.8777439 45 1 1 -12.49655,-12.49655 8.8363963,8.8777439 45 1 1 12.49655,12.49655 z" />
  <path
     inkscape:connector-curvature="0"
     style="fill:#ffffff;fill-opacity:0;stroke:none"
     id="path4694"
     d="M 127.36373,95.35946 A 8.8363963,8.8777439 45 1 1 114.86718,82.86291 8.8363963,8.8777439 45 1 1 127.36373,95.35946 z" />
  <path
     inkscape:connector-curvature="0"
     style="fill:#282828;fill-opacity:1;stroke:none"
     id="rect4696"
     d="M 183.43809,0 0,59.15214 183.43809,118.25997 265.89663,91.67474 c -0.35799,-0.89528 -0.57603,-1.85617 -0.57603,-2.88007 0,-0.28853 0.01,-0.56366 0.0442,-0.84186 L 189.33111,63.5387 c -1.40712,1.69919 -3.51922,2.79145 -5.89305,2.79145 -4.2741,0 -7.75402,-3.50423 -7.75402,-7.79833 0,-4.2941 3.47992,-7.75403 7.75402,-7.75403 4.2741,0 7.70972,3.45993 7.70972,7.75403 0,0.50116 -0.0401,0.9886 -0.13286,1.46219 l 75.81221,24.32548 c 1.40179,-1.96569 3.65389,-3.27884 6.24753,-3.27884 3.62861,0 6.6511,2.50763 7.48817,5.89306 L 366.83188,59.15214 183.43809,0 z" />
  <flowRoot
     transform="matrix(14.862242,0,0,15.757543,-32.894134,-3623.6481)"
     id="flowRoot4150"
     xml:space="preserve"
     style="font-size:24.32494354px;font-style:normal;font-variant:normal;font-weight:normal;font-stretch:normal;text-align:start;line-height:100%;letter-spacing:0.20861582px;word-spacing:-1.04307914px;writing-mode:lr-tb;text-anchor:start;fill:#ff872a;fill-opacity:1;stroke:none;font-family:Lane -Narrow;-inkscape-font-specification:Lane -Narrow"><flowRegion
       id="flowRegion4152"><rect
         width="308.09653"
         height="112.12693"
         x="-54.548237"
         y="254.1705"
         id="rect4154"
         style="font-size:24.32494354px;font-style:normal;font-variant:normal;font-weight:normal;font-stretch:normal;text-align:start;line-height:100%;letter-spacing:0.20861582px;word-spacing:-1.04307914px;writing-mode:lr-tb;text-anchor:start;fill:#ff872a;fill-opacity:1;font-family:Lane -Narrow;-inkscape-font-specification:Lane -Narrow" /></flowRegion><flowPara
       id="flowPara4156"
       style="font-size:18.09109497px;font-style:normal;font-variant:normal;font-weight:100;font-stretch:normal;text-align:start;line-height:100%;letter-spacing:0.20861582px;word-spacing:-1.04307914px;writing-mode:lr-tb;text-anchor:start;fill:#ff872a;fill-opacity:1;font-family:Bondoluo Peek;-inkscape-font-specification:Bondoluo Peek Thin">c</flowPara></flowRoot>  <flowRoot
     transform="matrix(14.862242,0,0,15.757543,154.76166,-3623.6481)"
     id="flowRoot4198"
     xml:space="preserve"
     style="font-size:24.32494354px;font-style:normal;font-variant:normal;font-weight:normal;font-stretch:normal;text-align:start;line-height:100%;letter-spacing:0.20861582px;word-spacing:-1.04307914px;writing-mode:lr-tb;text-anchor:start;fill:#282828;fill-opacity:1;stroke:none;font-family:Lane -Narrow;-inkscape-font-specification:Lane -Narrow"><flowRegion
       id="flowRegion4200"><rect
         width="308.09653"
         height="112.12693"
         x="-54.548237"
         y="254.1705"
         id="rect4202"
         style="font-size:24.32494354px;font-style:normal;font-variant:normal;font-weight:normal;font-stretch:normal;text-align:start;line-height:100%;letter-spacing:0.20861582px;word-spacing:-1.04307914px;writing-mode:lr-tb;text-anchor:start;fill:#282828;fill-opacity:1;font-family:Lane -Narrow;-inkscape-font-specification:Lane -Narrow" /></flowRegion><flowPara
       id="flowPara4204"
       style="font-size:18.09109497px;font-style:normal;font-variant:normal;font-weight:100;font-stretch:normal;text-align:start;line-height:100%;letter-spacing:0.20861582px;word-spacing:-1.04307914px;writing-mode:lr-tb;text-anchor:start;fill:#282828;fill-opacity:1;font-family:Bondoluo Peek;-inkscape-font-specification:Bondoluo Peek Thin">c</flowPara></flowRoot>  <flowRoot
     transform="matrix(14.862242,0,0,15.757543,356.49156,-3623.6481)"
     id="flowRoot4206"
     xml:space="preserve"
     style="font-size:24.32494354px;font-style:normal;font-variant:normal;font-weight:normal;font-stretch:normal;text-align:start;line-height:100%;letter-spacing:0.20861582px;word-spacing:-1.04307914px;writing-mode:lr-tb;text-anchor:start;fill:#ff872a;fill-opacity:1;stroke:none;font-family:Lane -Narrow;-inkscape-font-specification:Lane -Narrow"><flowRegion
       id="flowRegion4208"><rect
         width="308.09653"
         height="112.12693"
         x="-54.548237"
         y="254.1705"
         id="rect4210"
         style="font-size:24.32494354px;font-style:normal;font-variant:normal;font-weight:normal;font-stretch:normal;text-align:start;line-height:100%;letter-spacing:0.20861582px;word-spacing:-1.04307914px;writing-mode:lr-tb;text-anchor:start;fill:#ff872a;fill-opacity:1;font-family:Lane -Narrow;-inkscape-font-specification:Lane -Narrow" /></flowRegion><flowPara
       id="flowPara4212"
       style="font-size:18.09109497px;font-style:normal;font-variant:normal;font-weight:100;font-stretch:normal;text-align:start;line-height:100%;letter-spacing:0.20861582px;word-spacing:-1.04307914px;writing-mode:lr-tb;text-anchor:start;fill:#ff872a;fill-opacity:1;font-family:Bondoluo Peek;-inkscape-font-specification:Bondoluo Peek Thin">n</flowPara></flowRoot></svg>
