<?xml version="1.0" encoding="UTF-8" standalone="no"?>
<svg
   xmlns:dc="http://purl.org/dc/elements/1.1/"
   xmlns:cc="http://creativecommons.org/ns#"
   xmlns:rdf="http://www.w3.org/1999/02/22-rdf-syntax-ns#"
   xmlns:svg="http://www.w3.org/2000/svg"
   xmlns="http://www.w3.org/2000/svg"
   xmlns:sodipodi="http://sodipodi.sourceforge.net/DTD/sodipodi-0.dtd"
   xmlns:inkscape="http://www.inkscape.org/namespaces/inkscape"
   width="260"
   height="260"
   id="svg3335"
   version="1.1"
   inkscape:version="0.48.2 r9819"
   sodipodi:docname="faviconRefined.svg"
   inkscape:export-filename="/Users/smithd98/apps/sowhatsbitcoin.com/images/faviconRefined.png"
   inkscape:export-xdpi="90"
   inkscape:export-ydpi="90">
  <metadata
     id="metadata3357">
    <rdf:RDF>
      <cc:Work
         rdf:about="">
        <dc:format>image/svg+xml</dc:format>
        <dc:type
           rdf:resource="http://purl.org/dc/dcmitype/StillImage" />
        <dc:title></dc:title>
      </cc:Work>
    </rdf:RDF>
  </metadata>
  <sodipodi:namedview
     pagecolor="#ffffff"
     bordercolor="#666666"
     borderopacity="1"
     objecttolerance="10"
     gridtolerance="10"
     guidetolerance="10"
     inkscape:pageopacity="0"
     inkscape:pageshadow="2"
     inkscape:window-width="1041"
     inkscape:window-height="833"
     id="namedview3355"
     showgrid="false"
     inkscape:zoom="0.98491554"
     inkscape:cx="34.843051"
     inkscape:cy="49.12827"
     inkscape:window-x="308"
     inkscape:window-y="6"
     inkscape:window-maximized="0"
     inkscape:current-layer="svg3335" />
  <defs
     id="defs3337">
    <path
       d="M-1392.293 588.91c20.392-52.843 59.314-13.039 80 7.647 56.471 44.902 81.177 12.157 88.824-17.059M171.765 446.48c26.078 62.157 8.627 147.843-7.059 180.588M-1232.712 1107.613c235.148 210.107 618.089 100.382 733.445-37.393M429 309.431c131.281 148.819 63.221 385.194 5.819 488.726M-1289.081 847.62c-121.763-159.197-166.176-364.755-37.582-555.374M-1640.261 189.057c197.793-135.774 367.328-135.88 585.98 0"
       stroke="#000"
       fill="none"
       id="path3339" />
    <path
       style="fill:none;stroke:#000000;stroke-width:1px;stroke-linecap:butt;stroke-linejoin:miter;stroke-opacity:1"
       d="m -1392.2932,588.90982 c 20.3921,-52.84313 59.3137,-13.03921 79.9999,7.64707 56.4706,44.90196 81.1765,12.15686 88.8236,-17.05883"
       id="path3068-5"
       inkscape:connector-curvature="0"
       sodipodi:nodetypes="ccc" />
    <path
       style="fill:none;stroke:#000000;stroke-width:1px;stroke-linecap:butt;stroke-linejoin:miter;stroke-opacity:1"
       d="m 171.76471,446.47983 c 26.07842,62.15686 8.62745,147.84313 -7.05882,180.58823"
       id="path3059-0"
       inkscape:connector-curvature="0"
       sodipodi:nodetypes="cc" />
    <path
       style="fill:none;stroke:#000000;stroke-width:1px;stroke-linecap:butt;stroke-linejoin:miter;stroke-opacity:1"
       d="m -1232.7121,1107.6133 c 235.14768,210.1073 618.08934,100.3824 733.4448,-37.3933"
       id="path3050-9"
       inkscape:connector-curvature="0"
       sodipodi:nodetypes="cc" />
    <path
       style="fill:none;stroke:#000000;stroke-width:1px;stroke-linecap:butt;stroke-linejoin:miter;stroke-opacity:1"
       d="m 429,309.43108 c 131.28125,148.81859 63.22078,385.19363 5.8189,488.72619"
       id="path3035-0"
       inkscape:connector-curvature="0"
       sodipodi:nodetypes="cc" />
    <path
       style="fill:none;stroke:#000000;stroke-width:1px;stroke-linecap:butt;stroke-linejoin:miter;stroke-opacity:1"
       d="m -1289.0811,847.61983 c -121.7626,-159.19679 -166.1756,-364.75529 -37.5816,-555.37391"
       id="path3013-0"
       inkscape:connector-curvature="0"
       sodipodi:nodetypes="cc" />
    <path
       style="fill:none;stroke:#000000;stroke-width:1px;stroke-linecap:butt;stroke-linejoin:miter;stroke-opacity:1"
       d="m -1640.2608,189.05728 c 197.7929,-135.774282 367.3284,-135.880072 585.9796,0"
       id="path3000-6"
       inkscape:connector-curvature="0"
       sodipodi:nodetypes="cc" />
  </defs>
  <path
     style="fill:#e25f1a;fill-opacity:1;stroke:#000000;stroke-width:1.15762496"
     inkscape:connector-curvature="0"
     id="path3347"
     d="m -163.6767,150.36631 c 0,73.31008 -59.43014,132.74022 -132.74021,132.74022 -73.31008,0 -132.74023,-59.43014 -132.74023,-132.74022 0,-73.310075 59.43015,-132.740223 132.74023,-132.740223 73.31007,0 132.74021,59.430148 132.74021,132.740223 z" />
  <path
     d="m -546.39513,1370.5181 c 0,73.3101 -59.43014,132.7403 -132.74021,132.7403 -73.31008,0 -132.74023,-59.4302 -132.74023,-132.7403 0,-73.31 59.43015,-132.7402 132.74023,-132.7402 73.31007,0 132.74021,59.4302 132.74021,132.7402 z"
     id="path3053"
     inkscape:connector-curvature="0"
     style="fill:#e25f1a;fill-opacity:1;stroke:#000000;stroke-width:1.15762496" />
  <path
     sodipodi:nodetypes="ccccccccccccccccccccccccccccccccccccccccccccccc"
     style="fill:#e25f1a;fill-opacity:1;stroke:#000000;stroke-width:6;stroke-miterlimit:4;stroke-opacity:1;stroke-dasharray:none"
     d="m 126.34901,1751.9449 7.81872,-34.3011 -20.82464,-5.1922 5.12295,-20.547 21.16994,5.278 27.94474,-112.0783 -21.1703,-5.2785 5.58891,-22.4158 21.16994,5.2783 8.69378,-34.8689 41.09579,10.2463 -8.69387,34.8689 21.17048,5.2784 8.69379,-34.8689 14.32014,3.5704 14.32178,3.5708 -4.29013,17.2071 -4.2903,17.207 6.10415,3.7402 c 12.47562,7.6434 20.27827,20.158 20.63448,33.0928 0.52706,19.1635 -11.61878,36.1502 -27.73473,38.786 l -5.51634,0.9017 4.1209,2.0421 c 11.03775,5.4693 20.74378,18.6639 22.91439,31.1512 1.57486,9.055 -0.32644,19.3757 -5.07079,27.5225 -3.12599,5.3711 -5.71111,7.8105 -12.76586,12.049 -9.71632,5.8381 -18.65351,7.6034 -33.62679,6.6402 l -7.55952,-0.3191 c -2.51211,11.3566 -8.43847,33.8449 -8.43847,33.8449 l -28.88658,-7.1125 8.46942,-33.9691 -20.60074,-5.1364 -9.24304,34.0708 z m 93.61362,-41.7009 c 15.27265,-4.4868 24.1251,-26.4272 15.1426,-37.529 -4.50275,-5.5651 -10.54075,-8.6217 -26.7964,-13.5647 l -14.44578,-4.3934 c -4.37748,17.5572 -8.75497,35.1145 -13.13254,52.6717 14.97987,3.7447 28.96357,5.7719 39.23212,2.815 z m 15.84393,-70.713 c 5.56382,-2.3044 8.86364,-6.7576 10.70897,-14.4524 1.93641,-21.3261 -18.8691,-25.2933 -37.84065,-29.7284 -1.33624,6.3312 -8.66129,33.8219 -9.43121,37.8267 9.89014,2.0758 27.86712,8.3275 36.56271,6.3546 9e-5,-10e-5 1.8e-4,-3e-4 1.8e-4,-5e-4 z"
     id="path3055"
     inkscape:connector-curvature="0" />
  <text
     transform="matrix(0.96542562,-0.26067866,0.26067866,0.96542562,0,0)"
     sodipodi:linespacing="125%"
     id="text3057"
     y="1787.0033"
     x="-178.92397"
     style="font-size:101.09880066px;font-style:normal;font-variant:normal;font-weight:normal;font-stretch:normal;line-height:125%;letter-spacing:0px;word-spacing:0px;fill:#000000;fill-opacity:1;stroke:#000000;stroke-width:4.09370041;stroke-miterlimit:4;stroke-opacity:1;stroke-dasharray:none;font-family:Bookman;-inkscape-font-specification:Bookman"
     xml:space="preserve"><tspan
       style="font-size:363.95562744px;fill:#000000;fill-opacity:1;stroke:#000000;stroke-width:4.09370041;stroke-miterlimit:4;stroke-opacity:1;stroke-dasharray:none;font-family:Abadi MT Condensed Extra Bold;-inkscape-font-specification:Abadi MT Condensed Extra Bold"
       y="1787.0033"
       x="-178.92397"
       id="tspan3059"
       sodipodi:role="line">?</tspan></text>
  <path
     sodipodi:nodetypes="ccccccccccccccccccccccccccccccccc"
     style="fill:#e25f1a;fill-opacity:1;stroke:#000000;stroke-width:7.29303789;stroke-miterlimit:4;stroke-opacity:1;stroke-dasharray:none"
     d="m 143.95248,1377.6605 6.64669,-24.8707 33.967,-136.2319 6.79292,-27.2468 49.95208,12.4544 25.73284,6.416 34.95223,8.1274 7.41962,4.5461 c 15.1642,9.2907 24.64837,24.5023 25.08135,40.2246 0.64064,23.2934 -14.12271,43.9408 -33.71174,47.1446 l -6.70515,1.0961 5.00899,2.4822 c 13.41645,6.6478 25.21419,22.686 27.85257,37.8644 1.91426,11.0065 -0.39678,23.5512 -6.16358,33.4538 -3.79966,6.5285 -6.94189,9.4937 -15.51696,14.6456 -11.81027,7.0963 -22.67347,9.242 -40.87358,8.0712 l -9.18864,-0.3879 -35.0742,-8.7962 -25.04033,-6.2433 z m 103.13276,-14.7519 c 18.564,-5.4538 27.02124,-17.1533 16.10295,-30.6475 -5.47311,-6.7645 -12.81233,-10.4798 -32.57118,-16.488 l -17.55893,-5.3402 c -5.32086,21.3409 -8.33877,27.7126 -13.65974,49.0536 18.20813,4.5516 35.2054,7.0158 47.6869,3.4216 z m 20.40985,-80.1947 c 6.76287,-2.801 10.77381,-8.2139 13.01682,-17.567 2.35372,-25.922 -22.9355,-30.7442 -45.99553,-36.1351 -1.62421,7.6957 -10.52785,41.1108 -11.4637,45.9787 12.02153,2.5231 33.87267,10.1221 44.44219,7.724 1.2e-4,-2e-4 2.2e-4,-4e-4 2.2e-4,-6e-4 z"
     id="path3061"
     inkscape:connector-curvature="0" />
  <text
     transform="matrix(0.96542562,-0.26067866,0.26067866,0.96542562,0,0)"
     sodipodi:linespacing="125%"
     id="text3063"
     y="1448.6626"
     x="-69.746216"
     style="font-size:101.09880066px;font-style:normal;font-variant:normal;font-weight:normal;font-stretch:normal;line-height:125%;letter-spacing:0px;word-spacing:0px;fill:#000000;fill-opacity:1;stroke:#000000;stroke-width:4.09370041;stroke-miterlimit:4;stroke-opacity:1;stroke-dasharray:none;font-family:Bookman;-inkscape-font-specification:Bookman"
     xml:space="preserve"><tspan
       style="font-size:363.95562744px;fill:#000000;fill-opacity:1;stroke:#000000;stroke-width:4.09370041;stroke-miterlimit:4;stroke-opacity:1;stroke-dasharray:none;font-family:Abadi MT Condensed Extra Bold;-inkscape-font-specification:Abadi MT Condensed Extra Bold"
       y="1448.6626"
       x="-69.746216"
       id="tspan3065"
       sodipodi:role="line">?</tspan></text>
  <path
     inkscape:connector-curvature="0"
     id="path3067"
     d="m 5.619193,303.93306 -0.9537118,-47.13614 -28.7613452,-4e-5 3.6e-5,-28.37791 29.2381379,-3.2e-4 6.298e-4,-154.79383 -29.2388017,-1.85e-4 4.4e-5,-30.958939 29.2382514,5.6e-5 -2.14e-5,-48.1581567 56.758247,-4.31e-5 -9.6e-5,48.1581938 29.23899,2e-6 -4e-6,-48.158159 19.777841,-1.37e-5 19.78007,-3.04e-5 1.2e-4,23.7650651 -1.4e-4,23.764978 9.14972,2.884379 c 18.69988,5.894056 32.90278,19.637043 37.55943,36.340532 6.89811,24.747241 -3.38795,50.772511 -23.48881,59.424601 l -6.8805,2.96083 6.02038,1.31935 c 16.12542,3.53325 33.02373,17.54333 39.89451,33.07676 4.9834,11.26354 5.85711,25.29983 2.32928,37.43116 -2.3234,7.99739 -4.89395,12.00742 -12.69306,19.80581 -10.74131,10.74125 -21.78993,15.93409 -41.57179,19.53593 l -9.93304,2.03577 c 0.41534,15.58131 0,46.74393 0,46.74393 l -39.866738,0.11664 -3.3e-5,-46.91541 -28.452124,-6e-5 -0.972925,47.29845 z M 113.82461,219.3605 c 18.40423,-10.78555 22.80193,-42.18436 7.5229,-53.7078 -7.65906,-5.77645 -16.50115,-7.79338 -39.240703,-8.95068 l -20.208014,-1.02937 c 2.1e-5,24.24863 7.1e-5,48.49736 -2.9e-5,72.74597 20.692192,0.0127 39.532256,-1.88481 51.925726,-9.0586 z m -2.32335,-97.08394 c 6.48748,-4.80016 9.33448,-11.66041 9.23929,-22.26412 -4.396,-28.357891 -32.735314,-26.77128 -58.841665,-26.387632 0.315084,8.665596 -0.297171,46.786222 6.4e-5,52.243222 13.533006,-0.50721 38.935061,1.7937 49.602231,-3.59076 9e-5,-1.5e-4 1.4e-4,-4.4e-4 7e-5,-7.1e-4 z"
     style="fill:#e25f1a;fill-opacity:1;stroke:#000000;stroke-width:8.04057407;stroke-miterlimit:4;stroke-opacity:1;stroke-dasharray:none"
     sodipodi:nodetypes="ccccccccccccccccccccccccccccccccccccccccccccccc" />
  <path
     sodipodi:nodetypes="ccccccccccccccccccccccccccccccccc"
     style="fill:#e25f1a;fill-opacity:1;stroke:#000000;stroke-width:7.29303789;stroke-miterlimit:4;stroke-opacity:1;stroke-dasharray:none"
     d="m 133.6069,1044.1877 0.43248,-25.7399 5.6e-4,-140.40258 -4.6e-4,-28.08084 51.48129,0 26.52065,3e-5 35.88019,-0.56972 8.29902,2.61615 c 16.9614,5.34615 29.84385,17.81147 34.06756,32.96202 6.25677,22.44646 -3.07301,46.05215 -21.30506,53.89977 l -6.24081,2.68565 5.4607,1.19665 c 14.62619,3.2047 29.95345,15.91234 36.18544,30.00152 4.52013,10.21647 5.31257,22.94771 2.1127,33.95125 -2.10738,7.2538 -4.43894,10.8911 -11.5129,17.9645 -9.74273,9.7426 -19.76415,14.4526 -37.7069,17.7196 l -9.00954,1.8465 -36.16033,-0.05 -25.80692,-10e-5 z m 96.5005,-39.2637 c 16.69315,-9.78289 22.06881,-23.18085 8.2103,-33.63286 -6.94703,-5.23949 -14.96706,-7.06891 -35.5925,-8.11859 l -18.32926,-0.93363 c 2e-5,21.99421 -1.38677,28.90678 -1.38686,50.90108 18.76843,0.012 35.85694,-1.7096 47.09817,-8.2166 z m 0.4027,-82.75023 c 5.88439,-4.35386 8.46669,-10.57627 8.38033,-20.19427 -3.98728,-25.7214 -29.69191,-24.28231 -53.37113,-23.93431 0.28579,7.85997 -0.26954,42.43652 6e-5,47.38617 12.27483,-0.46007 35.31526,1.62691 44.9907,-3.2569 5e-5,-2.5e-4 1.1e-4,-4.7e-4 4e-5,-6.9e-4 z"
     id="path3069"
     inkscape:connector-curvature="0" />
  <text
     transform="matrix(0.96542562,-0.26067866,0.26067866,0.96542562,0,0)"
     sodipodi:linespacing="125%"
     id="text3071"
     y="1095.4724"
     x="8.7932997"
     style="font-size:101.09880066px;font-style:normal;font-variant:normal;font-weight:normal;font-stretch:normal;line-height:125%;letter-spacing:0px;word-spacing:0px;fill:#000000;fill-opacity:1;stroke:#000000;stroke-width:4.09370041;stroke-miterlimit:4;stroke-opacity:1;stroke-dasharray:none;font-family:Bookman;-inkscape-font-specification:Bookman"
     xml:space="preserve"><tspan
       style="font-size:363.95562744px;fill:#000000;fill-opacity:1;stroke:#000000;stroke-width:4.09370041;stroke-miterlimit:4;stroke-opacity:1;stroke-dasharray:none;font-family:Abadi MT Condensed Extra Bold;-inkscape-font-specification:Abadi MT Condensed Extra Bold"
       y="1095.4724"
       x="8.7932997"
       id="tspan3073"
       sodipodi:role="line">?</tspan></text>
  <text
     xml:space="preserve"
     style="font-size:101.09880066px;font-style:normal;font-variant:normal;font-weight:normal;font-stretch:normal;line-height:125%;letter-spacing:0px;word-spacing:0px;fill:#000000;fill-opacity:1;stroke:#000000;stroke-width:4.09370041;stroke-miterlimit:4;stroke-opacity:1;stroke-dasharray:none;font-family:Bookman;-inkscape-font-specification:Bookman"
     x="83.280579"
     y="301.58746"
     id="text7318"
     sodipodi:linespacing="125%"
     transform="matrix(0.96542562,-0.26067866,0.26067866,0.96542562,0,0)"><tspan
       sodipodi:role="line"
       id="tspan7320"
       x="83.280579"
       y="301.58746"
       style="font-size:363.95562744px;fill:#000000;fill-opacity:1;stroke:#000000;stroke-width:4.09370041;stroke-miterlimit:4;stroke-opacity:1;stroke-dasharray:none;font-family:Abadi MT Condensed Extra Bold;-inkscape-font-specification:Abadi MT Condensed Extra Bold">?</tspan></text>
</svg>
