<?xml version="1.0" encoding="UTF-8" standalone="no"?>
<!-- Created with Inkscape (http://www.inkscape.org/) -->

<svg
   xmlns:dc="http://purl.org/dc/elements/1.1/"
   xmlns:cc="http://creativecommons.org/ns#"
   xmlns:rdf="http://www.w3.org/1999/02/22-rdf-syntax-ns#"
   xmlns:svg="http://www.w3.org/2000/svg"
   xmlns="http://www.w3.org/2000/svg"
   xmlns:sodipodi="http://sodipodi.sourceforge.net/DTD/sodipodi-0.dtd"
   xmlns:inkscape="http://www.inkscape.org/namespaces/inkscape"
   width="260"
   height="260"
   id="svg2"
   version="1.1"
   inkscape:version="0.48.2 r9819"
   sodipodi:docname="favicon.svg"
   inkscape:export-filename="/Users/smithd98/apps/sowhatsbitcoin.com/images/favicon.png"
   inkscape:export-xdpi="90"
   inkscape:export-ydpi="90">
  <defs
     id="defs4">
    <path
       style="fill:none;stroke:#000000;stroke-width:1px;stroke-linecap:butt;stroke-linejoin:miter;stroke-opacity:1"
       d="m -1392.2932,588.90982 c 20.3921,-52.84313 59.3137,-13.03921 79.9999,7.64707 56.4706,44.90196 81.1765,12.15686 88.8236,-17.05883"
       id="path3068-5"
       inkscape:connector-curvature="0"
       sodipodi:nodetypes="ccc" />
    <path
       style="fill:none;stroke:#000000;stroke-width:1px;stroke-linecap:butt;stroke-linejoin:miter;stroke-opacity:1"
       d="m 171.76471,446.47983 c 26.07842,62.15686 8.62745,147.84313 -7.05882,180.58823"
       id="path3059-0"
       inkscape:connector-curvature="0"
       sodipodi:nodetypes="cc" />
    <path
       style="fill:none;stroke:#000000;stroke-width:1px;stroke-linecap:butt;stroke-linejoin:miter;stroke-opacity:1"
       d="m -1232.7121,1107.6133 c 235.14768,210.1073 618.08934,100.3824 733.4448,-37.3933"
       id="path3050-9"
       inkscape:connector-curvature="0"
       sodipodi:nodetypes="cc" />
    <path
       style="fill:none;stroke:#000000;stroke-width:1px;stroke-linecap:butt;stroke-linejoin:miter;stroke-opacity:1"
       d="m 429,309.43108 c 131.28125,148.81859 63.22078,385.19363 5.8189,488.72619"
       id="path3035-0"
       inkscape:connector-curvature="0"
       sodipodi:nodetypes="cc" />
    <path
       style="fill:none;stroke:#000000;stroke-width:1px;stroke-linecap:butt;stroke-linejoin:miter;stroke-opacity:1"
       d="m -1289.0811,847.61983 c -121.7626,-159.19679 -166.1756,-364.75529 -37.5816,-555.37391"
       id="path3013-0"
       inkscape:connector-curvature="0"
       sodipodi:nodetypes="cc" />
    <path
       style="fill:none;stroke:#000000;stroke-width:1px;stroke-linecap:butt;stroke-linejoin:miter;stroke-opacity:1"
       d="m -1640.2608,189.05728 c 197.7929,-135.774282 367.3284,-135.880072 585.9796,0"
       id="path3000-6"
       inkscape:connector-curvature="0"
       sodipodi:nodetypes="cc" />
  </defs>
  <sodipodi:namedview
     id="base"
     pagecolor="#ffffff"
     bordercolor="#666666"
     borderopacity="1.0"
     inkscape:pageopacity="0.0"
     inkscape:pageshadow="2"
     inkscape:zoom="0.25"
     inkscape:cx="-114.78807"
     inkscape:cy="-685.83261"
     inkscape:document-units="px"
     inkscape:current-layer="layer1"
     showgrid="false"
     inkscape:window-width="982"
     inkscape:window-height="744"
     inkscape:window-x="265"
     inkscape:window-y="6"
     inkscape:window-maximized="0" />
  <metadata
     id="metadata7">
    <rdf:RDF>
      <cc:Work
         rdf:about="">
        <dc:format>image/svg+xml</dc:format>
        <dc:type
           rdf:resource="http://purl.org/dc/dcmitype/StillImage" />
        <dc:title></dc:title>
      </cc:Work>
    </rdf:RDF>
  </metadata>
  <g
     inkscape:label="Layer 1"
     inkscape:groupmode="layer"
     id="layer1"
     transform="translate(0,-792.36218)">
    <text
       sodipodi:linespacing="125%"
       id="text4205"
       y="1048.6021"
       x="-123.81107"
       style="font-size:144.39709473px;font-style:normal;font-weight:normal;line-height:125%;letter-spacing:0px;word-spacing:0px;fill:#000000;fill-opacity:1;stroke:none;font-family:Sans"
       xml:space="preserve"
       transform="matrix(0.96592583,-0.25881905,0.25881905,0.96592583,0,0)"><tspan
         style="font-size:420px;font-style:normal;font-variant:normal;font-weight:normal;font-stretch:normal;font-family:Copperplate;-inkscape-font-specification:Copperplate"
         y="1048.6021"
         x="-123.81107"
         id="tspan4207"
         sodipodi:role="line">?</tspan></text>
    <g
       id="g4223"
       transform="matrix(4.145776,0,0,4.145776,-1393.2027,85.847318)">
      <path
         inkscape:connector-curvature="0"
         id="path4326"
         d="m 387.34898,214.7575 c 0,15.27452 -12.38245,27.65697 -27.65696,27.65697 -15.27452,0 -27.65697,-12.38245 -27.65697,-27.65697 0,-15.27451 12.38245,-27.65696 27.65697,-27.65696 15.27451,0 27.65696,12.38245 27.65696,27.65696 z"
         style="fill:#f7931a;fill-opacity:1;stroke:#000000;stroke-width:0.27177358;stroke-linecap:butt;stroke-linejoin:bevel;stroke-miterlimit:4;stroke-opacity:1;stroke-dasharray:0.54354713, 0.27177356;stroke-dashoffset:0" />
      <path
         sodipodi:nodetypes="cccccccccccccccccccccccccccccccccczccc"
         inkscape:connector-curvature="0"
         d="m 359.62826,196.97108 c -0.42986,1.60423 -0.85972,3.20848 -1.28958,4.81273 -2.26051,-0.60571 -4.52104,-1.21141 -6.78157,-1.81713 -0.31263,1.16673 -0.62526,2.33346 -0.93789,3.50019 1.09382,0.29308 2.18762,0.58616 3.28142,0.87924 -1.45368,5.42527 -2.90738,10.85055 -4.36109,16.27582 -1.0938,-0.29308 -2.1876,-0.58617 -3.2814,-0.87926 -0.31654,1.18131 -0.63306,2.36262 -0.9496,3.54394 2.26054,0.6057 4.52107,1.2114 6.78159,1.81712 -0.43767,1.6334 -0.87535,3.26682 -1.31302,4.90025 1.09382,0.29307 2.18761,0.58616 3.28142,0.87924 0.43767,-1.63342 0.87534,-3.26683 1.31301,-4.90025 1.05006,0.28136 2.1001,0.56272 3.15016,0.84408 -0.43768,1.63343 -0.87534,3.26683 -1.31302,4.90026 1.10839,0.29698 2.21679,0.59398 3.32517,0.89097 0.40626,-1.64184 0.81243,-3.28369 1.21867,-4.92552 2.99158,0.47287 6.62651,0.0849 8.50082,-2.60424 2.21177,-3.13741 0.57096,-7.96865 -2.96725,-9.31872 2.14669,0.35344 3.85823,-1.59774 4.64238,-3.38033 1.11325,-2.30631 0.61514,-5.40692 -1.60257,-6.87768 -0.69632,-0.71856 -2.57153,-0.5818 -2.07701,-1.68646 0.37869,-1.41332 0.7574,-2.82663 1.1361,-4.23995 -1.10839,-0.29699 -2.21677,-0.59398 -3.32517,-0.89097 -0.42985,1.60423 -0.85971,3.20849 -1.28956,4.81273 -1.05006,-0.28135 -2.10011,-0.56272 -3.15017,-0.84408 0.42986,-1.60424 0.85971,-3.20849 1.28956,-4.81274 -1.09379,-0.29309 -2.1876,-0.58617 -3.2814,-0.87924 z m 2.66337,9.51349 c 1.47152,0.38097 3.3923,1.1762 3.3835,2.97048 -0.0447,1.45434 -0.91202,3.17231 -2.57809,3.12612 -1.39365,0.0484 -2.78667,-0.22054 -3.92131,-0.79557 0.5034,-1.87868 1.00677,-3.75736 1.51017,-5.63604 0.61265,0.10892 1.00398,0.17598 1.60573,0.33501 z m 1.54162,12.34925 c 0.28702,1.77475 -0.22554,2.88568 -1.75532,3.78997 -1.52976,0.90426 -3.85191,0.3621 -5.77218,-0.12732 0.65529,-2.44556 1.31058,-4.89112 1.96587,-7.33669 2.04586,0.53871 5.18673,1.89506 5.56163,3.67404 z"
         style="fill:#ffffff;fill-opacity:1;stroke:#000000;stroke-width:0.0452956px;stroke-linecap:butt;stroke-linejoin:miter;stroke-opacity:1"
         id="path4226" />
      <path
         inkscape:connector-curvature="0"
         id="path4324"
         d="m 378.8915,219.90199 c -2.84122,10.60357 -13.74039,16.89623 -24.34397,14.05499 -10.60358,-2.84121 -16.89622,-13.74038 -14.05501,-24.34397 2.84124,-10.60357 13.7404,-16.89621 24.34397,-14.05499 10.60359,2.84122 16.89622,13.74038 14.05501,24.34397 z"
         style="fill:none;stroke:#000000;stroke-width:0.27177358;stroke-linecap:butt;stroke-linejoin:bevel;stroke-miterlimit:4;stroke-opacity:1;stroke-dashoffset:0" />
      <path
         inkscape:connector-curvature="0"
         id="path4326-8"
         d="m 386.81608,214.7575 c 0,14.98022 -12.14385,27.12407 -27.12406,27.12407 -14.98022,0 -27.12407,-12.14385 -27.12407,-27.12407 0,-14.98021 12.14385,-27.12406 27.12407,-27.12406 14.98021,0 27.12406,12.14385 27.12406,27.12406 z"
         style="opacity:0.45132745;fill:none;stroke:#000000;stroke-width:0.54354715;stroke-linecap:butt;stroke-linejoin:bevel;stroke-miterlimit:4;stroke-opacity:1;stroke-dashoffset:0" />
    </g>
  </g>
</svg>
