<svg xmlns="http://www.w3.org/2000/svg" width="260" height="260"><defs><path d="M-1392.293 588.91c20.392-52.843 59.314-13.039 80 7.647 56.471 44.902 81.177 12.157 88.824-17.059m1395.234-133.018c26.078 62.157 8.627 147.843-7.059 180.588m-1397.418 480.545c235.148 210.107 618.089 100.382 733.445-37.393m928.267-760.789c131.281 148.819 63.221 385.194 5.819 488.726m-1723.9 49.463c-121.763-159.197-166.176-364.755-37.582-555.374m-313.598-103.189c197.793-135.774 367.328-135.88 585.98 0M-1392.293 588.91c20.392-52.843 59.314-13.039 80 7.647 56.471 44.902 81.177 12.157 88.824-17.059M171.765 446.48c26.078 62.157 8.627 147.843-7.059 180.588M-1232.712 1107.613c235.148 210.107 618.089 100.382 733.445-37.393M429 309.431c131.281 148.819 63.221 385.194 5.819 488.726M-1289.081 847.62c-121.763-159.197-166.176-364.755-37.582-555.374M-1640.261 189.057c197.793-135.774 367.328-135.88 585.98 0" stroke="#000" fill="none"/></defs><path d="M-163.677 150.366c0 73.31-59.43 132.74-132.74 132.74s-132.74-59.43-132.74-132.74 59.43-132.74 132.74-132.74 132.74 59.43 132.74 132.74zM-546.395 1370.518c0 73.31-59.43 132.74-132.74 132.74s-132.74-59.43-132.74-132.74 59.43-132.74 132.74-132.74 132.74 59.43 132.74 132.74z" fill="#e25f1a" stroke="#000" stroke-width="1.158"/><path d="M126.349 1751.945l7.819-34.301-20.825-5.192 5.123-20.547 21.17 5.278 27.945-112.078-21.17-5.279 5.589-22.416 21.17 5.278 8.694-34.869 41.096 10.246-8.694 34.869 21.17 5.278 8.694-34.869 14.32 3.57 14.322 3.571-4.29 17.207-4.29 17.207 6.104 3.74c12.476 7.643 20.278 20.158 20.634 33.093.527 19.163-11.619 36.15-27.735 38.786l-5.516.902 4.121 2.042c11.038 5.469 20.744 18.664 22.914 31.151 1.575 9.055-.326 19.376-5.071 27.523-3.126 5.371-5.711 7.811-12.766 12.049-9.716 5.838-18.654 7.603-33.627 6.64l-7.56-.319c-2.512 11.357-8.438 33.845-8.438 33.845l-28.887-7.112 8.469-33.969-20.601-5.136-9.243 34.071zm93.614-41.701c15.273-4.487 24.125-26.427 15.143-37.529-4.503-5.565-10.541-8.622-26.796-13.565l-14.446-4.393c-4.377 17.557-8.755 35.114-13.133 52.672 14.98 3.745 28.964 5.772 39.232 2.815zm15.844-70.713c5.564-2.304 8.864-6.758 10.709-14.452 1.936-21.326-18.869-25.293-37.841-29.728-1.336 6.331-8.661 33.822-9.431 37.827 9.89 2.076 27.867 8.328 36.563 6.355v-.001z" fill="#e25f1a" stroke="#000" stroke-width="6"/><text transform="rotate(-15.11)" y="1787.003" x="-178.924" style="line-height:125%;-inkscape-font-specification:Bookman" font-size="101.099" letter-spacing="0" word-spacing="0" stroke="#000" stroke-width="4.094" font-family="Bookman"><tspan style="-inkscape-font-specification:Abadi MT Condensed Extra Bold" y="1787.003" x="-178.924" font-size="363.956" stroke="#000" stroke-width="4.094" font-family="Abadi MT Condensed Extra Bold">?</tspan></text><path d="M143.952 1377.66l6.647-24.871 33.967-136.232 6.793-27.247 49.952 12.454 25.733 6.416 34.952 8.127 7.42 4.546c15.164 9.291 24.648 24.502 25.081 40.225.641 23.293-14.123 43.941-33.712 47.145l-6.705 1.096 5.009 2.482c13.416 6.648 25.214 22.686 27.853 37.864 1.914 11.007-.397 23.551-6.164 33.454-3.8 6.529-6.942 9.494-15.517 14.646-11.81 7.096-22.673 9.242-40.874 8.071l-9.189-.388-35.074-8.796-25.04-6.243zm103.133-14.752c18.564-5.454 27.021-17.153 16.103-30.648-5.473-6.764-12.812-10.48-32.571-16.488l-17.559-5.34-13.66 49.054c18.208 4.552 35.205 7.016 47.687 3.422zm20.41-80.195c6.763-2.801 10.774-8.214 13.017-17.567 2.354-25.922-22.936-30.744-45.996-36.135-1.624 7.696-10.528 41.111-11.464 45.979 12.022 2.523 33.873 10.122 44.442 7.724v-.001z" fill="#e25f1a" stroke="#000" stroke-width="7.293"/><text transform="rotate(-15.11)" y="1448.663" x="-69.746" style="line-height:125%;-inkscape-font-specification:Bookman" font-size="101.099" letter-spacing="0" word-spacing="0" stroke="#000" stroke-width="4.094" font-family="Bookman"><tspan style="-inkscape-font-specification:Abadi MT Condensed Extra Bold" y="1448.663" x="-69.746" font-size="363.956" stroke="#000" stroke-width="4.094" font-family="Abadi MT Condensed Extra Bold">?</tspan></text><path d="M5.619 303.933l-.954-47.136h-28.761v-28.378h29.238l.001-154.794h-29.239v-30.959h29.238v-48.158h56.758v48.158h29.239v-48.158h39.558v47.53l9.15 2.884c18.7 5.894 32.903 19.637 37.559 36.341 6.898 24.747-3.388 50.773-23.489 59.425l-6.88 2.961 6.02 1.319c16.125 3.533 33.024 17.543 39.895 33.077 4.983 11.264 5.857 25.3 2.329 37.431-2.323 7.997-4.894 12.007-12.693 19.806-10.741 10.741-21.79 15.934-41.572 19.536l-9.933 2.036c.415 15.581 0 46.744 0 46.744l-39.867.117v-46.915h-28.452l-.973 47.298zm108.205-84.573c18.404-10.786 22.802-42.184 7.523-53.708-7.659-5.776-16.501-7.793-39.241-8.951l-20.208-1.029v72.746c20.692.013 39.532-1.885 51.926-9.059zm-2.323-97.084c6.487-4.8 9.334-11.66 9.239-22.264-4.396-28.358-32.735-26.771-58.842-26.388.315 8.666-.297 46.786 0 52.243 13.533-.507 38.935 1.794 49.602-3.591v-.001z" fill="#e25f1a" stroke="#000" stroke-width="8.041"/><path d="M133.607 1044.188l.432-25.74.001-140.403v-28.081h78.002l35.88-.57 8.299 2.616c16.961 5.346 29.844 17.811 34.068 32.962 6.257 22.446-3.073 46.052-21.305 53.9l-6.241 2.686 5.461 1.197c14.626 3.205 29.953 15.912 36.185 30.002 4.52 10.216 5.313 22.948 2.113 33.951-2.107 7.254-4.439 10.891-11.513 17.965-9.743 9.743-19.764 14.453-37.707 17.72l-9.01 1.847-36.16-.05h-25.807zm96.501-39.264c16.693-9.783 22.069-23.181 8.21-33.633-6.947-5.239-14.967-7.069-35.593-8.119l-18.329-.934-1.387 50.901c18.768.012 35.857-1.71 47.098-8.217zm.403-82.75c5.884-4.354 8.467-10.576 8.38-20.194-3.987-25.721-29.692-24.282-53.371-23.934.286 7.86-.27 42.437 0 47.386 12.275-.46 35.315 1.627 44.991-3.257v-.001z" fill="#e25f1a" stroke="#000" stroke-width="7.293"/><text transform="rotate(-15.11)" y="1095.472" x="8.793" style="line-height:125%;-inkscape-font-specification:Bookman" font-size="101.099" letter-spacing="0" word-spacing="0" stroke="#000" stroke-width="4.094" font-family="Bookman"><tspan style="-inkscape-font-specification:Abadi MT Condensed Extra Bold" y="1095.472" x="8.793" font-size="363.956" stroke="#000" stroke-width="4.094" font-family="Abadi MT Condensed Extra Bold">?</tspan></text><text style="line-height:125%;-inkscape-font-specification:Bookman" x="83.281" y="301.587" transform="rotate(-15.11)" font-size="101.099" letter-spacing="0" word-spacing="0" stroke="#000" stroke-width="4.094" font-family="Bookman"><tspan x="83.281" y="301.587" style="-inkscape-font-specification:Abadi MT Condensed Extra Bold" font-size="363.956" stroke="#000" stroke-width="4.094" font-family="Abadi MT Condensed Extra Bold">?</tspan></text></svg>