<svg xmlns="http://www.w3.org/2000/svg" width="260" height="260"><defs><path d="M-1392.293 588.91c20.392-52.843 59.314-13.039 80 7.647 56.471 44.902 81.177 12.157 88.824-17.059M171.765 446.48c26.078 62.157 8.627 147.843-7.059 180.588M-1232.712 1107.613c235.148 210.107 618.089 100.382 733.445-37.393M429 309.431c131.281 148.819 63.221 385.194 5.819 488.726M-1289.081 847.62c-121.763-159.197-166.176-364.755-37.582-555.374M-1640.261 189.057c197.793-135.774 367.328-135.88 585.98 0" stroke="#000" fill="none"/></defs><text y="1048.602" x="-123.811" style="line-height:125%" transform="translate(0 -792.362) rotate(-15)" font-size="144.397" letter-spacing="0" word-spacing="0" font-family="Sans"><tspan style="-inkscape-font-specification:Copperplate" y="1048.602" x="-123.811" font-size="420" font-family="Copperplate">?</tspan></text><g stroke="#000"><path d="M212.746 183.87c0 63.328-51.338 114.666-114.666 114.666-63.328 0-114.666-51.338-114.666-114.666 0-63.328 51.338-114.666 114.666-114.666 63.328 0 114.666 51.338 114.666 114.666z" fill="#f7931a"/><path d="M97.816 110.127c-1.782 6.651-3.564 13.302-5.347 19.954l-28.116-7.534-3.888 14.512 13.605 3.645c-6.027 22.493-12.054 44.986-18.081 67.48l-13.605-3.645-3.937 14.693c9.372 2.511 18.744 5.022 28.116 7.534l-5.444 20.316 13.605 3.645 5.444-20.316 13.061 3.5-5.444 20.316 13.786 3.694c1.684-6.807 3.368-13.614 5.053-20.421 12.403 1.961 27.474.352 35.244-10.797 9.17-13.008 2.367-33.038-12.302-38.635 8.9 1.465 15.996-6.624 19.247-14.015 4.616-9.562 2.55-22.417-6.644-28.515-2.887-2.979-10.662-2.412-8.611-6.992l4.71-17.579-13.786-3.694c-1.782 6.651-3.564 13.302-5.347 19.954-4.354-1.166-8.707-2.333-13.061-3.5 1.782-6.651 3.564-13.302 5.347-19.954l-13.605-3.645zm11.042 39.443c6.101 1.58 14.064 4.877 14.028 12.316-.185 6.03-3.781 13.152-10.689 12.961-5.778.201-11.554-.914-16.258-3.298l6.261-23.367c2.54.452 4.163.73 6.657 1.389zm6.392 51.2c1.19 7.358-.935 11.964-7.278 15.713-6.342 3.749-15.97 1.501-23.931-.528 2.717-10.139 5.434-20.279 8.15-30.418 8.482 2.233 21.504 7.857 23.059 15.233z" fill="#fff"/><path d="M177.681 205.199c-11.78 43.962-56.968 70.052-100.93 58.272-43.962-11.78-70.052-56.968-58.272-100.93 11.78-43.962 56.968-70.052 100.93-58.272 43.962 11.78 70.052 56.968 58.272 100.93z" fill="none"/><path d="M210.536 183.87c0 62.108-50.348 112.456-112.456 112.456-62.108 0-112.456-50.348-112.456-112.456 0-62.108 50.348-112.456 112.456-112.456 62.108 0 112.456 50.348 112.456 112.456z" opacity=".451" fill="none"/></g></svg>