<?xml version="1.0" encoding="UTF-8" standalone="no"?>
<!-- Created with Inkscape (http://www.inkscape.org/) -->

<svg
   xmlns:dc="http://purl.org/dc/elements/1.1/"
   xmlns:cc="http://creativecommons.org/ns#"
   xmlns:rdf="http://www.w3.org/1999/02/22-rdf-syntax-ns#"
   xmlns:svg="http://www.w3.org/2000/svg"
   xmlns="http://www.w3.org/2000/svg"
   xmlns:sodipodi="http://sodipodi.sourceforge.net/DTD/sodipodi-0.dtd"
   xmlns:inkscape="http://www.inkscape.org/namespaces/inkscape"
   width="200"
   height="200"
   id="svg2"
   version="1.1"
   inkscape:version="0.48.2 r9819"
   sodipodi:docname="img_src.svg"
   inkscape:export-filename="/Users/smithd98/apps/sowhatsbitcoin.com/images/img_src.png"
   inkscape:export-xdpi="90"
   inkscape:export-ydpi="90">
  <defs
     id="defs4">
    <path
       style="fill:none;stroke:#000000;stroke-width:1px;stroke-linecap:butt;stroke-linejoin:miter;stroke-opacity:1"
       d="m -1392.2932,588.90982 c 20.3921,-52.84313 59.3137,-13.03921 79.9999,7.64707 56.4706,44.90196 81.1765,12.15686 88.8236,-17.05883"
       id="path3068-5"
       inkscape:connector-curvature="0"
       sodipodi:nodetypes="ccc" />
    <path
       style="fill:none;stroke:#000000;stroke-width:1px;stroke-linecap:butt;stroke-linejoin:miter;stroke-opacity:1"
       d="m 171.76471,446.47983 c 26.07842,62.15686 8.62745,147.84313 -7.05882,180.58823"
       id="path3059-0"
       inkscape:connector-curvature="0"
       sodipodi:nodetypes="cc" />
    <path
       style="fill:none;stroke:#000000;stroke-width:1px;stroke-linecap:butt;stroke-linejoin:miter;stroke-opacity:1"
       d="m -1232.7121,1107.6133 c 235.14768,210.1073 618.08934,100.3824 733.4448,-37.3933"
       id="path3050-9"
       inkscape:connector-curvature="0"
       sodipodi:nodetypes="cc" />
    <path
       style="fill:none;stroke:#000000;stroke-width:1px;stroke-linecap:butt;stroke-linejoin:miter;stroke-opacity:1"
       d="m 429,309.43108 c 131.28125,148.81859 63.22078,385.19363 5.8189,488.72619"
       id="path3035-0"
       inkscape:connector-curvature="0"
       sodipodi:nodetypes="cc" />
    <path
       style="fill:none;stroke:#000000;stroke-width:1px;stroke-linecap:butt;stroke-linejoin:miter;stroke-opacity:1"
       d="m -1289.0811,847.61983 c -121.7626,-159.19679 -166.1756,-364.75529 -37.5816,-555.37391"
       id="path3013-0"
       inkscape:connector-curvature="0"
       sodipodi:nodetypes="cc" />
    <path
       style="fill:none;stroke:#000000;stroke-width:1px;stroke-linecap:butt;stroke-linejoin:miter;stroke-opacity:1"
       d="m -1640.2608,189.05728 c 197.7929,-135.774282 367.3284,-135.880072 585.9796,0"
       id="path3000-6"
       inkscape:connector-curvature="0"
       sodipodi:nodetypes="cc" />
  </defs>
  <sodipodi:namedview
     id="base"
     pagecolor="#ffffff"
     bordercolor="#666666"
     borderopacity="1.0"
     inkscape:pageopacity="0.0"
     inkscape:pageshadow="2"
     inkscape:zoom="0.5"
     inkscape:cx="-338.18216"
     inkscape:cy="-66.734852"
     inkscape:document-units="px"
     inkscape:current-layer="layer1"
     showgrid="false"
     inkscape:window-width="1298"
     inkscape:window-height="779"
     inkscape:window-x="15"
     inkscape:window-y="32"
     inkscape:window-maximized="0" />
  <metadata
     id="metadata7">
    <rdf:RDF>
      <cc:Work
         rdf:about="">
        <dc:format>image/svg+xml</dc:format>
        <dc:type
           rdf:resource="http://purl.org/dc/dcmitype/StillImage" />
        <dc:title />
      </cc:Work>
    </rdf:RDF>
  </metadata>
  <g
     inkscape:label="Layer 1"
     inkscape:groupmode="layer"
     id="layer1"
     transform="translate(0,-852.36218)">
    <g
       id="g3441"
       transform="matrix(1.2987013,0,0,1.4853303,-2.8433971e-6,-496.3728)">
      <text
         sodipodi:linespacing="125%"
         id="text4132"
         y="939.72345"
         x="38.639721"
         style="font-size:28.50917053px;font-style:normal;font-weight:normal;line-height:125%;letter-spacing:0px;word-spacing:0px;fill:#000000;fill-opacity:1;stroke:none;font-family:Sans"
         xml:space="preserve"><tspan
           style="font-size:57.01834106px;font-style:normal;font-variant:normal;font-weight:normal;font-stretch:normal;font-family:Copperplate;-inkscape-font-specification:Copperplate"
           y="939.72345"
           x="38.639721"
           id="tspan4134"
           sodipodi:role="line">?</tspan></text>
      <path
         sodipodi:nodetypes="ssccscssssssscsscsssssssscsssssssscccssssssscsssssscsscsssscssssssssssssssscssss"
         inkscape:export-ydpi="90"
         inkscape:export-xdpi="90"
         inkscape:export-filename="/Users/smithd98/apps/sowhatsbitcoin.com/images/soWhatsBitcoin.png"
         inkscape:connector-curvature="0"
         id="path2996"
         d="m 39.577406,1040.9784 c 0,-0.1559 1.90065,-5.8488 4.22366,-12.6509 2.32302,-6.8021 4.32755,-12.8486 4.45456,-13.4366 0.12711,-0.588 0.45902,-1.2406 0.7378,-1.4504 0.27881,-0.2098 1.0276,-1.6275 1.66398,-3.1506 l 1.15708,-2.7693 -1.66398,1.0779 c -0.91519,0.5928 -2.51821,1.2881 -3.56223,1.545 -2.1624,0.5322 -4.15515,-1.3971 -7.49197,-7.2533 -1.04136,-1.8276 -3.12311,-5.20368 -4.62613,-7.50235 -1.50305,-2.29867 -2.73278,-4.97869 -2.73278,-5.95561 0,-1.03164 -0.72536,-2.34679 -1.73039,-3.13735 -0.95174,-0.74863 -3.54559,-3.95156 -5.76411,-7.11767 l -4.03369,-5.75652 1.66589,-1.77455 c 0.91624,-0.97603 1.34518,-1.69724 0.95319,-1.60272 -0.39202,0.0945 -1.23014,-0.0568 -1.86251,-0.33649 -1.08003,-0.47752 -13.7393402,1.3548 -15.0785402,2.18249 -0.33924,0.20952 -0.79296,-0.29254 -1.00829,-1.11598 -0.23322,-0.89152 -0.96817,-1.49717 -1.81697,-1.49717 -1.07432,0 -1.33369,-0.35098 -1.05289,-1.42477 0.20494,-0.78361 0.0811,-1.60489 -0.27517,-1.82507 -1.01074001,-0.62467 0.66636,-3.16474 2.08956,-3.16474 0.6918,0 1.56253,-0.29567 1.93492,-0.65704 0.37242,-0.36138 4.5258402,-0.82921 9.2298502,-1.03961 4.70401,-0.21032 9.03385,-0.4165 9.62184,-0.458 0.58802,-0.0415 2.03128,0.12496 3.20729,0.37015 1.17601,0.24507 2.83846,0.58719 3.69432,0.76032 0.85589,0.17316 1.7595,0.95548 2.00804,1.73858 0.24856,0.7831 0.91137,1.42379 1.47297,1.42379 0.56157,0 1.02105,0.33967 1.02105,0.7548 0,0.41512 0.37029,0.52594 0.82287,0.24614 0.48345,-0.29882 0.63036,-0.19713 0.35615,0.24668 -0.25664,0.41531 0.24722,2.09235 1.11949,3.72677 0.8724,1.63438 1.65092,2.70725 1.73006,2.38409 0.0792,-0.32316 0.27919,-3.92409 0.44457,-8.00208 0.46839,-7.36171 4.76018,-13.58681 6.13291,-13.61099 2.90554,0 15.76761,-2.07639 18.51003,-4.11699 2.7731,-2.06341 -2.74124,-5.34707 -0.60999,-13.34487 2.53204,-9.50189 9.48662,-20.32643 14.62633,-22.76538 1.96439,-0.93218 3.90303,-1.19163 7.4194,-0.99294 4.25605,0.24049 5.1065,0.5528 8.03081,2.94906 1.7989,1.47404 3.59368,3.55186 3.98842,4.61738 1.769524,4.77645 2.970474,13.42512 3.173684,22.85548 l -3.930044,9.04139 6.111544,2.61443 c 4.40102,1.88271 6.48411,10.2663 5.47426,15.59126 -0.38149,2.0116 -0.46309,4.02465 -0.18124,4.47344 0.28174,0.44879 0.61619,1.61782 0.74322,2.59781 0.36506,2.81637 1.60236,7.12731 2.04563,7.12731 0.22217,0 0.28169,-1.28018 0.1325,-2.84484 -0.14919,-1.56467 -0.10261,-2.92776 0.10341,-3.0291 0.76923,-0.37839 4.29462,-5.46367 4.29462,-6.19491 0,-0.41817 0.37419,-0.76029 0.83152,-0.76029 0.45732,0 0.6517,-0.17989 0.43195,-0.39956 -0.38488,-0.38488 1.41208,-2.42481 3.99093,-4.53052 0.68036,-0.55554 3.80791,-1.55265 6.95008,-2.21581 4.9546,-1.04564 5.84843,-1.07036 6.73249,-0.18635 0.56071,0.56068 1.01944,1.31723 1.01944,1.68124 0,0.36399 1.20272,0.66361 2.67273,0.66579 1.47,0.002 3.79531,0.29359 5.16731,0.64756 1.37198,0.35397 3.66631,0.842 5.09845,1.0845 5.01274,0.84881 3.88889,3.79776 -2.57944,6.76852 -3.5587,1.63442 -5.38391,1.68429 -12.31905,0.33655 -1.97052,-0.38295 -2.31636,-0.24426 -2.31636,0.9293 0,0.7587 -1.60366,3.7073 -3.56365,6.55249 -1.96,2.84516 -3.56366,5.93024 -3.56366,6.85575 0,0.92553 -0.34258,1.89447 -0.76131,2.15327 -0.41874,0.2588 -0.59063,0.91533 -0.382,1.45896 0.2087,0.54367 0.0514,0.91212 -0.34948,0.81884 -0.4008,-0.0932 -1.14498,1.00891 -1.65369,2.44934 -1.08006,3.05813 -4.04498,6.95559 -8.22993,10.81849 -2.41633,2.2303 -3.38299,2.6866 -5.14386,2.4282 -2.12236,-0.3115 -2.16092,-0.2639 -1.81743,2.2426 0.28255,2.0618 4.5148,13.8614 7.56519,21.0918 0.33076,0.784 0.68106,1.7462 0.77847,2.1382 0.0975,0.392 0.78229,2.2481 1.52193,4.1246 0.73966,1.8765 1.34483,3.7207 1.34483,4.0982 0,0.4317 -14.54652,0.6863 -39.200124,0.6863 -21.56005,0 -39.2001,-0.1276 -39.2001,-0.2835 z"
         style="fill:#e1e1e1;fill-opacity:1;stroke:#000000;stroke-width:2.85091686;stroke-miterlimit:4;stroke-opacity:1;stroke-dasharray:none" />
      <g
         transform="matrix(1.1136394,0,0,1.1136394,-323.56732,751.87983)"
         id="g4223">
        <path
           style="fill:#f7931a;fill-opacity:1;stroke:#000000;stroke-width:0.27177358;stroke-linecap:butt;stroke-linejoin:bevel;stroke-miterlimit:4;stroke-opacity:1;stroke-dasharray:0.54354713, 0.27177356;stroke-dashoffset:0"
           d="m 387.34898,214.7575 c 0,15.27452 -12.38245,27.65697 -27.65696,27.65697 -15.27452,0 -27.65697,-12.38245 -27.65697,-27.65697 0,-15.27451 12.38245,-27.65696 27.65697,-27.65696 15.27451,0 27.65696,12.38245 27.65696,27.65696 z"
           id="path4326"
           inkscape:connector-curvature="0" />
        <path
           id="path4226"
           style="fill:#ffffff;fill-opacity:1;stroke:#000000;stroke-width:0.0452956px;stroke-linecap:butt;stroke-linejoin:miter;stroke-opacity:1"
           d="m 359.62826,196.97108 c -0.42986,1.60423 -0.85972,3.20848 -1.28958,4.81273 -2.26051,-0.60571 -4.52104,-1.21141 -6.78157,-1.81713 -0.31263,1.16673 -0.62526,2.33346 -0.93789,3.50019 1.09382,0.29308 2.18762,0.58616 3.28142,0.87924 -1.45368,5.42527 -2.90738,10.85055 -4.36109,16.27582 -1.0938,-0.29308 -2.1876,-0.58617 -3.2814,-0.87926 -0.31654,1.18131 -0.63306,2.36262 -0.9496,3.54394 2.26054,0.6057 4.52107,1.2114 6.78159,1.81712 -0.43767,1.6334 -0.87535,3.26682 -1.31302,4.90025 1.09382,0.29307 2.18761,0.58616 3.28142,0.87924 0.43767,-1.63342 0.87534,-3.26683 1.31301,-4.90025 1.05006,0.28136 2.1001,0.56272 3.15016,0.84408 -0.43768,1.63343 -0.87534,3.26683 -1.31302,4.90026 1.10839,0.29698 2.21679,0.59398 3.32517,0.89097 0.40626,-1.64184 0.81243,-3.28369 1.21867,-4.92552 2.99158,0.47287 6.62651,0.0849 8.50082,-2.60424 2.21177,-3.13741 0.57096,-7.96865 -2.96725,-9.31872 2.14669,0.35344 3.85823,-1.59774 4.64238,-3.38033 1.11325,-2.30631 0.61514,-5.40692 -1.60257,-6.87768 -0.69632,-0.71856 -2.57153,-0.5818 -2.07701,-1.68646 0.37869,-1.41332 0.7574,-2.82663 1.1361,-4.23995 -1.10839,-0.29699 -2.21677,-0.59398 -3.32517,-0.89097 -0.42985,1.60423 -0.85971,3.20849 -1.28956,4.81273 -1.05006,-0.28135 -2.10011,-0.56272 -3.15017,-0.84408 0.42986,-1.60424 0.85971,-3.20849 1.28956,-4.81274 -1.09379,-0.29309 -2.1876,-0.58617 -3.2814,-0.87924 z m 2.66337,9.51349 c 1.47152,0.38097 3.3923,1.1762 3.3835,2.97048 -0.0447,1.45434 -0.91202,3.17231 -2.57809,3.12612 -1.39365,0.0484 -2.78667,-0.22054 -3.92131,-0.79557 0.5034,-1.87868 1.00677,-3.75736 1.51017,-5.63604 0.61265,0.10892 1.00398,0.17598 1.60573,0.33501 z m 1.54162,12.34925 c 0.28702,1.77475 -0.22554,2.88568 -1.75532,3.78997 -1.52976,0.90426 -3.85191,0.3621 -5.77218,-0.12732 0.65529,-2.44556 1.31058,-4.89112 1.96587,-7.33669 2.04586,0.53871 5.18673,1.89506 5.56163,3.67404 z"
           inkscape:connector-curvature="0"
           sodipodi:nodetypes="cccccccccccccccccccccccccccccccccczccc" />
        <path
           style="fill:none;stroke:#000000;stroke-width:0.27177358;stroke-linecap:butt;stroke-linejoin:bevel;stroke-miterlimit:4;stroke-opacity:1;stroke-dashoffset:0"
           d="m 378.8915,219.90199 c -2.84122,10.60357 -13.74039,16.89623 -24.34397,14.05499 -10.60358,-2.84121 -16.89622,-13.74038 -14.05501,-24.34397 2.84124,-10.60357 13.7404,-16.89621 24.34397,-14.05499 10.60359,2.84122 16.89622,13.74038 14.05501,24.34397 z"
           id="path4324"
           inkscape:connector-curvature="0" />
        <path
           style="opacity:0.45132745;fill:none;stroke:#000000;stroke-width:0.54354715;stroke-linecap:butt;stroke-linejoin:bevel;stroke-miterlimit:4;stroke-opacity:1;stroke-dashoffset:0"
           d="m 386.81608,214.7575 c 0,14.98022 -12.14385,27.12407 -27.12406,27.12407 -14.98022,0 -27.12407,-12.14385 -27.12407,-27.12407 0,-14.98021 12.14385,-27.12406 27.12407,-27.12406 14.98021,0 27.12406,12.14385 27.12406,27.12406 z"
           id="path4326-8"
           inkscape:connector-curvature="0" />
      </g>
      <text
         transform="matrix(0.96592583,-0.25881905,0.25881905,0.96592583,0,0)"
         xml:space="preserve"
         style="font-size:28.50917053px;font-style:normal;font-weight:normal;line-height:125%;letter-spacing:0px;word-spacing:0px;fill:#000000;fill-opacity:1;stroke:none;font-family:Sans"
         x="-233.70161"
         y="918.35089"
         id="text4205"
         sodipodi:linespacing="125%"><tspan
           sodipodi:role="line"
           id="tspan4207"
           x="-233.70161"
           y="918.35089"
           style="font-size:57.01834106px;font-style:normal;font-variant:normal;font-weight:normal;font-stretch:normal;font-family:Copperplate;-inkscape-font-specification:Copperplate">?</tspan></text>
      <text
         transform="matrix(0.96592583,0.25881905,-0.25881905,0.96592583,0,0)"
         xml:space="preserve"
         style="font-size:28.50917053px;font-style:normal;font-weight:normal;line-height:125%;letter-spacing:0px;word-spacing:0px;fill:#000000;fill-opacity:1;stroke:none;font-family:Sans"
         x="349.14761"
         y="889.22736"
         id="text4209"
         sodipodi:linespacing="125%"><tspan
           sodipodi:role="line"
           id="tspan4211"
           x="349.14761"
           y="889.22736"
           style="font-size:57.01834106px;font-style:normal;font-variant:normal;font-weight:normal;font-stretch:normal;font-family:Copperplate;-inkscape-font-specification:Copperplate">?</tspan></text>
    </g>
  </g>
</svg>
