<svg xmlns="http://www.w3.org/2000/svg" width="200" height="200"><defs><path d="M-1392.293 588.91c20.392-52.843 59.314-13.039 80 7.647 56.471 44.902 81.177 12.157 88.824-17.059M171.765 446.48c26.078 62.157 8.627 147.843-7.059 180.588M-1232.712 1107.613c235.148 210.107 618.089 100.382 733.445-37.393M429 309.431c131.281 148.819 63.221 385.194 5.819 488.726M-1289.081 847.62c-121.763-159.197-166.176-364.755-37.582-555.374M-1640.261 189.057c197.793-135.774 367.328-135.88 585.98 0" stroke="#000" fill="none"/></defs><text y="939.723" x="38.64" style="line-height:125%" font-size="28.509" letter-spacing="0" word-spacing="0" font-family="Sans" transform="matrix(1.299 0 0 1.485 0 -1348.735)"><tspan style="-inkscape-font-specification:Copperplate" y="939.723" x="38.64" font-size="57.018" font-family="Copperplate">?</tspan></text><path d="M39.577 1040.978c0-.156 1.901-5.849 4.224-12.651 2.323-6.802 4.328-12.849 4.455-13.437.127-.588.459-1.241.738-1.45.279-.21 1.028-1.627 1.664-3.151l1.157-2.769-1.664 1.078c-.915.593-2.518 1.288-3.562 1.545-2.162.532-4.155-1.397-7.492-7.253-1.041-1.828-3.123-5.204-4.626-7.502-1.503-2.299-2.733-4.979-2.733-5.956 0-1.032-.725-2.347-1.73-3.137-.952-.749-3.546-3.952-5.764-7.118l-4.034-5.757 1.666-1.775c.916-.976 1.345-1.697.953-1.603-.392.095-1.23-.057-1.863-.336-1.08-.478-13.739 1.355-15.079 2.182-.339.21-.793-.293-1.008-1.116-.233-.892-.968-1.497-1.817-1.497-1.074 0-1.334-.351-1.053-1.425.205-.784.081-1.605-.275-1.825-1.011-.625.666-3.165 2.09-3.165.692 0 1.563-.296 1.935-.657.372-.361 4.526-.829 9.23-1.04 4.704-.21 9.034-.416 9.622-.458.588-.042 2.031.125 3.207.37 1.176.245 2.838.587 3.694.76.856.173 1.76.955 2.008 1.739.249.783.911 1.424 1.473 1.424s1.021.34 1.021.755.37.526.823.246c.483-.299.63-.197.356.247-.257.415.247 2.092 1.119 3.727.872 1.634 1.651 2.707 1.73 2.384.079-.323.279-3.924.445-8.002.468-7.362 4.76-13.587 6.133-13.611 2.906 0 15.768-2.076 18.51-4.117 2.773-2.063-2.741-5.347-.61-13.345 2.532-9.502 9.487-20.326 14.626-22.765 1.964-.932 3.903-1.192 7.419-.993 4.256.24 5.106.553 8.031 2.949 1.799 1.474 3.594 3.552 3.988 4.617 1.77 4.776 2.97 13.425 3.174 22.855l-3.93 9.041 6.112 2.614c4.401 1.883 6.484 10.266 5.474 15.591-.381 2.012-.463 4.025-.181 4.473.282.449.616 1.618.743 2.598.365 2.816 1.602 7.127 2.046 7.127.222 0 .282-1.28.133-2.845-.149-1.565-.103-2.928.103-3.029.769-.378 4.295-5.464 4.295-6.195 0-.418.374-.76.832-.76.457 0 .652-.18.432-.4-.385-.385 1.412-2.425 3.991-4.531.68-.556 3.808-1.553 6.95-2.216 4.955-1.046 5.848-1.07 6.732-.186.561.561 1.019 1.317 1.019 1.681 0 .364 1.203.664 2.673.666 1.47.002 3.795.294 5.167.648 1.372.354 3.666.842 5.098 1.085 5.013.849 3.889 3.798-2.579 6.769-3.559 1.634-5.384 1.684-12.319.337-1.971-.383-2.316-.244-2.316.929 0 .759-1.604 3.707-3.564 6.552-1.96 2.845-3.564 5.93-3.564 6.856 0 .926-.343 1.894-.761 2.153-.419.259-.591.915-.382 1.459.209.544.051.912-.349.819-.401-.093-1.145 1.009-1.654 2.449-1.08 3.058-4.045 6.956-8.23 10.818-2.416 2.23-3.383 2.687-5.144 2.428-2.122-.311-2.161-.264-1.817 2.243.283 2.062 4.515 13.861 7.565 21.092.331.784.681 1.746.778 2.138.098.392.782 2.248 1.522 4.125.74 1.877 1.345 3.721 1.345 4.098 0 .432-14.547.686-39.2.686-21.56 0-39.2-.128-39.2-.283z" fill="#e1e1e1" stroke="#000" stroke-width="2.851" transform="matrix(1.299 0 0 1.485 0 -1348.735)"/><g stroke="#000"><path d="M140.18 123.015c0 25.265-17.917 45.745-40.02 45.745s-40.02-20.48-40.02-45.745 17.917-45.745 40.02-45.745 40.02 20.48 40.02 45.745z" fill="#f7931a"/><path d="M100.068 93.597l-1.867 7.961-9.814-3.005-1.357 5.789 4.748 1.454-6.31 26.921-4.748-1.454-1.375 5.862 9.814 3.005-1.9 8.105 4.748 1.454 1.9-8.105 4.558 1.396-1.9 8.105 4.811 1.474 1.764-8.148c4.329.782 9.589.141 12.301-4.307 3.201-5.189.826-13.181-4.293-15.414 3.107.584 5.583-2.643 6.717-5.591 1.611-3.814.89-8.943-2.32-11.376-1.007-1.189-3.722-.963-3.005-2.789l1.644-7.013-4.811-1.474-1.867 7.961-4.558-1.396 1.867-7.961-4.748-1.454zm3.853 15.735c2.13.63 4.908 1.945 4.897 4.912-.065 2.405-1.32 5.246-3.73 5.17-2.017.079-4.033-.366-5.674-1.317l2.185-9.322c.887.18 1.453.291 2.324.554zm2.231 20.425c.415 2.936-.327 4.773-2.539 6.269-2.214 1.495-5.574.599-8.352-.21l2.845-12.135c2.961.892 7.506 3.134 8.048 6.077z" fill="#fff"/><path d="M127.943 131.525c-4.111 17.539-19.882 27.946-35.226 23.247-15.344-4.699-24.449-22.726-20.338-40.265 4.111-17.539 19.882-27.946 35.226-23.247 15.344 4.699 24.449 22.726 20.338 40.265z" fill="none"/><path d="M139.409 123.015c0 24.777-17.572 44.863-39.248 44.863s-39.248-20.086-39.248-44.863 17.572-44.863 39.248-44.863 39.248 20.086 39.248 44.863z" opacity=".451" fill="none"/></g><text transform="matrix(1.255 -.385 .336 1.435 0 -1348.735)" style="line-height:125%" x="-233.702" y="918.351" font-size="28.509" letter-spacing="0" word-spacing="0" font-family="Sans"><tspan x="-233.702" y="918.351" style="-inkscape-font-specification:Copperplate" font-size="57.018" font-family="Copperplate">?</tspan></text><text transform="matrix(1.255 .385 -.336 1.435 0 -1348.735)" style="line-height:125%" x="349.148" y="889.227" font-size="28.509" letter-spacing="0" word-spacing="0" font-family="Sans"><tspan x="349.148" y="889.227" style="-inkscape-font-specification:Copperplate" font-size="57.018" font-family="Copperplate">?</tspan></text></svg>