<svg xmlns="http://www.w3.org/2000/svg" width="260" height="260"><defs><path d="M-1640.261 189.057c197.793-135.774 367.328-135.88 585.98 0M-1289.081 847.62c-121.763-159.197-166.176-364.755-37.582-555.374M429 309.431c131.281 148.819 63.221 385.194 5.819 488.726M-1232.712 1107.613c235.148 210.107 618.089 100.382 733.445-37.393M171.765 446.48c26.078 62.157 8.627 147.843-7.059 180.588M-1392.293 588.91c20.392-52.843 59.314-13.039 80 7.647 56.471 44.902 81.177 12.157 88.824-17.059" stroke="#000" fill="none"/></defs><path d="M3046.295 142.404c131.281 148.819 63.221 385.194 5.819 488.726" stroke="#000" fill="none"/><g fill="#f60"><path d="M112.355 314.904v2.436h-2.699v1.681h1.576v7.818h-1.576v1.578h2.699v2.479h1.887v-2.479h1.761v2.479h1.721l-.046-2.479c1.397-.147 2.856-.633 3.373-2.063.614-1.672-.701-3.64-2.449-3.82 1.005-.099 1.537-1.179 1.675-2.072.089-2.335-1.708-3.013-2.553-3.121v-2.436h-1.721v2.436h-1.761v-2.436h-1.887zm4.768 4.993c.155.657-.028 1.531-.78 1.711-.619.034-1.524.112-2.101-.01v-2.707c1.243-.048 2.443-.145 2.881 1.006zm.332 4.114c.362.757.214 1.631-.363 2.22-.577.589-1.931.501-2.85.512v-3.524c.982-.004 2.851.036 3.213.793zM111.247 314.904h1.755v15.992h-1.755zM115.578 328.122h.9v2.774h-.9zM115.578 314.903h.993v2.669h-.993z"/></g><path d="M100.84 378.924l-.55-.036-.025-1.211-.024-1.211-.773-.025-.773-.025v-1.408h1.502v-7.954h-1.502v-1.59h1.59v-2.474h2.828v2.474h1.502v-2.474h2.032v2.442l.47.148c.961.303 1.691 1.009 1.93 1.868.354 1.272-.174 2.609-1.207 3.054l-.354.152.309.068c.829.182 1.697.902 2.05 1.7.256.579.301 1.3.12 1.924-.119.411-.252.617-.652 1.018-.552.552-1.12.819-2.136 1.004l-.575.105.032 1.201.032 1.201-.801.046c-.441.025-.902.026-1.024.003l-.223-.043-.024-1.206-.024-1.206h-1.414l-.025 1.215-.025 1.215-.417.001c-.23 0-.616.015-.859.032s-.69.015-.992-.005zm4.942-4.382c.946-.554 1.172-2.168.387-2.76-.394-.297-.848-.401-2.017-.46l-1.038-.053v3.582l1.13-.035c1.035-.032 1.165-.055 1.538-.274zm-.119-4.989c.333-.247.48-.599.475-1.144-.01-.607-.253-1.019-.751-1.253-.454-.213-1.253-.315-1.838-.235l-.435.06v1.355c0 1.214.016 1.36.155 1.401.085.025.606.033 1.157.018.829-.024 1.043-.058 1.237-.202z" fill="#f60" stroke="#000" stroke-width=".25"/><g fill-opacity=".764" stroke="#000" stroke-width=".25"><path d="M110.19 374.417c-.595-.717-1.656-1.121-1.825-2.132-.142-.829-.116-1.686 0-2.514.281-.857.877-1.145 1.678-1.274 1.151-.401 1.507-1.236.765-1.893-.907-.804-1.19-.505-2.378-.521-1.06.002-2.119.054-3.18.059-1.024-.318-1.417-2.048-2.151-2.727.025-.462.956-.004 1.336-.152 1.537.017 3.074-.009 4.61-.008 5.176-.07 5.536 2.718 5.438 6.068-.716 1.562-2.536 1.49-3.675 2.15-.473.793-.182 1.733-.056 2.576.014.3-.301.492-.566.368zM108.752 378.08c-.426-.363-.927-.701-1.139-1.243-.145-.435-.093-.903-.073-1.352.053-.211.308-.227.486-.201.438.056.896.087 1.298.285.427.283.77.671 1.142 1.02.4.402.802.809 1.13 1.273.136.29-.031.658-.322.776-.451.243-.979.175-1.47.198-.259-.034-.413-.267-.616-.405l-.436-.351z"/></g><path d="M26.581 257.853l-.788-38.974h-23.781v-23.464h24.175l.001-127.988h-24.176v-25.598h24.175v-39.819h46.929v39.819h24.176v-39.819h32.708v39.3l7.565 2.385c15.462 4.873 27.205 16.237 31.055 30.048 5.704 20.462-2.801 41.98-19.421 49.134l-5.689 2.448 4.978 1.091c13.333 2.921 27.305 14.505 32.986 27.349 4.12 9.313 4.843 20.919 1.926 30.949-1.921 6.612-4.046 9.928-10.495 16.376-8.881 8.881-18.017 13.175-34.373 16.153l-8.213 1.683c.343 12.883 0 38.649 0 38.649l-32.963.097v-38.791h-23.525l-.804 39.108zm89.468-69.927c15.217-8.918 18.853-34.879 6.22-44.407-6.333-4.776-13.644-6.444-32.445-7.401l-16.709-.851v60.149c17.109.01 32.687-1.558 42.934-7.49zm-1.921-80.272c5.364-3.969 7.718-9.641 7.639-18.409-3.635-23.447-27.067-22.135-48.652-21.818.261 7.165-.246 38.684 0 43.196 11.19-.419 32.193 1.483 41.013-2.969v-.001z" fill="#f60" stroke="#000" stroke-width="4.022"/><text style="line-height:125%;-inkscape-font-specification:Bookman" x="-2512.352" y="421.07" font-size="101.099" letter-spacing="0" word-spacing="0" stroke="#000" stroke-width="4.094" font-family="Bookman" transform="translate(0 -792.362) translate(2617.295 625.336)"><tspan x="-2512.352" y="421.07" style="-inkscape-font-specification:Abadi MT Condensed Extra Bold" font-size="363.956" stroke="#000" stroke-width="4.094" font-family="Abadi MT Condensed Extra Bold">?</tspan></text></svg>