<?xml version="1.0" encoding="UTF-8" standalone="no"?>
<!-- Created with Inkscape (http://www.inkscape.org/) -->

<svg
   xmlns:dc="http://purl.org/dc/elements/1.1/"
   xmlns:cc="http://creativecommons.org/ns#"
   xmlns:rdf="http://www.w3.org/1999/02/22-rdf-syntax-ns#"
   xmlns:svg="http://www.w3.org/2000/svg"
   xmlns="http://www.w3.org/2000/svg"
   xmlns:sodipodi="http://sodipodi.sourceforge.net/DTD/sodipodi-0.dtd"
   xmlns:inkscape="http://www.inkscape.org/namespaces/inkscape"
   width="260"
   height="260"
   id="svg2"
   version="1.1"
   inkscape:version="0.48.2 r9819"
   sodipodi:docname="new-logo-bQ.svg"
   inkscape:export-filename="/Users/smithd98/apps/sowhatsbitcoin.com/images/new-logo-bQ.png"
   inkscape:export-xdpi="90"
   inkscape:export-ydpi="90">
  <defs
     id="defs4">
    <path
       sodipodi:nodetypes="cc"
       inkscape:connector-curvature="0"
       id="path3000-6"
       d="m -1640.2608,189.05728 c 197.7929,-135.774282 367.3284,-135.880072 585.9796,0"
       style="fill:none;stroke:#000000;stroke-width:1px;stroke-linecap:butt;stroke-linejoin:miter;stroke-opacity:1" />
    <path
       sodipodi:nodetypes="cc"
       inkscape:connector-curvature="0"
       id="path3013-0"
       d="m -1289.0811,847.61983 c -121.7626,-159.19679 -166.1756,-364.75529 -37.5816,-555.37391"
       style="fill:none;stroke:#000000;stroke-width:1px;stroke-linecap:butt;stroke-linejoin:miter;stroke-opacity:1" />
    <path
       sodipodi:nodetypes="cc"
       inkscape:connector-curvature="0"
       id="path3035-0"
       d="m 429,309.43108 c 131.28125,148.81859 63.22078,385.19363 5.8189,488.72619"
       style="fill:none;stroke:#000000;stroke-width:1px;stroke-linecap:butt;stroke-linejoin:miter;stroke-opacity:1" />
    <path
       sodipodi:nodetypes="cc"
       inkscape:connector-curvature="0"
       id="path3050-9"
       d="m -1232.7121,1107.6133 c 235.14768,210.1073 618.08934,100.3824 733.4448,-37.3933"
       style="fill:none;stroke:#000000;stroke-width:1px;stroke-linecap:butt;stroke-linejoin:miter;stroke-opacity:1" />
    <path
       sodipodi:nodetypes="cc"
       inkscape:connector-curvature="0"
       id="path3059-0"
       d="m 171.76471,446.47983 c 26.07842,62.15686 8.62745,147.84313 -7.05882,180.58823"
       style="fill:none;stroke:#000000;stroke-width:1px;stroke-linecap:butt;stroke-linejoin:miter;stroke-opacity:1" />
    <path
       sodipodi:nodetypes="ccc"
       inkscape:connector-curvature="0"
       id="path3068-5"
       d="m -1392.2932,588.90982 c 20.3921,-52.84313 59.3137,-13.03921 79.9999,7.64707 56.4706,44.90196 81.1765,12.15686 88.8236,-17.05883"
       style="fill:none;stroke:#000000;stroke-width:1px;stroke-linecap:butt;stroke-linejoin:miter;stroke-opacity:1" />
  </defs>
  <sodipodi:namedview
     id="base"
     pagecolor="#ffffff"
     bordercolor="#666666"
     borderopacity="1.0"
     inkscape:pageopacity="0.0"
     inkscape:pageshadow="2"
     inkscape:zoom="1"
     inkscape:cx="-10.5401"
     inkscape:cy="187.07808"
     inkscape:document-units="px"
     inkscape:current-layer="layer1-8"
     showgrid="false"
     inkscape:window-width="1272"
     inkscape:window-height="838"
     inkscape:window-x="58"
     inkscape:window-y="8"
     inkscape:window-maximized="0" />
  <metadata
     id="metadata7">
    <rdf:RDF>
      <cc:Work
         rdf:about="">
        <dc:format>image/svg+xml</dc:format>
        <dc:type
           rdf:resource="http://purl.org/dc/dcmitype/StillImage" />
        <dc:title />
      </cc:Work>
    </rdf:RDF>
  </metadata>
  <g
     inkscape:label="Layer 1"
     inkscape:groupmode="layer"
     id="layer1"
     transform="translate(0,-792.3622)">
    <g
       id="layer1-8"
       inkscape:label="Layer 1"
       transform="translate(2617.2947,625.33567)">
      <path
         sodipodi:nodetypes="cc"
         inkscape:connector-curvature="0"
         id="path3035"
         d="m 429,309.43108 c 131.28125,148.81859 63.22078,385.19363 5.8189,488.72619"
         style="fill:none;stroke:#000000;stroke-width:1px;stroke-linecap:butt;stroke-linejoin:miter;stroke-opacity:1" />
      <g
         id="g7427"
         style="fill:#ff6600;fill-opacity:1;stroke:none"
         transform="matrix(0.99335927,0,0,0.99335927,-266.49067,522.73955)">
        <path
           style="fill:#ff6600;fill-opacity:1;stroke:none"
           d="m -2254.2288,-41.096558 c 0,0.776014 0,1.677057 0,2.453071 -1.0935,0 -1.6244,0 -2.7179,0 0,0.564374 0,1.128719 0,1.693093 0.5291,0 1.0582,0 1.5873,0 0,2.624339 0,5.248677 0,7.873016 -0.5291,0 -1.0582,0 -1.5873,0 0,0.571428 0,1.588891 0,1.588891 l 2.7179,0 c 0,0 0,1.705877 0,2.496 0.5291,0 1.3707,0 1.8998,0 0,-0.790123 0,-2.496 0,-2.496 l 1.7738,0 c 0,0 0,1.705877 0,2.496 0.5362,0 1.1973,0 1.7335,0 -0.015,-0.790123 -0.03,-1.705877 -0.046,-2.496 1.4073,-0.148356 2.8759,-0.637628 3.3966,-2.077965 0.6188,-1.683449 -0.706,-3.665469 -2.4661,-3.846905 1.0116,-0.100085 1.5481,-1.187674 1.6864,-2.087021 0.09,-2.35153 -1.7197,-3.033888 -2.5713,-3.143109 0,-0.683657 0,-1.769342 0,-2.453 -0.5362,0 -1.1973,0 -1.7335,0 0,0.776014 0,1.676986 0,2.453 -0.5079,0 -1.2658,0 -1.7738,0 0,-0.776014 0,-1.676986 0,-2.453 -0.5291,0 -1.3707,-7.1e-5 -1.8998,-7.1e-5 z m 4.8013,5.028035 c 0.1557,0.661784 -0.028,1.542024 -0.7855,1.722653 -0.6231,0.03412 -1.5344,0.112457 -2.116,-0.0098 0,-0.908764 0,-1.817528 0,-2.726292 1.2515,-0.04838 2.46,-0.146025 2.9015,1.013439 z m 0.3342,4.143078 c 0.3644,0.762124 0.2159,1.642149 -0.3652,2.235264 -0.5811,0.593115 -1.9446,0.504244 -2.8705,0.515581 0,-1.182981 0,-2.365962 0,-3.548942 0.9885,-0.0043 2.8713,0.03597 3.2357,0.798097 z"
           id="path3810"
           inkscape:connector-curvature="0"
           sodipodi:nodetypes="ccccccccccccccccccccccccccccccccssccs" />
        <path
           sodipodi:nodetypes="ccccc"
           inkscape:connector-curvature="0"
           id="rect7362"
           d="m -2255.3445,-41.096487 1.7678,0 0,16.104959 -1.7678,0 z"
           style="fill:#ff6600;fill-opacity:1;stroke:none" />
        <path
           sodipodi:nodetypes="ccccc"
           inkscape:connector-curvature="0"
           id="rect7369"
           d="m 366.312,597.54968 0.90675,0 0,2.7935 -0.90675,0 z"
           style="fill:#ff6600;fill-opacity:1;stroke:none"
           transform="translate(-2617.2947,-625.33567)" />
        <path
           sodipodi:nodetypes="ccccc"
           inkscape:connector-curvature="0"
           id="rect7371"
           d="m 366.312,584.23718 1.0005,0 0,2.6875 -1,0 z"
           style="fill:#ff6600;fill-opacity:1;stroke:none"
           transform="translate(-2617.2947,-625.33567)" />
      </g>
      <path
         style="fill:#ff6600;fill-opacity:1;stroke:#000000;stroke-width:0.25;stroke-miterlimit:4;stroke-opacity:1;stroke-dasharray:none"
         d="m -2516.4552,545.95095 -0.5499,-0.036 -0.025,-1.21119 -0.024,-1.21118 -0.7734,-0.0255 -0.7734,-0.0255 0,-0.70367 0,-0.70366 0.7513,0 0.7513,0 0,-3.97748 0,-3.97748 -0.7513,0 -0.7513,0 0,-0.79549 0,-0.7955 0.7955,0 0.7955,0 0,-1.23743 0,-1.23744 1.4142,0 1.4142,0 0,1.23744 0,1.23743 0.7513,0 0.7513,0 0,-1.23743 0,-1.23744 1.0164,0 1.0165,0 0,1.2213 0,1.22129 0.4702,0.14823 c 0.961,0.3029 1.6909,1.00916 1.9302,1.86756 0.3545,1.27177 -0.1741,2.60922 -1.2071,3.05385 l -0.3536,0.15217 0.3094,0.0678 c 0.8287,0.18157 1.6971,0.90156 2.0502,1.69982 0.2561,0.57885 0.301,1.30017 0.1197,1.92361 -0.1194,0.41099 -0.2515,0.61707 -0.6523,1.01783 -0.552,0.552 -1.1198,0.81886 -2.1364,1.00396 l -0.5745,0.10462 0.032,1.20109 0.032,1.2011 -0.8011,0.0457 c -0.4406,0.0251 -0.9016,0.0265 -1.0243,0.003 l -0.2233,-0.0427 -0.024,-1.2055 -0.024,-1.2055 -0.7071,0 -0.7071,0 -0.025,1.21534 -0.025,1.21534 -0.4174,7.9e-4 c -0.2295,4.5e-4 -0.6162,0.0148 -0.8592,0.0319 -0.2431,0.0171 -0.6895,0.0149 -0.992,-0.005 l 0,-2e-5 z m 4.9421,-4.38222 c 0.9458,-0.55428 1.1718,-2.16788 0.3866,-2.76007 -0.3936,-0.29686 -0.848,-0.40051 -2.0166,-0.45998 l -1.0385,-0.0529 0,1.79123 0,1.79122 1.1302,-0.0352 c 1.0352,-0.0322 1.1645,-0.0553 1.5383,-0.27433 z m -0.1194,-4.98919 c 0.3334,-0.24668 0.4797,-0.59923 0.4748,-1.14417 -0.01,-0.6067 -0.2527,-1.01926 -0.7513,-1.25314 -0.454,-0.21301 -1.2533,-0.31502 -1.838,-0.2346 l -0.4346,0.0598 0,1.35525 c 0,1.21419 0.016,1.36005 0.1547,1.40143 0.085,0.0254 0.6057,0.0334 1.157,0.0178 0.8293,-0.0235 1.0429,-0.0584 1.2374,-0.20233 l 0,0 z"
         id="path7479"
         inkscape:connector-curvature="0" />
      <g
         id="g7473"
         style="fill:#000000;fill-opacity:0.76442309;stroke:#000000;stroke-width:0.25;stroke-miterlimit:4;stroke-opacity:1;stroke-dasharray:none"
         transform="translate(98.485203,119.07122)">
        <path
           sodipodi:nodetypes="ccccscccccccccc"
           inkscape:connector-curvature="0"
           id="path7462"
           d="m -2605.5901,422.37304 c -0.5949,-0.7165 -1.6562,-1.12067 -1.8248,-2.13154 -0.1416,-0.82855 -0.1163,-1.68605 0,-2.5139 0.2813,-0.85679 0.8775,-1.14481 1.6778,-1.27365 1.1509,-0.40123 1.5066,-1.23637 0.7652,-1.89346 -0.9073,-0.80405 -1.1902,-0.50488 -2.3776,-0.5206 -1.0601,0.002 -2.1195,0.0545 -3.1796,0.0592 -1.0238,-0.31815 -1.4167,-2.04848 -2.1508,-2.72734 0.025,-0.46155 0.9561,-0.004 1.336,-0.15247 1.5367,0.0173 3.0735,-0.009 4.6102,-0.008 5.1758,-0.0697 5.5362,2.71829 5.4378,6.0683 -0.7161,1.56244 -2.5359,1.49039 -3.6751,2.14966 -0.4733,0.79272 -0.1824,1.73289 -0.056,2.57555 0.014,0.29956 -0.3012,0.49222 -0.5655,0.36789 z"
           style="fill:#000000;fill-opacity:0.76442309;stroke:#000000;stroke-width:0.25;stroke-miterlimit:4;stroke-opacity:1;stroke-dasharray:none" />
        <path
           sodipodi:nodetypes="cccccccccccc"
           inkscape:connector-curvature="0"
           id="path7467"
           d="m -2607.0277,426.0362 c -0.4264,-0.36264 -0.9269,-0.70114 -1.1388,-1.24268 -0.1449,-0.43546 -0.093,-0.90264 -0.073,-1.35167 0.053,-0.21128 0.3082,-0.22736 0.4864,-0.2011 0.4383,0.0562 0.8959,0.0869 1.298,0.28528 0.4273,0.28346 0.7699,0.67094 1.1418,1.01973 0.3997,0.40216 0.8023,0.80903 1.1301,1.27266 0.1362,0.2898 -0.031,0.65753 -0.3219,0.77554 -0.4508,0.24303 -0.9788,0.17478 -1.4699,0.19829 -0.2588,-0.0335 -0.413,-0.26691 -0.6158,-0.40491 -0.1456,-0.11686 -0.2911,-0.23408 -0.4364,-0.35114 z"
           style="fill:#000000;fill-opacity:0.76442309;stroke:#000000;stroke-width:0.25;stroke-miterlimit:4;stroke-opacity:1;stroke-dasharray:none" />
      </g>
      <path
         inkscape:connector-curvature="0"
         id="path7489"
         d="m -2590.7142,424.88043 -0.7884,-38.97362 -23.7809,0 0,-23.46375 24.1751,-2.9e-4 6e-4,-127.98847 -24.1757,-2.1e-4 0,-25.59774 24.1751,0 0,-39.8187 46.9295,0 0,39.8187 24.1757,0 0,-39.8187 16.353,0 16.3547,0 0,19.64975 0,19.64958 7.5652,2.38491 c 15.4617,4.87341 27.2052,16.23657 31.0554,30.04755 5.7036,20.46177 -2.8012,41.98025 -19.4213,49.13399 l -5.6891,2.4483 4.9779,1.09085 c 13.3331,2.92132 27.3051,14.50538 32.9861,27.34876 4.1204,9.31321 4.8428,20.91869 1.9259,30.94935 -1.9211,6.6125 -4.0464,9.92816 -10.495,16.37606 -8.8812,8.88126 -18.0167,13.17481 -34.373,16.15292 l -8.2129,1.68325 c 0.3434,12.88311 0,38.64933 0,38.64933 l -32.963,0.0965 0,-38.79109 -23.5252,0 -0.8044,39.10772 z m 89.4677,-69.92722 c 15.2172,-8.91792 18.8534,-34.87945 6.2201,-44.40732 -6.3327,-4.77625 -13.6436,-6.44389 -32.4454,-7.40071 l -16.7086,-0.85112 c 0,20.04957 0,40.09914 0,60.14871 17.1089,0.0104 32.6865,-1.55846 42.9339,-7.49004 z m -1.921,-80.27209 c 5.3641,-3.96889 7.718,-9.64113 7.6392,-18.40876 -3.6347,-23.44717 -27.0665,-22.13527 -48.652,-21.81806 0.2605,7.16506 -0.2457,38.68436 0,43.1964 11.1896,-0.41941 32.1929,1.48303 41.0128,-2.96895 0,-2e-4 0,-4.3e-4 0,-6.3e-4 z"
         style="fill:#ff6600;fill-opacity:1;stroke:#000000;stroke-width:4.0223012;stroke-miterlimit:4;stroke-opacity:1;stroke-dasharray:none"
         sodipodi:nodetypes="ccccccccccccccccccccccccccccccccccccccccccccccc" />
      <text
         xml:space="preserve"
         style="font-size:101.09880066px;font-style:normal;font-variant:normal;font-weight:normal;font-stretch:normal;line-height:125%;letter-spacing:0px;word-spacing:0px;fill:#000000;fill-opacity:1;stroke:#000000;stroke-width:4.09370041;stroke-miterlimit:4;stroke-opacity:1;stroke-dasharray:none;font-family:Bookman;-inkscape-font-specification:Bookman"
         x="-2512.3523"
         y="421.07001"
         id="text7318"
         sodipodi:linespacing="125%"><tspan
           sodipodi:role="line"
           id="tspan7320"
           x="-2512.3523"
           y="421.07001"
           style="font-size:363.95562744px;fill:#000000;fill-opacity:1;stroke:#000000;stroke-width:4.09370041;stroke-miterlimit:4;stroke-opacity:1;stroke-dasharray:none;font-family:Abadi MT Condensed Extra Bold;-inkscape-font-specification:Abadi MT Condensed Extra Bold">?</tspan></text>
    </g>
  </g>
</svg>
