<?xml version="1.0" encoding="UTF-8" standalone="no"?>
<!-- Created with Inkscape (http://www.inkscape.org/) -->

<svg
   xmlns:dc="http://purl.org/dc/elements/1.1/"
   xmlns:cc="http://creativecommons.org/ns#"
   xmlns:rdf="http://www.w3.org/1999/02/22-rdf-syntax-ns#"
   xmlns:svg="http://www.w3.org/2000/svg"
   xmlns="http://www.w3.org/2000/svg"
   xmlns:sodipodi="http://sodipodi.sourceforge.net/DTD/sodipodi-0.dtd"
   xmlns:inkscape="http://www.inkscape.org/namespaces/inkscape"
   width="744.09448819"
   height="1052.3622047"
   id="svg2"
   version="1.1"
   inkscape:version="0.48.2 r9819"
   sodipodi:docname="New document 1">
  <defs
     id="defs4" />
  <sodipodi:namedview
     id="base"
     pagecolor="#ffffff"
     bordercolor="#666666"
     borderopacity="1.0"
     inkscape:pageopacity="0.0"
     inkscape:pageshadow="2"
     inkscape:zoom="0.7"
     inkscape:cx="439.89241"
     inkscape:cy="716.60362"
     inkscape:document-units="px"
     inkscape:current-layer="layer1"
     showgrid="false"
     inkscape:window-width="1082"
     inkscape:window-height="700"
     inkscape:window-x="126"
     inkscape:window-y="16"
     inkscape:window-maximized="0" />
  <metadata
     id="metadata7">
    <rdf:RDF>
      <cc:Work
         rdf:about="">
        <dc:format>image/svg+xml</dc:format>
        <dc:type
           rdf:resource="http://purl.org/dc/dcmitype/StillImage" />
        <dc:title></dc:title>
      </cc:Work>
    </rdf:RDF>
  </metadata>
  <g
     inkscape:label="Layer 1"
     inkscape:groupmode="layer"
     id="layer1">
    <path
       style="fill:#e1e1e1;fill-opacity:0.88235295000000002;stroke:#646464;stroke-opacity:1"
       d="m 329.83754,390.61708 c 0,-0.21876 2.66671,-8.20626 5.92602,-17.75 3.25932,-9.54373 6.07182,-18.02724 6.25,-18.85224 0.17819,-0.825 0.64403,-1.74077 1.03519,-2.03505 0.39117,-0.29427 1.44176,-2.28348 2.33465,-4.42047 l 1.62344,-3.88543 -2.33465,1.51229 c -1.28406,0.83176 -3.53317,1.80726 -4.99802,2.16778 -3.03396,0.74671 -5.82991,-1.9602 -10.51164,-10.17685 -1.46108,-2.56425 -4.38191,-7.30105 -6.49075,-10.52622 -2.10883,-3.22518 -3.83424,-6.98541 -3.83424,-8.35608 0,-1.44745 -1.01773,-3.29268 -2.42784,-4.40187 -1.33532,-1.05036 -4.97463,-5.54427 -8.08736,-9.98648 l -5.65952,-8.07674 2.33736,-2.48982 c 1.28555,-1.36941 1.88736,-2.38132 1.33736,-2.24869 -0.55,0.13263 -1.72594,-0.0798 -2.61321,-0.47211 -1.51534,-0.66998 -19.27706,1.90087 -21.15606,3.06216 -0.47594,0.29415 -1.11254,-0.41047 -1.41467,-1.5658 -0.3271,-1.25085 -1.3584,-2.10062 -2.54932,-2.10062 -1.50734,0 -1.87123,-0.49242 -1.47725,-1.999 0.28751,-1.09946 0.11378,-2.25177 -0.38607,-2.56069 -1.41814,-0.87646 0.93494,-4.44031 2.93176,-4.44031 0.97065,0 2.19232,-0.41484 2.71482,-0.92187 0.5225,-0.50703 6.35,-1.16342 12.95,-1.45865 6.6,-0.29523 12.675,-0.58438 13.5,-0.64257 0.825,-0.0582 2.85,0.17551 4.5,0.51933 1.65,0.34381 3.98251,0.82385 5.18335,1.06676 1.20084,0.24291 2.46867,1.3406 2.81739,2.43932 0.34872,1.09873 1.27871,1.99768 2.06665,1.99768 0.78793,0 1.43261,0.47656 1.43261,1.05902 0,0.58246 0.51953,0.73793 1.15451,0.34549 0.67834,-0.41924 0.88444,-0.27656 0.49971,0.34595 -0.36013,0.58271 0.34669,2.9357 1.57071,5.22887 1.22402,2.29316 2.31633,3.79843 2.42736,3.34503 0.11102,-0.4534 0.39172,-5.50571 0.62378,-11.22736 0.35565,-8.76901 0.72051,-10.62133 2.32292,-11.79305 1.04556,-0.76452 1.90101,-1.78317 1.90101,-2.26366 0,-0.48049 0.40965,-1.24862 0.91032,-1.70696 0.5289,-0.48416 0.60892,-0.30957 0.19099,0.41667 -0.85055,1.478 0.9942,1.7135 1.90305,0.24294 0.34233,-0.55389 -0.0785,-1.27604 -0.93523,-1.60479 -2.31105,-0.88683 -0.85775,-2.38815 2.31175,-2.38815 4.07664,0 12.14019,-2.91332 15.98796,-5.77637 3.8908,-2.89508 6.13658,-7.50228 9.12683,-18.72363 3.55261,-13.3317 13.31027,-28.51917 20.52157,-31.94115 2.75615,-1.30789 5.4762,-1.6719 10.40983,-1.39313 5.97149,0.33742 7.16472,0.77559 11.26772,4.1377 2.52393,2.06817 5.04211,4.98347 5.59596,6.47844 2.48276,6.70163 4.16775,18.8362 4.45285,32.06754 l 0.30919,14.3494 2.7516,2.0044 c 5.42856,3.95443 9.09759,14.40421 7.6807,21.87542 -0.53526,2.82239 -0.64976,5.64681 -0.25446,6.2765 0.3953,0.62968 0.86456,2.26988 1.04279,3.64488 0.51221,3.95153 2.24822,10 2.87016,10 0.31157,0 0.3952,-1.79616 0.18584,-3.99146 -0.20935,-2.19531 -0.14412,-4.10781 0.14497,-4.25 1.07929,-0.53089 6.02561,-7.66584 6.02561,-8.69182 0,-0.5867 0.525,-1.06672 1.16667,-1.06672 0.64166,0 0.91439,-0.25227 0.60606,-0.56061 -0.54002,-0.54001 1.98122,-3.40214 5.5995,-6.35659 0.95459,-0.77946 5.34271,-2.17846 9.75138,-3.10889 6.95155,-1.46709 8.20565,-1.50179 9.44607,-0.26137 0.78668,0.78668 1.43032,1.84817 1.43032,2.35889 0,0.51071 1.6875,0.93108 3.75,0.93415 2.0625,0.003 5.325,0.41192 7.25,0.90857 1.925,0.49664 5.14405,1.18137 7.15345,1.52162 7.03315,1.19091 5.45634,5.32845 -3.61913,9.49661 -4.99304,2.29319 -7.55394,2.36316 -17.28432,0.47221 -2.76475,-0.53729 -3.25,-0.34261 -3.25,1.30385 0,1.06449 -2.25,5.20156 -5,9.1935 -2.75,3.99193 -5,8.3205 -5,9.61904 0,1.29854 -0.48068,2.65806 -1.06817,3.02115 -0.5875,0.3631 -0.82869,1.28426 -0.53599,2.04702 0.2927,0.76277 0.0721,1.27976 -0.49031,1.14885 -0.56237,-0.1309 -1.60648,1.41556 -2.32024,3.43657 -1.51536,4.29072 -5.67533,9.75912 -11.54705,15.17891 -3.39024,3.12931 -4.74653,3.76956 -7.21713,3.40696 -2.97781,-0.43705 -3.0319,-0.37032 -2.54997,3.14652 0.39642,2.89279 6.33453,19.44828 10.61441,29.59304 0.46406,1.1 0.95557,2.45 1.09224,3 0.13666,0.55 1.09757,3.15416 2.13534,5.78702 1.03778,2.63286 1.88687,5.22036 1.88687,5.75 0,0.60563 -20.4096,0.96298 -55,0.96298 -30.25,0 -55,-0.17899 -55,-0.39776 z"
       id="path2996"
       inkscape:connector-curvature="0"
       inkscape:export-filename="/Users/smithd98/apps/sowhatsbitcoin.com/images/soWhatsBitcoin.png"
       inkscape:export-xdpi="90"
       inkscape:export-ydpi="90" />
    <text
       xml:space="preserve"
       style="font-size:40px;font-style:normal;font-weight:normal;line-height:125%;letter-spacing:0px;word-spacing:0px;fill:#000000;fill-opacity:1;stroke:none;font-family:Sans"
       x="201.47855"
       y="332.17197"
       id="text3766"
       sodipodi:linespacing="125%"
       transform="matrix(0.97011506,-0.24264535,0.24264535,0.97011506,0,0)"
       inkscape:export-filename="/Users/smithd98/apps/sowhatsbitcoin.com/images/soWhatsBitcoin.png"
       inkscape:export-xdpi="90"
       inkscape:export-ydpi="90"><tspan
         sodipodi:role="line"
         id="tspan3768"
         x="201.47855"
         y="332.17197">So</tspan></text>
    <text
       xml:space="preserve"
       style="font-size:40px;font-style:normal;font-weight:normal;line-height:125%;letter-spacing:0px;word-spacing:0px;fill:#000000;fill-opacity:1;stroke:none;font-family:Sans"
       x="362.59039"
       y="270.74924"
       id="text3770"
       sodipodi:linespacing="125%"
       inkscape:export-filename="/Users/smithd98/apps/sowhatsbitcoin.com/images/soWhatsBitcoin.png"
       inkscape:export-xdpi="90"
       inkscape:export-ydpi="90"><tspan
         sodipodi:role="line"
         id="tspan3772"
         x="362.59039"
         y="270.74924">What's</tspan></text>
    <text
       xml:space="preserve"
       style="font-size:40px;font-style:normal;font-weight:normal;line-height:125%;letter-spacing:0px;word-spacing:0px;fill:#000000;fill-opacity:1;stroke:none;font-family:Sans"
       x="309.79272"
       y="347.47873"
       id="text3774"
       sodipodi:linespacing="125%"
       inkscape:export-filename="/Users/smithd98/apps/sowhatsbitcoin.com/images/soWhatsBitcoin.png"
       inkscape:export-xdpi="90"
       inkscape:export-ydpi="90"><tspan
         sodipodi:role="line"
         id="tspan3776"
         x="309.79272"
         y="347.47873">Bitcoin?</tspan></text>
  </g>
</svg>
