<svg xmlns="http://www.w3.org/2000/svg" width="744.094" height="1052.362"><path d="M329.838 390.617c0-.219 2.667-8.206 5.926-17.75 3.259-9.544 6.072-18.027 6.25-18.852.178-.825.644-1.741 1.035-2.035.391-.294 1.442-2.283 2.335-4.42l1.623-3.885-2.335 1.512c-1.284.832-3.533 1.807-4.998 2.168-3.034.747-5.83-1.96-10.512-10.177-1.461-2.564-4.382-7.301-6.491-10.526-2.109-3.225-3.834-6.985-3.834-8.356 0-1.447-1.018-3.293-2.428-4.402-1.335-1.05-4.975-5.544-8.087-9.986l-5.66-8.077 2.337-2.49c1.286-1.369 1.887-2.381 1.337-2.249-.55.133-1.726-.08-2.613-.472-1.515-.67-19.277 1.901-21.156 3.062-.476.294-1.113-.41-1.415-1.566-.327-1.251-1.358-2.101-2.549-2.101-1.507 0-1.871-.492-1.477-1.999.288-1.099.114-2.252-.386-2.561-1.418-.876.935-4.44 2.932-4.44.971 0 2.192-.415 2.715-.922.522-.507 6.35-1.163 12.95-1.459 6.6-.295 12.675-.584 13.5-.643.825-.058 2.85.176 4.5.519 1.65.344 3.983.824 5.183 1.067 1.201.243 2.469 1.341 2.817 2.439.349 1.099 1.279 1.998 2.067 1.998.788 0 1.433.477 1.433 1.059s.52.738 1.155.345c.678-.419.884-.277.5.346-.36.583.347 2.936 1.571 5.229s2.316 3.798 2.427 3.345c.111-.453.392-5.506.624-11.227.356-8.769.721-10.621 2.323-11.793 1.046-.765 1.901-1.783 1.901-2.264 0-.48.41-1.249.91-1.707.529-.484.609-.31.191.417-.851 1.478.994 1.714 1.903.243.342-.554-.079-1.276-.935-1.605-2.311-.887-.858-2.388 2.312-2.388 4.077 0 12.14-2.913 15.988-5.776 3.891-2.895 6.137-7.502 9.127-18.724 3.553-13.332 13.31-28.519 20.522-31.941 2.756-1.308 5.476-1.672 10.41-1.393 5.971.337 7.165.776 11.268 4.138 2.524 2.068 5.042 4.983 5.596 6.478 2.483 6.702 4.168 18.836 4.453 32.068l.309 14.349 2.752 2.004c5.429 3.954 9.098 14.404 7.681 21.875-.535 2.822-.65 5.647-.254 6.277.395.63.865 2.27 1.043 3.645.512 3.952 2.248 10 2.87 10 .312 0 .395-1.796.186-3.991-.209-2.195-.144-4.108.145-4.25 1.079-.531 6.026-7.666 6.026-8.692 0-.587.525-1.067 1.167-1.067s.914-.252.606-.561c-.54-.54 1.981-3.402 5.599-6.357.955-.779 5.343-2.178 9.751-3.109 6.952-1.467 8.206-1.502 9.446-.261.787.787 1.43 1.848 1.43 2.359 0 .511 1.688.931 3.75.934 2.063.003 5.325.412 7.25.909 1.925.497 5.144 1.181 7.153 1.522 7.033 1.191 5.456 5.328-3.619 9.497-4.993 2.293-7.554 2.363-17.284.472-2.765-.537-3.25-.343-3.25 1.304 0 1.064-2.25 5.202-5 9.194-2.75 3.992-5 8.32-5 9.619 0 1.299-.481 2.658-1.068 3.021-.588.363-.829 1.284-.536 2.047.293.763.072 1.28-.49 1.149-.562-.131-1.606 1.416-2.32 3.437-1.515 4.291-5.675 9.759-11.547 15.179-3.39 3.129-4.747 3.77-7.217 3.407-2.978-.437-3.032-.37-2.55 3.147.396 2.893 6.335 19.448 10.614 29.593.464 1.1.956 2.45 1.092 3 .137.55 1.098 3.154 2.135 5.787 1.038 2.633 1.887 5.22 1.887 5.75 0 .606-20.41.963-55 .963-30.25 0-55-.179-55-.398z" fill="#e1e1e1" fill-opacity=".882" stroke="#646464"/><text style="line-height:125%" x="201.479" y="332.172" transform="rotate(-14.043)" font-size="40" letter-spacing="0" word-spacing="0" font-family="Sans"><tspan x="201.479" y="332.172">So</tspan></text><text style="line-height:125%" x="362.59" y="270.749" font-size="40" letter-spacing="0" word-spacing="0" font-family="Sans"><tspan x="362.59" y="270.749">What&apos;s</tspan></text><text style="line-height:125%" x="309.793" y="347.479" font-size="40" letter-spacing="0" word-spacing="0" font-family="Sans"><tspan x="309.793" y="347.479">Bitcoin?</tspan></text></svg>